<svg width="169" height="169" viewBox="0 0 169 169" fill="none" xmlns="http://www.w3.org/2000/svg">
<g filter="url(#filter0_d_205_7538)">
<rect x="5" y="3" width="159" height="159" rx="8" fill="#0560FA"/>
<path d="M19.3197 74.5557C19.0715 74.7817 18.7669 74.9289 18.4416 74.98C18.1163 75.0311 17.7839 74.9839 17.4834 74.8439C17.1828 74.704 16.9266 74.4772 16.7448 74.19C16.5631 73.9029 16.4633 73.5674 16.4571 73.2229V69.1614C15.5403 69.1614 14.6609 68.7799 14.0126 68.1007C13.3642 67.4215 13 66.5004 13 65.5399V52.8646C13 51.9041 13.3642 50.9829 14.0126 50.3038C14.6609 49.6246 15.5403 49.243 16.4571 49.243H35.4714C36.3883 49.243 37.2677 49.6246 37.916 50.3038C38.5643 50.9829 38.9286 51.9041 38.9286 52.8646V65.5399C38.9286 66.5004 38.5643 67.4215 37.916 68.1007C37.2677 68.7799 36.3883 69.1614 35.4714 69.1614H26.8338L19.3197 74.5557ZM40.6571 60.1384C40.6516 60.3611 40.6516 60.5839 40.6571 60.8066V60.1366C40.6658 59.9428 40.6675 57.5164 40.6641 52.8591C40.6627 51.4193 40.1157 50.039 39.1434 49.0214C38.171 48.0039 36.8528 47.4323 35.4783 47.4323H21.6429V45.6215C21.6429 44.661 22.0071 43.7399 22.6554 43.0607C23.3038 42.3816 24.1831 42 25.1 42H44.1143C45.0312 42 45.9105 42.3816 46.5589 43.0607C47.2072 43.7399 47.5714 44.661 47.5714 45.6215V58.2968C47.5714 59.2573 47.2072 60.1785 46.5589 60.8576C45.9105 61.5368 45.0312 61.9184 44.1143 61.9184V65.9799C44.1082 66.3244 44.0084 66.6599 43.8266 66.947C43.6448 67.2341 43.3886 67.461 43.0881 67.6009C42.7875 67.7408 42.4551 67.788 42.1298 67.737C41.8046 67.6859 41.5 67.5387 41.2518 67.3126L40.6571 66.8853V60.1384Z" fill="white"/>
<path d="M20.875 90.2969H22.8281C22.7656 91.0417 22.5573 91.7057 22.2031 92.2891C21.849 92.8672 21.3516 93.3229 20.7109 93.6562C20.0703 93.9896 19.2917 94.1562 18.375 94.1562C17.6719 94.1562 17.0391 94.0312 16.4766 93.7812C15.9141 93.526 15.4323 93.1667 15.0312 92.7031C14.6302 92.2344 14.3229 91.6693 14.1094 91.0078C13.901 90.3464 13.7969 89.6068 13.7969 88.7891V87.8438C13.7969 87.026 13.9036 86.2865 14.1172 85.625C14.3359 84.9635 14.6484 84.3984 15.0547 83.9297C15.4609 83.4557 15.9479 83.0938 16.5156 82.8438C17.0885 82.5938 17.7318 82.4688 18.4453 82.4688C19.3516 82.4688 20.1172 82.6354 20.7422 82.9688C21.3672 83.3021 21.8516 83.763 22.1953 84.3516C22.5443 84.9401 22.7578 85.6146 22.8359 86.375H20.8828C20.8307 85.8854 20.7161 85.4661 20.5391 85.1172C20.3672 84.7682 20.112 84.5026 19.7734 84.3203C19.4349 84.1328 18.9922 84.0391 18.4453 84.0391C17.9974 84.0391 17.6068 84.1224 17.2734 84.2891C16.9401 84.4557 16.6615 84.7005 16.4375 85.0234C16.2135 85.3464 16.0443 85.7448 15.9297 86.2188C15.8203 86.6875 15.7656 87.224 15.7656 87.8281V88.7891C15.7656 89.362 15.8151 89.8828 15.9141 90.3516C16.0182 90.8151 16.1745 91.2135 16.3828 91.5469C16.5964 91.8802 16.8672 92.138 17.1953 92.3203C17.5234 92.5026 17.9167 92.5938 18.375 92.5938C18.9323 92.5938 19.3828 92.5052 19.7266 92.3281C20.0755 92.151 20.3385 91.8932 20.5156 91.5547C20.6979 91.2109 20.8177 90.7917 20.875 90.2969ZM26.2812 82V94H24.4062V82H26.2812ZM25.9531 89.4609L25.3438 89.4531C25.349 88.8698 25.4297 88.3307 25.5859 87.8359C25.7474 87.3411 25.9714 86.9115 26.2578 86.5469C26.5495 86.1771 26.8984 85.8932 27.3047 85.6953C27.7109 85.4922 28.1615 85.3906 28.6562 85.3906C29.0729 85.3906 29.4479 85.4479 29.7812 85.5625C30.1198 85.6771 30.4115 85.862 30.6562 86.1172C30.901 86.3672 31.0859 86.6953 31.2109 87.1016C31.3411 87.5026 31.4062 87.9922 31.4062 88.5703V94H29.5156V88.5547C29.5156 88.1484 29.4557 87.8255 29.3359 87.5859C29.2214 87.3464 29.0521 87.1745 28.8281 87.0703C28.6042 86.9609 28.3307 86.9062 28.0078 86.9062C27.6693 86.9062 27.3698 86.974 27.1094 87.1094C26.8542 87.2448 26.6406 87.4297 26.4688 87.6641C26.2969 87.8984 26.1667 88.1693 26.0781 88.4766C25.9948 88.7839 25.9531 89.112 25.9531 89.4609ZM38.0781 92.3047V88.2734C38.0781 87.9714 38.0234 87.7109 37.9141 87.4922C37.8047 87.2734 37.638 87.1042 37.4141 86.9844C37.1953 86.8646 36.9193 86.8047 36.5859 86.8047C36.2786 86.8047 36.013 86.8568 35.7891 86.9609C35.5651 87.0651 35.3906 87.2057 35.2656 87.3828C35.1406 87.5599 35.0781 87.7604 35.0781 87.9844H33.2031C33.2031 87.651 33.2839 87.3281 33.4453 87.0156C33.6068 86.7031 33.8411 86.4245 34.1484 86.1797C34.4557 85.9349 34.8229 85.7422 35.25 85.6016C35.6771 85.4609 36.1562 85.3906 36.6875 85.3906C37.3229 85.3906 37.8854 85.4974 38.375 85.7109C38.8698 85.9245 39.2578 86.2474 39.5391 86.6797C39.8255 87.1068 39.9688 87.6432 39.9688 88.2891V92.0469C39.9688 92.4323 39.9948 92.7786 40.0469 93.0859C40.1042 93.388 40.1849 93.651 40.2891 93.875V94H38.3594C38.2708 93.7969 38.2005 93.5391 38.1484 93.2266C38.1016 92.9089 38.0781 92.6016 38.0781 92.3047ZM38.3516 88.8594L38.3672 90.0234H37.0156C36.6667 90.0234 36.3594 90.0573 36.0938 90.125C35.8281 90.1875 35.6068 90.2812 35.4297 90.4062C35.2526 90.5312 35.1198 90.6823 35.0312 90.8594C34.9427 91.0365 34.8984 91.237 34.8984 91.4609C34.8984 91.6849 34.9505 91.8906 35.0547 92.0781C35.1589 92.2604 35.3099 92.4036 35.5078 92.5078C35.7109 92.612 35.9557 92.6641 36.2422 92.6641C36.6276 92.6641 36.9635 92.5859 37.25 92.4297C37.5417 92.2682 37.7708 92.0729 37.9375 91.8438C38.1042 91.6094 38.1927 91.388 38.2031 91.1797L38.8125 92.0156C38.75 92.2292 38.6432 92.4583 38.4922 92.7031C38.3411 92.9479 38.1432 93.1823 37.8984 93.4062C37.6589 93.625 37.3698 93.8047 37.0312 93.9453C36.6979 94.0859 36.3125 94.1562 35.875 94.1562C35.3229 94.1562 34.8307 94.0469 34.3984 93.8281C33.9661 93.6042 33.6276 93.3047 33.3828 92.9297C33.138 92.5495 33.0156 92.1198 33.0156 91.6406C33.0156 91.1927 33.099 90.7969 33.2656 90.4531C33.4375 90.1042 33.6875 89.8125 34.0156 89.5781C34.349 89.3438 34.7552 89.1667 35.2344 89.0469C35.7135 88.9219 36.2604 88.8594 36.875 88.8594H38.3516ZM45.8125 85.5469V86.9219H41.0469V85.5469H45.8125ZM42.4219 83.4766H44.3047V91.6641C44.3047 91.9245 44.3411 92.125 44.4141 92.2656C44.4922 92.401 44.599 92.4922 44.7344 92.5391C44.8698 92.5859 45.0286 92.6094 45.2109 92.6094C45.3411 92.6094 45.4661 92.6016 45.5859 92.5859C45.7057 92.5703 45.8021 92.5547 45.875 92.5391L45.8828 93.9766C45.7266 94.0234 45.5443 94.0651 45.3359 94.1016C45.1328 94.138 44.8984 94.1562 44.6328 94.1562C44.2005 94.1562 43.8177 94.0807 43.4844 93.9297C43.151 93.7734 42.8906 93.5208 42.7031 93.1719C42.5156 92.8229 42.4219 92.3594 42.4219 91.7812V83.4766ZM52.0078 91.7109C52.0078 91.5234 51.9609 91.3542 51.8672 91.2031C51.7734 91.0469 51.5938 90.9062 51.3281 90.7812C51.0677 90.6562 50.6823 90.5417 50.1719 90.4375C49.724 90.3385 49.3125 90.2214 48.9375 90.0859C48.5677 89.9453 48.25 89.776 47.9844 89.5781C47.7188 89.3802 47.513 89.1458 47.3672 88.875C47.2214 88.6042 47.1484 88.2917 47.1484 87.9375C47.1484 87.5938 47.224 87.2682 47.375 86.9609C47.526 86.6536 47.7422 86.3828 48.0234 86.1484C48.3047 85.9141 48.6458 85.7292 49.0469 85.5938C49.4531 85.4583 49.9062 85.3906 50.4062 85.3906C51.1146 85.3906 51.7214 85.5104 52.2266 85.75C52.737 85.9844 53.1276 86.3047 53.3984 86.7109C53.6693 87.112 53.8047 87.5651 53.8047 88.0703H51.9219C51.9219 87.8464 51.8646 87.638 51.75 87.4453C51.6406 87.2474 51.474 87.0885 51.25 86.9688C51.026 86.8438 50.7448 86.7812 50.4062 86.7812C50.0833 86.7812 49.8151 86.8333 49.6016 86.9375C49.3932 87.0365 49.237 87.1667 49.1328 87.3281C49.0339 87.4896 48.9844 87.6667 48.9844 87.8594C48.9844 88 49.0104 88.1276 49.0625 88.2422C49.1198 88.3516 49.2135 88.4531 49.3438 88.5469C49.474 88.6354 49.651 88.7188 49.875 88.7969C50.1042 88.875 50.3906 88.9505 50.7344 89.0234C51.3802 89.1589 51.9349 89.3333 52.3984 89.5469C52.8672 89.7552 53.2266 90.026 53.4766 90.3594C53.7266 90.6875 53.8516 91.1042 53.8516 91.6094C53.8516 91.9844 53.7708 92.3281 53.6094 92.6406C53.4531 92.9479 53.224 93.2161 52.9219 93.4453C52.6198 93.6693 52.2578 93.8438 51.8359 93.9688C51.4193 94.0938 50.9505 94.1562 50.4297 94.1562C49.6641 94.1562 49.0156 94.0208 48.4844 93.75C47.9531 93.474 47.5495 93.1224 47.2734 92.6953C47.0026 92.263 46.8672 91.8151 46.8672 91.3516H48.6875C48.7083 91.7005 48.8047 91.9792 48.9766 92.1875C49.1536 92.3906 49.3724 92.5391 49.6328 92.6328C49.8984 92.7214 50.1719 92.7656 50.4531 92.7656C50.7917 92.7656 51.0755 92.7214 51.3047 92.6328C51.5339 92.5391 51.7083 92.4141 51.8281 92.2578C51.9479 92.0964 52.0078 91.9141 52.0078 91.7109Z" fill="white"/>
<path d="M16.4386 109.661C16.4386 109.537 16.4192 109.428 16.3804 109.333C16.344 109.236 16.2785 109.149 16.1839 109.071C16.0917 108.994 15.9631 108.92 15.7982 108.85C15.6356 108.779 15.4294 108.708 15.1796 108.635C14.9176 108.557 14.6811 108.471 14.47 108.376C14.259 108.279 14.0783 108.169 13.9279 108.045C13.7775 107.922 13.6622 107.78 13.5822 107.62C13.5021 107.46 13.4621 107.276 13.4621 107.07C13.4621 106.864 13.5046 106.674 13.5895 106.499C13.6744 106.324 13.7957 106.173 13.9533 106.044C14.1134 105.913 14.3039 105.811 14.5246 105.738C14.7454 105.666 14.9916 105.629 15.2633 105.629C15.6611 105.629 15.9983 105.706 16.2748 105.859C16.5538 106.009 16.7661 106.207 16.9116 106.452C17.0571 106.694 17.1299 106.954 17.1299 107.23H16.4313C16.4313 107.031 16.3888 106.856 16.3039 106.703C16.219 106.547 16.0905 106.426 15.9182 106.339C15.746 106.249 15.5277 106.204 15.2633 106.204C15.0134 106.204 14.8072 106.242 14.6447 106.317C14.4822 106.392 14.3609 106.494 14.2808 106.623C14.2032 106.751 14.1644 106.898 14.1644 107.063C14.1644 107.175 14.1874 107.276 14.2335 107.369C14.282 107.458 14.356 107.542 14.4555 107.62C14.5574 107.697 14.6859 107.769 14.8412 107.834C14.9989 107.9 15.1869 107.963 15.4052 108.024C15.706 108.108 15.9655 108.203 16.1839 108.307C16.4022 108.412 16.5817 108.529 16.7224 108.66C16.8655 108.789 16.971 108.936 17.039 109.101C17.1093 109.263 17.1445 109.447 17.1445 109.654C17.1445 109.87 17.1008 110.065 17.0135 110.24C16.9262 110.414 16.8012 110.563 16.6387 110.687C16.4762 110.811 16.2809 110.907 16.0529 110.975C15.8273 111.04 15.575 111.073 15.296 111.073C15.051 111.073 14.8096 111.039 14.5719 110.971C14.3366 110.903 14.1219 110.801 13.9279 110.665C13.7362 110.529 13.5822 110.362 13.4658 110.163C13.3517 109.962 13.2947 109.729 13.2947 109.464H13.9934C13.9934 109.646 14.0285 109.803 14.0989 109.934C14.1692 110.062 14.2651 110.169 14.3863 110.254C14.5101 110.339 14.6495 110.402 14.8048 110.443C14.9625 110.482 15.1262 110.501 15.296 110.501C15.541 110.501 15.7484 110.468 15.9182 110.4C16.088 110.332 16.2166 110.235 16.3039 110.109C16.3937 109.982 16.4386 109.833 16.4386 109.661ZM19.5715 111.073C19.2974 111.073 19.0487 111.027 18.8256 110.935C18.6048 110.84 18.4144 110.708 18.2543 110.538C18.0966 110.368 17.9753 110.167 17.8904 109.934C17.8055 109.701 17.7631 109.446 17.7631 109.17V109.017C17.7631 108.697 17.8104 108.412 17.905 108.162C17.9996 107.91 18.1281 107.696 18.2907 107.521C18.4532 107.347 18.6376 107.215 18.8437 107.125C19.0499 107.035 19.2634 106.99 19.4842 106.99C19.7656 106.99 20.0081 107.039 20.2119 107.136C20.4181 107.233 20.5867 107.369 20.7177 107.543C20.8487 107.715 20.9457 107.919 21.0088 108.155C21.0718 108.387 21.1034 108.642 21.1034 108.919V109.221H18.1633V108.671H20.4302V108.62C20.4205 108.446 20.3841 108.276 20.3211 108.111C20.2604 107.946 20.1634 107.81 20.03 107.703C19.8965 107.597 19.7146 107.543 19.4842 107.543C19.3313 107.543 19.1906 107.576 19.0621 107.641C18.9335 107.705 18.8231 107.799 18.731 107.925C18.6388 108.051 18.5672 108.205 18.5163 108.387C18.4653 108.569 18.4399 108.779 18.4399 109.017V109.17C18.4399 109.357 18.4653 109.532 18.5163 109.697C18.5696 109.86 18.646 110.003 18.7455 110.127C18.8474 110.25 18.9699 110.347 19.113 110.418C19.2586 110.488 19.4235 110.523 19.6079 110.523C19.8456 110.523 20.0469 110.475 20.2119 110.378C20.3769 110.281 20.5212 110.151 20.6449 109.988L21.0524 110.312C20.9675 110.441 20.8596 110.563 20.7286 110.68C20.5976 110.796 20.4363 110.891 20.2446 110.964C20.0554 111.036 19.831 111.073 19.5715 111.073ZM24.2108 110.327V108.3C24.2108 108.145 24.1793 108.01 24.1162 107.896C24.0556 107.78 23.9634 107.69 23.8397 107.627C23.716 107.564 23.5631 107.532 23.3812 107.532C23.2114 107.532 23.0622 107.561 22.9336 107.62C22.8075 107.678 22.708 107.754 22.6353 107.849C22.5649 107.943 22.5298 108.045 22.5298 108.155H21.8566C21.8566 108.014 21.893 107.874 21.9658 107.736C22.0385 107.598 22.1428 107.473 22.2787 107.361C22.417 107.247 22.5819 107.158 22.7735 107.092C22.9676 107.024 23.1835 106.99 23.4212 106.99C23.7075 106.99 23.9598 107.039 24.1781 107.136C24.3988 107.233 24.5711 107.379 24.6948 107.576C24.8209 107.77 24.884 108.014 24.884 108.307V110.141C24.884 110.272 24.8949 110.412 24.9167 110.56C24.941 110.708 24.9762 110.835 25.0223 110.942V111H24.32C24.286 110.922 24.2593 110.819 24.2399 110.691C24.2205 110.56 24.2108 110.438 24.2108 110.327ZM24.3273 108.613L24.3345 109.086H23.6541C23.4625 109.086 23.2915 109.102 23.1411 109.133C22.9907 109.162 22.8645 109.207 22.7626 109.268C22.6607 109.329 22.5831 109.405 22.5298 109.497C22.4764 109.587 22.4497 109.692 22.4497 109.814C22.4497 109.938 22.4776 110.05 22.5334 110.152C22.5892 110.254 22.6729 110.335 22.7845 110.396C22.8985 110.454 23.038 110.483 23.2029 110.483C23.4091 110.483 23.591 110.44 23.7487 110.352C23.9064 110.265 24.0313 110.158 24.1235 110.032C24.2181 109.906 24.269 109.783 24.2763 109.665L24.5638 109.988C24.5468 110.09 24.5007 110.203 24.4255 110.327C24.3503 110.451 24.2496 110.569 24.1235 110.683C23.9998 110.795 23.8518 110.888 23.6796 110.964C23.5098 111.036 23.3181 111.073 23.1047 111.073C22.8378 111.073 22.6037 111.021 22.4024 110.916C22.2035 110.812 22.0482 110.673 21.9366 110.498C21.8275 110.321 21.7729 110.123 21.7729 109.905C21.7729 109.694 21.8141 109.508 21.8966 109.348C21.9791 109.186 22.098 109.051 22.2532 108.944C22.4085 108.835 22.5952 108.752 22.8136 108.697C23.0319 108.641 23.2757 108.613 23.5449 108.613H24.3273ZM26.616 107.682V111H25.9429V107.063H26.5978L26.616 107.682ZM27.8459 107.041L27.8423 107.667C27.7865 107.655 27.7331 107.648 27.6821 107.645C27.6336 107.64 27.5778 107.638 27.5148 107.638C27.3595 107.638 27.2225 107.662 27.1036 107.711C26.9847 107.759 26.8841 107.827 26.8016 107.914C26.7191 108.002 26.6536 108.106 26.6051 108.227C26.559 108.346 26.5287 108.477 26.5141 108.62L26.3249 108.729C26.3249 108.492 26.348 108.269 26.394 108.06C26.4426 107.851 26.5166 107.667 26.616 107.507C26.7155 107.344 26.8416 107.218 26.9944 107.128C27.1497 107.036 27.334 106.99 27.5475 106.99C27.596 106.99 27.6518 106.996 27.7149 107.008C27.778 107.018 27.8216 107.029 27.8459 107.041ZM29.9709 110.52C30.131 110.52 30.279 110.487 30.4148 110.421C30.5507 110.356 30.6622 110.266 30.7496 110.152C30.8369 110.036 30.8866 109.904 30.8988 109.756H31.5392C31.527 109.988 31.4482 110.206 31.3027 110.407C31.1595 110.606 30.9715 110.767 30.7387 110.891C30.5058 111.012 30.2499 111.073 29.9709 111.073C29.6749 111.073 29.4166 111.021 29.1958 110.916C28.9775 110.812 28.7956 110.669 28.65 110.487C28.5069 110.305 28.399 110.096 28.3262 109.861C28.2558 109.623 28.2207 109.372 28.2207 109.108V108.955C28.2207 108.691 28.2558 108.441 28.3262 108.205C28.399 107.968 28.5069 107.758 28.65 107.576C28.7956 107.394 28.9775 107.251 29.1958 107.147C29.4166 107.042 29.6749 106.99 29.9709 106.99C30.279 106.99 30.5482 107.053 30.7787 107.179C31.0091 107.303 31.1899 107.473 31.3208 107.689C31.4543 107.902 31.527 108.145 31.5392 108.417H30.8988C30.8866 108.254 30.8405 108.107 30.7605 107.976C30.6829 107.845 30.5761 107.741 30.4403 107.663C30.3069 107.583 30.1504 107.543 29.9709 107.543C29.7647 107.543 29.5913 107.584 29.4506 107.667C29.3123 107.747 29.2019 107.856 29.1194 107.994C29.0394 108.13 28.9812 108.282 28.9448 108.449C28.9108 108.614 28.8938 108.783 28.8938 108.955V109.108C28.8938 109.28 28.9108 109.45 28.9448 109.617C28.9787 109.785 29.0357 109.936 29.1158 110.072C29.1983 110.208 29.3086 110.317 29.4469 110.4C29.5876 110.48 29.7623 110.52 29.9709 110.52ZM32.9692 105.411V111H32.296V105.411H32.9692ZM32.8091 108.882L32.5289 108.871C32.5313 108.602 32.5713 108.353 32.649 108.125C32.7266 107.895 32.8358 107.695 32.9765 107.525C33.1172 107.355 33.2845 107.224 33.4786 107.132C33.6751 107.037 33.8922 106.99 34.1299 106.99C34.324 106.99 34.4986 107.017 34.6539 107.07C34.8091 107.121 34.9414 107.204 35.0505 107.318C35.1621 107.432 35.247 107.58 35.3052 107.762C35.3634 107.941 35.3925 108.161 35.3925 108.42V111H34.7158V108.413C34.7158 108.207 34.6854 108.042 34.6248 107.918C34.5641 107.792 34.4756 107.701 34.3592 107.645C34.2427 107.587 34.0996 107.558 33.9298 107.558C33.7624 107.558 33.6096 107.593 33.4713 107.663C33.3355 107.734 33.2178 107.831 33.1184 107.954C33.0213 108.078 32.9449 108.22 32.8891 108.38C32.8358 108.538 32.8091 108.705 32.8091 108.882ZM39.2532 111H38.5801V106.648C38.5801 106.364 38.631 106.125 38.7329 105.931C38.8372 105.735 38.9864 105.587 39.1804 105.487C39.3745 105.385 39.605 105.335 39.8718 105.335C39.9494 105.335 40.027 105.339 40.1047 105.349C40.1847 105.359 40.2623 105.373 40.3375 105.393L40.3012 105.942C40.2502 105.93 40.192 105.922 40.1265 105.917C40.0634 105.912 40.0004 105.909 39.9373 105.909C39.7942 105.909 39.6704 105.939 39.5661 105.997C39.4643 106.053 39.3866 106.135 39.3333 106.244C39.2799 106.353 39.2532 106.488 39.2532 106.648V111ZM40.0901 107.063V107.58H37.9578V107.063H40.0901ZM40.6614 109.075V108.991C40.6614 108.708 40.7026 108.444 40.7851 108.202C40.8676 107.957 40.9864 107.745 41.1417 107.565C41.2969 107.383 41.4849 107.242 41.7057 107.143C41.9264 107.041 42.1739 106.99 42.448 106.99C42.7245 106.99 42.9732 107.041 43.1939 107.143C43.4171 107.242 43.6063 107.383 43.7616 107.565C43.9192 107.745 44.0393 107.957 44.1218 108.202C44.2043 108.444 44.2455 108.708 44.2455 108.991V109.075C44.2455 109.359 44.2043 109.622 44.1218 109.865C44.0393 110.107 43.9192 110.32 43.7616 110.501C43.6063 110.681 43.4183 110.822 43.1976 110.924C42.9792 111.023 42.7318 111.073 42.4553 111.073C42.1787 111.073 41.9301 111.023 41.7093 110.924C41.4886 110.822 41.2994 110.681 41.1417 110.501C40.9864 110.32 40.8676 110.107 40.7851 109.865C40.7026 109.622 40.6614 109.359 40.6614 109.075ZM41.3345 108.991V109.075C41.3345 109.272 41.3576 109.457 41.4037 109.632C41.4498 109.804 41.5189 109.957 41.6111 110.09C41.7057 110.224 41.8233 110.329 41.964 110.407C42.1047 110.482 42.2685 110.52 42.4553 110.52C42.6396 110.52 42.8009 110.482 42.9392 110.407C43.0799 110.329 43.1963 110.224 43.2885 110.09C43.3807 109.957 43.4498 109.804 43.4959 109.632C43.5444 109.457 43.5687 109.272 43.5687 109.075V108.991C43.5687 108.797 43.5444 108.614 43.4959 108.442C43.4498 108.267 43.3795 108.113 43.2849 107.98C43.1927 107.844 43.0763 107.737 42.9356 107.66C42.7973 107.582 42.6348 107.543 42.448 107.543C42.2636 107.543 42.1011 107.582 41.9604 107.66C41.8221 107.737 41.7057 107.844 41.6111 107.98C41.5189 108.113 41.4498 108.267 41.4037 108.442C41.3576 108.614 41.3345 108.797 41.3345 108.991ZM45.7628 107.682V111H45.0897V107.063H45.7446L45.7628 107.682ZM46.9927 107.041L46.9891 107.667C46.9333 107.655 46.8799 107.648 46.829 107.645C46.7805 107.64 46.7247 107.638 46.6616 107.638C46.5063 107.638 46.3693 107.662 46.2504 107.711C46.1316 107.759 46.0309 107.827 45.9484 107.914C45.8659 108.002 45.8004 108.106 45.7519 108.227C45.7058 108.346 45.6755 108.477 45.661 108.62L45.4717 108.729C45.4717 108.492 45.4948 108.269 45.5409 108.06C45.5894 107.851 45.6634 107.667 45.7628 107.507C45.8623 107.344 45.9884 107.218 46.1413 107.128C46.2965 107.036 46.4809 106.99 46.6943 106.99C46.7429 106.99 46.7987 106.996 46.8617 107.008C46.9248 107.018 46.9685 107.029 46.9927 107.041ZM51.7849 110.327V108.3C51.7849 108.145 51.7534 108.01 51.6903 107.896C51.6296 107.78 51.5375 107.69 51.4137 107.627C51.29 107.564 51.1372 107.532 50.9553 107.532C50.7855 107.532 50.6363 107.561 50.5077 107.62C50.3816 107.678 50.2821 107.754 50.2093 107.849C50.139 107.943 50.1038 108.045 50.1038 108.155H49.4306C49.4306 108.014 49.467 107.874 49.5398 107.736C49.6126 107.598 49.7169 107.473 49.8527 107.361C49.991 107.247 50.156 107.158 50.3476 107.092C50.5417 107.024 50.7576 106.99 50.9953 106.99C51.2815 106.99 51.5338 107.039 51.7521 107.136C51.9729 107.233 52.1451 107.379 52.2688 107.576C52.395 107.77 52.458 108.014 52.458 108.307V110.141C52.458 110.272 52.469 110.412 52.4908 110.56C52.5151 110.708 52.5502 110.835 52.5963 110.942V111H51.894C51.8601 110.922 51.8334 110.819 51.814 110.691C51.7946 110.56 51.7849 110.438 51.7849 110.327ZM51.9013 108.613L51.9086 109.086H51.2282C51.0365 109.086 50.8655 109.102 50.7151 109.133C50.5647 109.162 50.4386 109.207 50.3367 109.268C50.2348 109.329 50.1572 109.405 50.1038 109.497C50.0504 109.587 50.0238 109.692 50.0238 109.814C50.0238 109.938 50.0517 110.05 50.1074 110.152C50.1632 110.254 50.2469 110.335 50.3585 110.396C50.4725 110.454 50.612 110.483 50.777 110.483C50.9832 110.483 51.1651 110.44 51.3228 110.352C51.4804 110.265 51.6054 110.158 51.6976 110.032C51.7922 109.906 51.8431 109.783 51.8504 109.665L52.1378 109.988C52.1209 110.09 52.0748 110.203 51.9996 110.327C51.9244 110.451 51.8237 110.569 51.6976 110.683C51.5738 110.795 51.4259 110.888 51.2536 110.964C51.0838 111.036 50.8922 111.073 50.6787 111.073C50.4119 111.073 50.1778 111.021 49.9765 110.916C49.7775 110.812 49.6223 110.673 49.5107 110.498C49.4015 110.321 49.347 110.123 49.347 109.905C49.347 109.694 49.3882 109.508 49.4707 109.348C49.5532 109.186 49.672 109.051 49.8273 108.944C49.9825 108.835 50.1693 108.752 50.3876 108.697C50.6059 108.641 50.8497 108.613 51.119 108.613H51.9013ZM54.6558 110.392L55.7329 107.063H56.4206L55.0051 111H54.5539L54.6558 110.392ZM53.7571 107.063L54.8669 110.411L54.9433 111H54.4921L53.0657 107.063H53.7571ZM59.3315 110.327V108.3C59.3315 108.145 59.3 108.01 59.2369 107.896C59.1763 107.78 59.0841 107.69 58.9604 107.627C58.8367 107.564 58.6839 107.532 58.5019 107.532C58.3321 107.532 58.1829 107.561 58.0544 107.62C57.9282 107.678 57.8288 107.754 57.756 107.849C57.6856 107.943 57.6505 108.045 57.6505 108.155H56.9773C56.9773 108.014 57.0137 107.874 57.0865 107.736C57.1592 107.598 57.2636 107.473 57.3994 107.361C57.5377 107.247 57.7026 107.158 57.8943 107.092C58.0883 107.024 58.3042 106.99 58.542 106.99C58.8282 106.99 59.0805 107.039 59.2988 107.136C59.5195 107.233 59.6918 107.379 59.8155 107.576C59.9416 107.77 60.0047 108.014 60.0047 108.307V110.141C60.0047 110.272 60.0156 110.412 60.0375 110.56C60.0617 110.708 60.0969 110.835 60.143 110.942V111H59.4407C59.4067 110.922 59.3801 110.819 59.3607 110.691C59.3413 110.56 59.3315 110.438 59.3315 110.327ZM59.448 108.613L59.4553 109.086H58.7748C58.5832 109.086 58.4122 109.102 58.2618 109.133C58.1114 109.162 57.9852 109.207 57.8833 109.268C57.7815 109.329 57.7038 109.405 57.6505 109.497C57.5971 109.587 57.5704 109.692 57.5704 109.814C57.5704 109.938 57.5983 110.05 57.6541 110.152C57.7099 110.254 57.7936 110.335 57.9052 110.396C58.0192 110.454 58.1587 110.483 58.3236 110.483C58.5298 110.483 58.7118 110.44 58.8694 110.352C59.0271 110.265 59.152 110.158 59.2442 110.032C59.3388 109.906 59.3898 109.783 59.397 109.665L59.6845 109.988C59.6675 110.09 59.6214 110.203 59.5462 110.327C59.471 110.451 59.3704 110.569 59.2442 110.683C59.1205 110.795 58.9725 110.888 58.8003 110.964C58.6305 111.036 58.4389 111.073 58.2254 111.073C57.9585 111.073 57.7245 111.021 57.5231 110.916C57.3242 110.812 57.1689 110.673 57.0574 110.498C56.9482 110.321 56.8936 110.123 56.8936 109.905C56.8936 109.694 56.9349 109.508 57.0173 109.348C57.0998 109.186 57.2187 109.051 57.3739 108.944C57.5292 108.835 57.716 108.752 57.9343 108.697C58.1526 108.641 58.3964 108.613 58.6657 108.613H59.448ZM61.7949 107.063V111H61.1181V107.063H61.7949ZM61.0672 106.019C61.0672 105.909 61.1 105.817 61.1655 105.742C61.2334 105.667 61.3328 105.629 61.4638 105.629C61.5924 105.629 61.6906 105.667 61.7586 105.742C61.8289 105.817 61.8641 105.909 61.8641 106.019C61.8641 106.123 61.8289 106.213 61.7586 106.288C61.6906 106.361 61.5924 106.397 61.4638 106.397C61.3328 106.397 61.2334 106.361 61.1655 106.288C61.1 106.213 61.0672 106.123 61.0672 106.019ZM63.607 105.411V111H62.9302V105.411H63.607ZM67.0092 110.327V108.3C67.0092 108.145 66.9777 108.01 66.9146 107.896C66.854 107.78 66.7618 107.69 66.6381 107.627C66.5143 107.564 66.3615 107.532 66.1796 107.532C66.0098 107.532 65.8606 107.561 65.732 107.62C65.6059 107.678 65.5064 107.754 65.4336 107.849C65.3633 107.943 65.3281 108.045 65.3281 108.155H64.655C64.655 108.014 64.6914 107.874 64.7641 107.736C64.8369 107.598 64.9412 107.473 65.0771 107.361C65.2153 107.247 65.3803 107.158 65.5719 107.092C65.766 107.024 65.9819 106.99 66.2196 106.99C66.5058 106.99 66.7581 107.039 66.9765 107.136C67.1972 107.233 67.3694 107.379 67.4931 107.576C67.6193 107.77 67.6824 108.014 67.6824 108.307V110.141C67.6824 110.272 67.6933 110.412 67.7151 110.56C67.7394 110.708 67.7745 110.835 67.8206 110.942V111H67.1184C67.0844 110.922 67.0577 110.819 67.0383 110.691C67.0189 110.56 67.0092 110.438 67.0092 110.327ZM67.1256 108.613L67.1329 109.086H66.4525C66.2608 109.086 66.0898 109.102 65.9394 109.133C65.789 109.162 65.6629 109.207 65.561 109.268C65.4591 109.329 65.3815 109.405 65.3281 109.497C65.2748 109.587 65.2481 109.692 65.2481 109.814C65.2481 109.938 65.276 110.05 65.3318 110.152C65.3876 110.254 65.4712 110.335 65.5828 110.396C65.6968 110.454 65.8363 110.483 66.0013 110.483C66.2075 110.483 66.3894 110.44 66.5471 110.352C66.7048 110.265 66.8297 110.158 66.9219 110.032C67.0165 109.906 67.0674 109.783 67.0747 109.665L67.3622 109.988C67.3452 110.09 67.2991 110.203 67.2239 110.327C67.1487 110.451 67.048 110.569 66.9219 110.683C66.7982 110.795 66.6502 110.888 66.478 110.964C66.3081 111.036 66.1165 111.073 65.903 111.073C65.6362 111.073 65.4021 111.021 65.2008 110.916C65.0019 110.812 64.8466 110.673 64.735 110.498C64.6259 110.321 64.5713 110.123 64.5713 109.905C64.5713 109.694 64.6125 109.508 64.695 109.348C64.7775 109.186 64.8963 109.051 65.0516 108.944C65.2068 108.835 65.3936 108.752 65.6119 108.697C65.8303 108.641 66.0741 108.613 66.3433 108.613H67.1256ZM68.7376 105.411H69.4144V110.236L69.3562 111H68.7376V105.411ZM72.0743 108.999V109.075C72.0743 109.361 72.0403 109.627 71.9724 109.872C71.9045 110.115 71.805 110.326 71.674 110.505C71.543 110.685 71.3829 110.824 71.1937 110.924C71.0045 111.023 70.7874 111.073 70.5424 111.073C70.2925 111.073 70.073 111.03 69.8838 110.945C69.697 110.858 69.5393 110.733 69.4107 110.571C69.2822 110.408 69.1791 110.212 69.1015 109.981C69.0263 109.751 68.9741 109.491 68.945 109.202V108.868C68.9741 108.577 69.0263 108.316 69.1015 108.085C69.1791 107.855 69.2822 107.658 69.4107 107.496C69.5393 107.331 69.697 107.206 69.8838 107.121C70.0706 107.034 70.2877 106.99 70.5351 106.99C70.7825 106.99 71.0021 107.039 71.1937 107.136C71.3853 107.23 71.5454 107.366 71.674 107.543C71.805 107.72 71.9045 107.933 71.9724 108.18C72.0403 108.425 72.0743 108.698 72.0743 108.999ZM71.3975 109.075V108.999C71.3975 108.802 71.3793 108.618 71.3429 108.446C71.3065 108.271 71.2483 108.118 71.1682 107.987C71.0882 107.854 70.9827 107.749 70.8517 107.674C70.7207 107.597 70.5594 107.558 70.3677 107.558C70.1979 107.558 70.0499 107.587 69.9238 107.645C69.8001 107.703 69.6946 107.782 69.6072 107.882C69.5199 107.979 69.4483 108.09 69.3925 108.216C69.3392 108.34 69.2992 108.469 69.2725 108.602V109.479C69.3113 109.649 69.3744 109.813 69.4617 109.97C69.5514 110.125 69.6703 110.253 69.8183 110.352C69.9687 110.452 70.1542 110.501 70.375 110.501C70.5569 110.501 70.7122 110.465 70.8408 110.392C70.9717 110.317 71.0773 110.214 71.1573 110.083C71.2398 109.952 71.3004 109.8 71.3393 109.628C71.3781 109.456 71.3975 109.272 71.3975 109.075ZM73.6571 105.411V111H72.9803V105.411H73.6571ZM76.3716 111.073C76.0975 111.073 75.8488 111.027 75.6256 110.935C75.4049 110.84 75.2145 110.708 75.0544 110.538C74.8967 110.368 74.7754 110.167 74.6905 109.934C74.6056 109.701 74.5631 109.446 74.5631 109.17V109.017C74.5631 108.697 74.6104 108.412 74.705 108.162C74.7997 107.91 74.9282 107.696 75.0907 107.521C75.2533 107.347 75.4376 107.215 75.6438 107.125C75.85 107.035 76.0635 106.99 76.2842 106.99C76.5656 106.99 76.8082 107.039 77.012 107.136C77.2182 107.233 77.3868 107.369 77.5178 107.543C77.6488 107.715 77.7458 107.919 77.8089 108.155C77.8719 108.387 77.9035 108.642 77.9035 108.919V109.221H74.9634V108.671H77.2303V108.62C77.2206 108.446 77.1842 108.276 77.1211 108.111C77.0605 107.946 76.9635 107.81 76.83 107.703C76.6966 107.597 76.5147 107.543 76.2842 107.543C76.1314 107.543 75.9907 107.576 75.8622 107.641C75.7336 107.705 75.6232 107.799 75.531 107.925C75.4389 108.051 75.3673 108.205 75.3163 108.387C75.2654 108.569 75.2399 108.779 75.2399 109.017V109.17C75.2399 109.357 75.2654 109.532 75.3163 109.697C75.3697 109.86 75.4461 110.003 75.5456 110.127C75.6475 110.25 75.77 110.347 75.9131 110.418C76.0586 110.488 76.2236 110.523 76.408 110.523C76.6457 110.523 76.847 110.475 77.012 110.378C77.1769 110.281 77.3213 110.151 77.445 109.988L77.8525 110.312C77.7676 110.441 77.6597 110.563 77.5287 110.68C77.3977 110.796 77.2364 110.891 77.0447 110.964C76.8555 111.036 76.6311 111.073 76.3716 111.073ZM81.211 107.682V111H80.5379V107.063H81.1928L81.211 107.682ZM82.4409 107.041L82.4373 107.667C82.3815 107.655 82.3281 107.648 82.2772 107.645C82.2287 107.64 82.1729 107.638 82.1098 107.638C81.9545 107.638 81.8175 107.662 81.6986 107.711C81.5798 107.759 81.4791 107.827 81.3966 107.914C81.3141 108.002 81.2486 108.106 81.2001 108.227C81.154 108.346 81.1237 108.477 81.1092 108.62L80.9199 108.729C80.9199 108.492 80.943 108.269 80.9891 108.06C81.0376 107.851 81.1116 107.667 81.211 107.507C81.3105 107.344 81.4366 107.218 81.5895 107.128C81.7447 107.036 81.9291 106.99 82.1425 106.99C82.1911 106.99 82.2469 106.996 82.3099 107.008C82.373 107.018 82.4167 107.029 82.4409 107.041ZM83.7945 107.063V111H83.1177V107.063H83.7945ZM83.0668 106.019C83.0668 105.909 83.0995 105.817 83.165 105.742C83.2329 105.667 83.3324 105.629 83.4634 105.629C83.592 105.629 83.6902 105.667 83.7581 105.742C83.8285 105.817 83.8636 105.909 83.8636 106.019C83.8636 106.123 83.8285 106.213 83.7581 106.288C83.6902 106.361 83.592 106.397 83.4634 106.397C83.3324 106.397 83.2329 106.361 83.165 106.288C83.0995 106.213 83.0668 106.123 83.0668 106.019ZM87.3568 110.236V105.411H88.0336V111H87.415L87.3568 110.236ZM84.7078 109.075V108.999C84.7078 108.698 84.7442 108.425 84.817 108.18C84.8922 107.933 84.9977 107.72 85.1336 107.543C85.2718 107.366 85.4356 107.23 85.6248 107.136C85.8164 107.039 86.0299 106.99 86.2652 106.99C86.5126 106.99 86.7285 107.034 86.9129 107.121C87.0997 107.206 87.2573 107.331 87.3859 107.496C87.5169 107.658 87.62 107.855 87.6952 108.085C87.7704 108.316 87.8226 108.577 87.8517 108.868V109.202C87.825 109.491 87.7728 109.751 87.6952 109.981C87.62 110.212 87.5169 110.408 87.3859 110.571C87.2573 110.733 87.0997 110.858 86.9129 110.945C86.7261 111.03 86.5078 111.073 86.2579 111.073C86.0275 111.073 85.8164 111.023 85.6248 110.924C85.4356 110.824 85.2718 110.685 85.1336 110.505C84.9977 110.326 84.8922 110.115 84.817 109.872C84.7442 109.627 84.7078 109.361 84.7078 109.075ZM85.3846 108.999V109.075C85.3846 109.272 85.404 109.456 85.4428 109.628C85.4841 109.8 85.5472 109.952 85.6321 110.083C85.717 110.214 85.8249 110.317 85.9559 110.392C86.0869 110.465 86.2434 110.501 86.4253 110.501C86.6485 110.501 86.8316 110.454 86.9747 110.36C87.1203 110.265 87.2367 110.14 87.3241 109.985C87.4114 109.83 87.4793 109.661 87.5278 109.479V108.602C87.4987 108.469 87.4563 108.34 87.4005 108.216C87.3471 108.09 87.2767 107.979 87.1894 107.882C87.1045 107.782 86.999 107.703 86.8729 107.645C86.7491 107.587 86.6024 107.558 86.4326 107.558C86.2482 107.558 86.0893 107.597 85.9559 107.674C85.8249 107.749 85.717 107.854 85.6321 107.987C85.5472 108.118 85.4841 108.271 85.4428 108.446C85.404 108.618 85.3846 108.802 85.3846 108.999ZM90.7153 111.073C90.4412 111.073 90.1926 111.027 89.9694 110.935C89.7486 110.84 89.5582 110.708 89.3981 110.538C89.2404 110.368 89.1191 110.167 89.0342 109.934C88.9493 109.701 88.9069 109.446 88.9069 109.17V109.017C88.9069 108.697 88.9542 108.412 89.0488 108.162C89.1434 107.91 89.272 107.696 89.4345 107.521C89.597 107.347 89.7814 107.215 89.9876 107.125C90.1938 107.035 90.4072 106.99 90.628 106.99C90.9094 106.99 91.152 107.039 91.3557 107.136C91.5619 107.233 91.7305 107.369 91.8615 107.543C91.9925 107.715 92.0895 107.919 92.1526 108.155C92.2157 108.387 92.2472 108.642 92.2472 108.919V109.221H89.3071V108.671H91.5741V108.62C91.5644 108.446 91.528 108.276 91.4649 108.111C91.4042 107.946 91.3072 107.81 91.1738 107.703C91.0404 107.597 90.8584 107.543 90.628 107.543C90.4752 107.543 90.3345 107.576 90.2059 107.641C90.0773 107.705 89.967 107.799 89.8748 107.925C89.7826 108.051 89.711 108.205 89.6601 108.387C89.6092 108.569 89.5837 108.779 89.5837 109.017V109.17C89.5837 109.357 89.6092 109.532 89.6601 109.697C89.7135 109.86 89.7899 110.003 89.8893 110.127C89.9912 110.25 90.1137 110.347 90.2568 110.418C90.4024 110.488 90.5673 110.523 90.7517 110.523C90.9894 110.523 91.1908 110.475 91.3557 110.378C91.5207 110.281 91.665 110.151 91.7887 109.988L92.1963 110.312C92.1114 110.441 92.0034 110.563 91.8724 110.68C91.7414 110.796 91.5801 110.891 91.3885 110.964C91.1993 111.036 90.9749 111.073 90.7153 111.073ZM93.7063 107.682V111H93.0332V107.063H93.6881L93.7063 107.682ZM94.9362 107.041L94.9326 107.667C94.8768 107.655 94.8234 107.648 94.7725 107.645C94.724 107.64 94.6682 107.638 94.6051 107.638C94.4498 107.638 94.3128 107.662 94.1939 107.711C94.0751 107.759 93.9744 107.827 93.8919 107.914C93.8094 108.002 93.7439 108.106 93.6954 108.227C93.6493 108.346 93.619 108.477 93.6045 108.62L93.4152 108.729C93.4152 108.492 93.4383 108.269 93.4844 108.06C93.5329 107.851 93.6069 107.667 93.7063 107.507C93.8058 107.344 93.9319 107.218 94.0848 107.128C94.24 107.036 94.4244 106.99 94.6378 106.99C94.6864 106.99 94.7422 106.996 94.8052 107.008C94.8683 107.018 94.912 107.029 94.9362 107.041ZM98.4039 110.301L99.4154 107.063H99.8594L99.772 107.707L98.7423 111H98.3093L98.4039 110.301ZM97.7235 107.063L98.5858 110.338L98.6477 111H98.1928L97.0503 107.063H97.7235ZM100.827 110.312L101.65 107.063H102.319L101.177 111H100.725L100.827 110.312ZM99.9576 107.063L100.947 110.247L101.06 111H100.631L99.5719 107.7L99.4846 107.063H99.9576ZM103.742 107.063V111H103.065V107.063H103.742ZM103.014 106.019C103.014 105.909 103.047 105.817 103.112 105.742C103.18 105.667 103.28 105.629 103.411 105.629C103.539 105.629 103.638 105.667 103.705 105.742C103.776 105.817 103.811 105.909 103.811 106.019C103.811 106.123 103.776 106.213 103.705 106.288C103.638 106.361 103.539 106.397 103.411 106.397C103.28 106.397 103.18 106.361 103.112 106.288C103.047 106.213 103.014 106.123 103.014 106.019ZM106.471 107.063V107.58H104.342V107.063H106.471ZM105.063 106.106H105.736V110.025C105.736 110.158 105.756 110.259 105.798 110.327C105.839 110.395 105.892 110.44 105.958 110.461C106.023 110.483 106.094 110.494 106.169 110.494C106.225 110.494 106.283 110.489 106.344 110.48C106.407 110.468 106.454 110.458 106.485 110.451L106.489 111C106.436 111.017 106.365 111.033 106.278 111.047C106.193 111.064 106.09 111.073 105.969 111.073C105.804 111.073 105.652 111.04 105.514 110.975C105.376 110.909 105.265 110.8 105.183 110.647C105.103 110.492 105.063 110.283 105.063 110.021V106.106ZM107.934 105.411V111H107.26V105.411H107.934ZM107.774 108.882L107.493 108.871C107.496 108.602 107.536 108.353 107.613 108.125C107.691 107.895 107.8 107.695 107.941 107.525C108.082 107.355 108.249 107.224 108.443 107.132C108.64 107.037 108.857 106.99 109.094 106.99C109.288 106.99 109.463 107.017 109.618 107.07C109.774 107.121 109.906 107.204 110.015 107.318C110.127 107.432 110.211 107.58 110.27 107.762C110.328 107.941 110.357 108.161 110.357 108.42V111H109.68V108.413C109.68 108.207 109.65 108.042 109.589 107.918C109.529 107.792 109.44 107.701 109.324 107.645C109.207 107.587 109.064 107.558 108.894 107.558C108.727 107.558 108.574 107.593 108.436 107.663C108.3 107.734 108.182 107.831 108.083 107.954C107.986 108.078 107.909 108.22 107.854 108.38C107.8 108.538 107.774 108.705 107.774 108.882ZM112.096 107.063V111H111.42V107.063H112.096ZM111.369 106.019C111.369 105.909 111.401 105.817 111.467 105.742C111.535 105.667 111.634 105.629 111.765 105.629C111.894 105.629 111.992 105.667 112.06 105.742C112.13 105.817 112.165 105.909 112.165 106.019C112.165 106.123 112.13 106.213 112.06 106.288C111.992 106.361 111.894 106.397 111.765 106.397C111.634 106.397 111.535 106.361 111.467 106.288C111.401 106.213 111.369 106.123 111.369 106.019ZM113.85 107.903V111H113.177V107.063H113.814L113.85 107.903ZM113.69 108.882L113.41 108.871C113.412 108.602 113.452 108.353 113.53 108.125C113.608 107.895 113.717 107.695 113.857 107.525C113.998 107.355 114.166 107.224 114.36 107.132C114.556 107.037 114.773 106.99 115.011 106.99C115.205 106.99 115.38 107.017 115.535 107.07C115.69 107.121 115.822 107.204 115.931 107.318C116.043 107.432 116.128 107.58 116.186 107.762C116.244 107.941 116.274 108.161 116.274 108.42V111H115.597V108.413C115.597 108.207 115.566 108.042 115.506 107.918C115.445 107.792 115.357 107.701 115.24 107.645C115.124 107.587 114.981 107.558 114.811 107.558C114.643 107.558 114.491 107.593 114.352 107.663C114.216 107.734 114.099 107.831 113.999 107.954C113.902 108.078 113.826 108.22 113.77 108.38C113.717 108.538 113.69 108.705 113.69 108.882ZM120.251 110.592L121.346 107.063H122.066L120.487 111.608C120.451 111.705 120.402 111.809 120.342 111.921C120.283 112.035 120.208 112.143 120.116 112.244C120.024 112.346 119.912 112.429 119.781 112.492C119.653 112.557 119.499 112.59 119.319 112.59C119.266 112.59 119.198 112.583 119.115 112.568C119.033 112.554 118.975 112.542 118.941 112.532L118.937 111.986C118.956 111.989 118.987 111.991 119.028 111.993C119.072 111.998 119.102 112.001 119.119 112.001C119.272 112.001 119.402 111.98 119.508 111.939C119.615 111.9 119.705 111.833 119.778 111.739C119.853 111.646 119.917 111.519 119.97 111.357L120.251 110.592ZM119.446 107.063L120.469 110.119L120.644 110.829L120.16 111.076L118.711 107.063H119.446ZM122.437 109.075V108.991C122.437 108.708 122.479 108.444 122.561 108.202C122.644 107.957 122.763 107.745 122.918 107.565C123.073 107.383 123.261 107.242 123.482 107.143C123.703 107.041 123.95 106.99 124.224 106.99C124.501 106.99 124.749 107.041 124.97 107.143C125.193 107.242 125.382 107.383 125.538 107.565C125.695 107.745 125.815 107.957 125.898 108.202C125.98 108.444 126.022 108.708 126.022 108.991V109.075C126.022 109.359 125.98 109.622 125.898 109.865C125.815 110.107 125.695 110.32 125.538 110.501C125.382 110.681 125.194 110.822 124.974 110.924C124.755 111.023 124.508 111.073 124.231 111.073C123.955 111.073 123.706 111.023 123.485 110.924C123.265 110.822 123.075 110.681 122.918 110.501C122.763 110.32 122.644 110.107 122.561 109.865C122.479 109.622 122.437 109.359 122.437 109.075ZM123.111 108.991V109.075C123.111 109.272 123.134 109.457 123.18 109.632C123.226 109.804 123.295 109.957 123.387 110.09C123.482 110.224 123.599 110.329 123.74 110.407C123.881 110.482 124.045 110.52 124.231 110.52C124.416 110.52 124.577 110.482 124.715 110.407C124.856 110.329 124.972 110.224 125.065 110.09C125.157 109.957 125.226 109.804 125.272 109.632C125.321 109.457 125.345 109.272 125.345 109.075V108.991C125.345 108.797 125.321 108.614 125.272 108.442C125.226 108.267 125.156 108.113 125.061 107.98C124.969 107.844 124.852 107.737 124.712 107.66C124.573 107.582 124.411 107.543 124.224 107.543C124.04 107.543 123.877 107.582 123.737 107.66C123.598 107.737 123.482 107.844 123.387 107.98C123.295 108.113 123.226 108.267 123.18 108.442C123.134 108.614 123.111 108.797 123.111 108.991ZM129.275 110.09V107.063H129.951V111H129.307L129.275 110.09ZM129.402 109.261L129.682 109.253C129.682 109.515 129.654 109.758 129.598 109.981C129.545 110.202 129.458 110.394 129.336 110.556C129.215 110.719 129.056 110.846 128.86 110.938C128.663 111.028 128.424 111.073 128.143 111.073C127.951 111.073 127.775 111.045 127.615 110.989C127.458 110.933 127.322 110.847 127.208 110.731C127.094 110.614 127.005 110.463 126.942 110.276C126.882 110.089 126.851 109.865 126.851 109.603V107.063H127.524V109.61C127.524 109.787 127.544 109.934 127.583 110.05C127.624 110.164 127.678 110.255 127.746 110.323C127.817 110.389 127.894 110.435 127.979 110.461C128.067 110.488 128.156 110.501 128.248 110.501C128.535 110.501 128.762 110.447 128.929 110.338C129.096 110.226 129.216 110.077 129.289 109.89C129.364 109.701 129.402 109.491 129.402 109.261ZM131.651 107.682V111H130.978V107.063H131.632L131.651 107.682ZM132.881 107.041L132.877 107.667C132.821 107.655 132.768 107.648 132.717 107.645C132.668 107.64 132.613 107.638 132.549 107.638C132.394 107.638 132.257 107.662 132.138 107.711C132.019 107.759 131.919 107.827 131.836 107.914C131.754 108.002 131.688 108.106 131.64 108.227C131.594 108.346 131.563 108.477 131.549 108.62L131.36 108.729C131.36 108.492 131.383 108.269 131.429 108.06C131.477 107.851 131.551 107.667 131.651 107.507C131.75 107.344 131.876 107.218 132.029 107.128C132.184 107.036 132.369 106.99 132.582 106.99C132.631 106.99 132.686 106.996 132.75 107.008C132.813 107.018 132.856 107.029 132.881 107.041ZM15.8345 119.327V117.3C15.8345 117.145 15.803 117.01 15.7399 116.896C15.6793 116.78 15.5871 116.69 15.4634 116.627C15.3397 116.564 15.1869 116.532 15.0049 116.532C14.8351 116.532 14.6859 116.561 14.5574 116.62C14.4312 116.678 14.3318 116.754 14.259 116.849C14.1886 116.943 14.1535 117.045 14.1535 117.155H13.4803C13.4803 117.014 13.5167 116.874 13.5895 116.736C13.6622 116.598 13.7666 116.473 13.9024 116.361C14.0407 116.247 14.2056 116.158 14.3973 116.092C14.5913 116.024 14.8072 115.99 15.0449 115.99C15.3312 115.99 15.5835 116.039 15.8018 116.136C16.0225 116.233 16.1948 116.379 16.3185 116.576C16.4446 116.77 16.5077 117.014 16.5077 117.307V119.141C16.5077 119.272 16.5186 119.412 16.5405 119.56C16.5647 119.708 16.5999 119.835 16.646 119.942V120H15.9437C15.9097 119.922 15.8831 119.819 15.8637 119.691C15.8442 119.56 15.8345 119.438 15.8345 119.327ZM15.951 117.613L15.9583 118.086H15.2778C15.0862 118.086 14.9152 118.102 14.7648 118.133C14.6144 118.162 14.4882 118.207 14.3863 118.268C14.2845 118.329 14.2068 118.405 14.1535 118.497C14.1001 118.587 14.0734 118.692 14.0734 118.814C14.0734 118.938 14.1013 119.05 14.1571 119.152C14.2129 119.254 14.2966 119.335 14.4082 119.396C14.5222 119.454 14.6617 119.483 14.8266 119.483C15.0328 119.483 15.2148 119.44 15.3724 119.352C15.5301 119.265 15.655 119.158 15.7472 119.032C15.8418 118.906 15.8928 118.783 15.9 118.665L16.1875 118.988C16.1705 119.09 16.1244 119.203 16.0492 119.327C15.974 119.451 15.8734 119.569 15.7472 119.683C15.6235 119.795 15.4755 119.888 15.3033 119.964C15.1335 120.036 14.9419 120.073 14.7284 120.073C14.4615 120.073 14.2275 120.021 14.0261 119.916C13.8272 119.812 13.6719 119.673 13.5604 119.498C13.4512 119.321 13.3966 119.123 13.3966 118.905C13.3966 118.694 13.4379 118.508 13.5203 118.348C13.6028 118.186 13.7217 118.051 13.8769 117.944C14.0322 117.835 14.219 117.752 14.4373 117.697C14.6556 117.641 14.8994 117.613 15.1687 117.613H15.951ZM18.2397 116.682V120H17.5666V116.063H18.2215L18.2397 116.682ZM19.4696 116.041L19.466 116.667C19.4102 116.655 19.3568 116.648 19.3059 116.645C19.2573 116.64 19.2016 116.638 19.1385 116.638C18.9832 116.638 18.8462 116.662 18.7273 116.711C18.6084 116.759 18.5078 116.827 18.4253 116.914C18.3428 117.002 18.2773 117.106 18.2288 117.227C18.1827 117.346 18.1524 117.477 18.1378 117.62L17.9486 117.729C17.9486 117.492 17.9717 117.269 18.0178 117.06C18.0663 116.851 18.1403 116.667 18.2397 116.507C18.3392 116.344 18.4653 116.218 18.6182 116.128C18.7734 116.036 18.9578 115.99 19.1712 115.99C19.2197 115.99 19.2755 115.996 19.3386 116.008C19.4017 116.018 19.4453 116.029 19.4696 116.041ZM21.6528 120.073C21.3787 120.073 21.1301 120.027 20.9069 119.935C20.6861 119.84 20.4957 119.708 20.3356 119.538C20.1779 119.368 20.0566 119.167 19.9717 118.934C19.8868 118.701 19.8444 118.446 19.8444 118.17V118.017C19.8444 117.697 19.8917 117.412 19.9863 117.162C20.0809 116.91 20.2095 116.696 20.372 116.521C20.5345 116.347 20.7189 116.215 20.9251 116.125C21.1313 116.035 21.3447 115.99 21.5655 115.99C21.8469 115.99 22.0895 116.039 22.2932 116.136C22.4994 116.233 22.668 116.369 22.799 116.543C22.93 116.715 23.027 116.919 23.0901 117.155C23.1532 117.387 23.1847 117.642 23.1847 117.919V118.221H20.2446V117.671H22.5116V117.62C22.5019 117.446 22.4655 117.276 22.4024 117.111C22.3418 116.946 22.2447 116.81 22.1113 116.703C21.9779 116.597 21.7959 116.543 21.5655 116.543C21.4127 116.543 21.272 116.576 21.1434 116.641C21.0148 116.705 20.9045 116.799 20.8123 116.925C20.7201 117.051 20.6485 117.205 20.5976 117.387C20.5467 117.569 20.5212 117.779 20.5212 118.017V118.17C20.5212 118.357 20.5467 118.532 20.5976 118.697C20.651 118.86 20.7274 119.003 20.8268 119.127C20.9287 119.25 21.0512 119.347 21.1943 119.418C21.3399 119.488 21.5049 119.523 21.6892 119.523C21.9269 119.523 22.1283 119.475 22.2932 119.378C22.4582 119.281 22.6025 119.151 22.7262 118.988L23.1338 119.312C23.0489 119.441 22.9409 119.563 22.8099 119.68C22.6789 119.796 22.5176 119.891 22.326 119.964C22.1368 120.036 21.9124 120.073 21.6528 120.073ZM26.2922 119.327V117.3C26.2922 117.145 26.2606 117.01 26.1976 116.896C26.1369 116.78 26.0447 116.69 25.921 116.627C25.7973 116.564 25.6445 116.532 25.4625 116.532C25.2927 116.532 25.1435 116.561 25.015 116.62C24.8888 116.678 24.7894 116.754 24.7166 116.849C24.6463 116.943 24.6111 117.045 24.6111 117.155H23.9379C23.9379 117.014 23.9743 116.874 24.0471 116.736C24.1199 116.598 24.2242 116.473 24.36 116.361C24.4983 116.247 24.6632 116.158 24.8549 116.092C25.0489 116.024 25.2648 115.99 25.5026 115.99C25.7888 115.99 26.0411 116.039 26.2594 116.136C26.4802 116.233 26.6524 116.379 26.7761 116.576C26.9023 116.77 26.9653 117.014 26.9653 117.307V119.141C26.9653 119.272 26.9762 119.412 26.9981 119.56C27.0223 119.708 27.0575 119.835 27.1036 119.942V120H26.4013C26.3674 119.922 26.3407 119.819 26.3213 119.691C26.3019 119.56 26.2922 119.438 26.2922 119.327ZM26.4086 117.613L26.4159 118.086H25.7354C25.5438 118.086 25.3728 118.102 25.2224 118.133C25.072 118.162 24.9458 118.207 24.844 118.268C24.7421 118.329 24.6645 118.405 24.6111 118.497C24.5577 118.587 24.531 118.692 24.531 118.814C24.531 118.938 24.5589 119.05 24.6147 119.152C24.6705 119.254 24.7542 119.335 24.8658 119.396C24.9798 119.454 25.1193 119.483 25.2842 119.483C25.4904 119.483 25.6724 119.44 25.8301 119.352C25.9877 119.265 26.1127 119.158 26.2048 119.032C26.2994 118.906 26.3504 118.783 26.3577 118.665L26.6451 118.988C26.6281 119.09 26.582 119.203 26.5068 119.327C26.4316 119.451 26.331 119.569 26.2048 119.683C26.0811 119.795 25.9331 119.888 25.7609 119.964C25.5911 120.036 25.3995 120.073 25.186 120.073C24.9192 120.073 24.6851 120.021 24.4837 119.916C24.2848 119.812 24.1296 119.673 24.018 119.498C23.9088 119.321 23.8542 119.123 23.8542 118.905C23.8542 118.694 23.8955 118.508 23.978 118.348C24.0604 118.186 24.1793 118.051 24.3345 117.944C24.4898 117.835 24.6766 117.752 24.8949 117.697C25.1132 117.641 25.357 117.613 25.6263 117.613H26.4086Z" fill="white"/>
</g>
<defs>
<filter id="filter0_d_205_7538" x="0" y="0" width="169" height="169" filterUnits="userSpaceOnUse" color-interpolation-filters="sRGB">
<feFlood flood-opacity="0" result="BackgroundImageFix"/>
<feColorMatrix in="SourceAlpha" type="matrix" values="0 0 0 0 0 0 0 0 0 0 0 0 0 0 0 0 0 0 127 0" result="hardAlpha"/>
<feOffset dy="2"/>
<feGaussianBlur stdDeviation="2.5"/>
<feComposite in2="hardAlpha" operator="out"/>
<feColorMatrix type="matrix" values="0 0 0 0 0 0 0 0 0 0 0 0 0 0 0 0 0 0 0.15 0"/>
<feBlend mode="normal" in2="BackgroundImageFix" result="effect1_dropShadow_205_7538"/>
<feBlend mode="normal" in="SourceGraphic" in2="effect1_dropShadow_205_7538" result="shape"/>
</filter>
</defs>
</svg>
