<svg width="48" height="49" viewBox="0 0 48 49" fill="none" xmlns="http://www.w3.org/2000/svg">
<path fill-rule="evenodd" clip-rule="evenodd" d="M21.4014 15.592C22.2809 15.7578 23.1054 16.1396 23.8008 16.703C24.4963 17.2663 25.0408 17.9937 25.3856 18.8196C25.7303 19.6456 25.8645 20.5442 25.7759 21.4348C25.6874 22.3254 25.379 23.1801 24.8784 23.922L38.7124 34.66C39.1629 34.4266 39.6791 34.3523 40.1772 34.4492C40.6753 34.5462 41.126 34.8086 41.4561 35.194C41.7862 35.5794 41.9764 36.065 41.9957 36.572C42.0151 37.0791 41.8625 37.5778 41.5627 37.9872C41.2628 38.3966 40.8335 38.6926 40.3442 38.8272C39.8549 38.9618 39.3346 38.9271 38.8675 38.7286C38.4005 38.5302 38.0143 38.1798 37.7715 37.7342C37.5288 37.2886 37.4438 36.774 37.5304 36.274L23.4604 25.352C22.7978 25.806 22.0423 26.1066 21.2489 26.2317C20.4555 26.3568 19.6442 26.3033 18.8741 26.0752C18.1039 25.847 17.3944 25.45 16.7972 24.9129C16.1999 24.3759 15.73 23.7124 15.4216 22.9707C15.1133 22.2291 14.9742 21.428 15.0147 20.6258C15.0551 19.8236 15.2739 19.0405 15.6553 18.3336C16.0367 17.6268 16.5709 17.0138 17.2191 16.5396C17.8674 16.0653 18.6132 15.7416 19.4024 15.592L19.4004 6.5H21.4004V15.592H21.4014ZM22.2004 20.9C22.2004 21.1364 22.1538 21.3704 22.0633 21.5888C21.9729 21.8072 21.8403 22.0056 21.6732 22.1728C21.506 22.3399 21.3076 22.4725 21.0892 22.563C20.8708 22.6534 20.6367 22.7 20.4004 22.7C20.164 22.7 19.9299 22.6534 19.7115 22.563C19.4931 22.4725 19.2947 22.3399 19.1276 22.1728C18.9604 22.0056 18.8278 21.8072 18.7374 21.5888C18.6469 21.3704 18.6004 21.1364 18.6004 20.9C18.6004 20.4226 18.79 19.9648 19.1276 19.6272C19.4651 19.2896 19.923 19.1 20.4004 19.1C20.8778 19.1 21.3356 19.2896 21.6732 19.6272C22.0107 19.9648 22.2004 20.4226 22.2004 20.9Z" fill="#0560FA"/>
<path d="M27.626 20.884C27.6263 19.5007 27.2282 18.1467 26.4793 16.9837C25.7304 15.8207 24.6624 14.898 23.403 14.326V6.60599C27.692 6.98299 29.92 8.33399 31.915 10.183C32.015 10.277 32.115 10.368 32.211 10.456V10.457C33.061 11.237 33.737 11.858 34.086 12.788L38.32 24.06C38.4335 24.3625 38.4719 24.6881 38.432 25.0087C38.3921 25.3294 38.2751 25.6356 38.091 25.9011C37.9069 26.1666 37.6611 26.3836 37.3748 26.5333C37.0885 26.6831 36.7701 26.7612 36.447 26.761H34.816V29.1L27.241 23.217C27.4974 22.4663 27.6279 21.6783 27.627 20.885L27.626 20.884ZM17.403 14.346V6.74099C8.413 8.09399 6 14.801 6 18.475C6 24.242 9.683 28.715 11.41 30.508V42.5H28.522V35.988H32.815C33.117 35.988 33.405 35.92 33.661 35.8L23.076 27.58C21.3265 28.3019 19.3631 28.306 17.6106 27.5914C15.8581 26.8767 14.4575 25.5007 13.7118 23.7612C12.9662 22.0217 12.9354 20.0585 13.6262 18.2965C14.317 16.5344 15.6738 15.1152 17.403 14.346Z" fill="#0560FA"/>
</svg>
