<svg width="169" height="169" viewBox="0 0 169 169" fill="none" xmlns="http://www.w3.org/2000/svg">
<g filter="url(#filter0_d_253_4224)">
<rect x="5" y="3" width="159" height="159" rx="8" fill="#0560FA"/>
<path fill-rule="evenodd" clip-rule="evenodd" d="M33.422 41.6464L51.1562 46.3734L53.1644 47.8255V68.6492L52.0212 70.1322L33.0822 75.3536L14.1122 70.1322L13 68.6492V47.8255L14.8846 46.3734L32.5879 41.6464H33.422ZM33.144 44.736L20.7857 47.8255L22.485 48.4435L33.0822 51.2241L42.3509 48.7215L45.286 47.8255L33.144 44.736V44.736ZM16.0896 67.4752L31.5374 71.7079V54.0047L16.0896 49.8647V67.4752ZM34.627 54.0047V71.7079L50.0748 67.4752V49.772L43.8339 51.4805V59.4114L40.7443 60.2147V52.327L34.627 54.0047Z" fill="white"/>
<path d="M20.1406 91.4239C20.1406 91.1895 20.1042 90.9812 20.0312 90.7989C19.9635 90.6166 19.8411 90.4499 19.6641 90.2989C19.487 90.1479 19.237 90.002 18.9141 89.8614C18.5964 89.7156 18.1901 89.5671 17.6953 89.4161C17.1536 89.2494 16.6536 89.0645 16.1953 88.8614C15.7422 88.6531 15.3464 88.4135 15.0078 88.1427C14.6693 87.8666 14.4062 87.5515 14.2188 87.1973C14.0312 86.838 13.9375 86.4239 13.9375 85.9552C13.9375 85.4916 14.0339 85.0697 14.2266 84.6895C14.4245 84.3093 14.7031 83.9812 15.0625 83.7052C15.4271 83.4239 15.8568 83.2078 16.3516 83.0567C16.8464 82.9005 17.3932 82.8223 17.9922 82.8223C18.8359 82.8223 19.5625 82.9786 20.1719 83.2911C20.7865 83.6036 21.2578 84.0229 21.5859 84.5489C21.9193 85.0749 22.0859 85.6557 22.0859 86.2911H20.1406C20.1406 85.9161 20.0599 85.5854 19.8984 85.2989C19.7422 85.0072 19.5026 84.7781 19.1797 84.6114C18.862 84.4447 18.4583 84.3614 17.9688 84.3614C17.5052 84.3614 17.1198 84.4317 16.8125 84.5723C16.5052 84.713 16.276 84.9031 16.125 85.1427C15.974 85.3822 15.8984 85.6531 15.8984 85.9552C15.8984 86.1687 15.9479 86.364 16.0469 86.5411C16.1458 86.713 16.2969 86.8744 16.5 87.0255C16.7031 87.1713 16.9583 87.3093 17.2656 87.4395C17.5729 87.5697 17.9349 87.6947 18.3516 87.8145C18.9818 88.002 19.5312 88.2104 20 88.4395C20.4688 88.6635 20.8594 88.9187 21.1719 89.2052C21.4844 89.4916 21.7188 89.8171 21.875 90.1817C22.0312 90.5411 22.1094 90.9499 22.1094 91.4083C22.1094 91.8874 22.013 92.3197 21.8203 92.7052C21.6276 93.0854 21.3516 93.4109 20.9922 93.6817C20.638 93.9473 20.2109 94.1531 19.7109 94.2989C19.2161 94.4395 18.6641 94.5098 18.0547 94.5098C17.5078 94.5098 16.9688 94.4369 16.4375 94.2911C15.9115 94.1453 15.4323 93.9239 15 93.627C14.5677 93.3249 14.224 92.9499 13.9688 92.502C13.7135 92.0489 13.5859 91.5203 13.5859 90.9161H15.5469C15.5469 91.2859 15.6094 91.601 15.7344 91.8614C15.8646 92.1218 16.0443 92.3354 16.2734 92.502C16.5026 92.6635 16.7682 92.7833 17.0703 92.8614C17.3776 92.9395 17.7057 92.9786 18.0547 92.9786C18.513 92.9786 18.8958 92.9135 19.2031 92.7833C19.5156 92.6531 19.75 92.4708 19.9062 92.2364C20.0625 92.002 20.1406 91.7312 20.1406 91.4239ZM27.3828 94.5098C26.7578 94.5098 26.1927 94.4083 25.6875 94.2052C25.1875 93.9968 24.7604 93.7078 24.4062 93.338C24.0573 92.9682 23.7891 92.5333 23.6016 92.0333C23.4141 91.5333 23.3203 90.9942 23.3203 90.4161V90.1036C23.3203 89.4421 23.4167 88.8432 23.6094 88.3067C23.8021 87.7703 24.0703 87.3119 24.4141 86.9317C24.7578 86.5463 25.1641 86.252 25.6328 86.0489C26.1016 85.8458 26.6094 85.7442 27.1562 85.7442C27.7604 85.7442 28.2891 85.8458 28.7422 86.0489C29.1953 86.252 29.5703 86.5385 29.8672 86.9083C30.1693 87.2729 30.3932 87.7078 30.5391 88.213C30.6901 88.7182 30.7656 89.2755 30.7656 89.8848V90.6895H24.2344V89.338H28.9062V89.1895C28.8958 88.851 28.8281 88.5333 28.7031 88.2364C28.5833 87.9395 28.3984 87.6999 28.1484 87.5177C27.8984 87.3354 27.5651 87.2442 27.1484 87.2442C26.8359 87.2442 26.5573 87.3119 26.3125 87.4473C26.0729 87.5776 25.8724 87.7677 25.7109 88.0177C25.5495 88.2677 25.4245 88.5697 25.3359 88.9239C25.2526 89.2729 25.2109 89.6661 25.2109 90.1036V90.4161C25.2109 90.7859 25.2604 91.1296 25.3594 91.4473C25.4635 91.7598 25.6146 92.0333 25.8125 92.2677C26.0104 92.502 26.25 92.6869 26.5312 92.8223C26.8125 92.9526 27.1328 93.0177 27.4922 93.0177C27.9453 93.0177 28.349 92.9265 28.7031 92.7442C29.0573 92.5619 29.3646 92.3041 29.625 91.9708L30.6172 92.9317C30.4349 93.1973 30.1979 93.4526 29.9062 93.6973C29.6146 93.9369 29.2578 94.1322 28.8359 94.2833C28.4193 94.4343 27.9349 94.5098 27.3828 94.5098ZM34.1016 87.7052V94.3536H32.2188V85.9005H33.9922L34.1016 87.7052ZM33.7656 89.8145L33.1562 89.8067C33.1615 89.2078 33.2448 88.6583 33.4062 88.1583C33.5729 87.6583 33.8021 87.2286 34.0938 86.8692C34.3906 86.5098 34.7448 86.2338 35.1562 86.0411C35.5677 85.8432 36.026 85.7442 36.5312 85.7442C36.9375 85.7442 37.3047 85.8015 37.6328 85.9161C37.9661 86.0255 38.25 86.2052 38.4844 86.4552C38.724 86.7052 38.9062 87.0307 39.0312 87.4317C39.1562 87.8276 39.2188 88.3145 39.2188 88.8927V94.3536H37.3281V88.8848C37.3281 88.4786 37.2682 88.1583 37.1484 87.9239C37.0339 87.6843 36.8646 87.5151 36.6406 87.4161C36.4219 87.3119 36.1484 87.2598 35.8203 87.2598C35.4974 87.2598 35.2083 87.3276 34.9531 87.463C34.6979 87.5984 34.4818 87.7833 34.3047 88.0177C34.1328 88.252 34 88.5229 33.9062 88.8302C33.8125 89.1374 33.7656 89.4656 33.7656 89.8145ZM46.2969 92.6036V82.3536H48.1875V94.3536H46.4766L46.2969 92.6036ZM40.7969 90.2208V90.0567C40.7969 89.4161 40.8724 88.8328 41.0234 88.3067C41.1745 87.7755 41.3932 87.3197 41.6797 86.9395C41.9661 86.5541 42.3151 86.2598 42.7266 86.0567C43.138 85.8484 43.6016 85.7442 44.1172 85.7442C44.6276 85.7442 45.0755 85.8432 45.4609 86.0411C45.8464 86.239 46.1745 86.5229 46.4453 86.8927C46.7161 87.2572 46.9323 87.6947 47.0938 88.2052C47.2552 88.7104 47.3698 89.2729 47.4375 89.8927V90.4161C47.3698 91.0203 47.2552 91.5723 47.0938 92.0723C46.9323 92.5723 46.7161 93.0046 46.4453 93.3692C46.1745 93.7338 45.8438 94.0151 45.4531 94.213C45.0677 94.4109 44.6172 94.5098 44.1016 94.5098C43.5911 94.5098 43.1302 94.4031 42.7188 94.1895C42.3125 93.976 41.9661 93.6765 41.6797 93.2911C41.3932 92.9057 41.1745 92.4526 41.0234 91.9317C40.8724 91.4057 40.7969 90.8354 40.7969 90.2208ZM42.6797 90.0567V90.2208C42.6797 90.6062 42.7135 90.9656 42.7812 91.2989C42.8542 91.6322 42.9661 91.9265 43.1172 92.1817C43.2682 92.4317 43.4635 92.6296 43.7031 92.7755C43.9479 92.9161 44.2396 92.9864 44.5781 92.9864C45.0052 92.9864 45.3568 92.8927 45.6328 92.7052C45.9089 92.5177 46.125 92.2651 46.2812 91.9473C46.4427 91.6244 46.5521 91.2651 46.6094 90.8692V89.4552C46.5781 89.1479 46.513 88.8614 46.4141 88.5958C46.3203 88.3302 46.1927 88.0984 46.0312 87.9005C45.8698 87.6973 45.6693 87.5411 45.4297 87.4317C45.1953 87.3171 44.9167 87.2598 44.5938 87.2598C44.25 87.2598 43.9583 87.3328 43.7188 87.4786C43.4792 87.6244 43.2812 87.8249 43.125 88.0802C42.974 88.3354 42.862 88.6322 42.7891 88.9708C42.7161 89.3093 42.6797 89.6713 42.6797 90.0567ZM58.9062 92.6583V88.627C58.9062 88.3249 58.8516 88.0645 58.7422 87.8458C58.6328 87.627 58.4661 87.4578 58.2422 87.338C58.0234 87.2182 57.7474 87.1583 57.4141 87.1583C57.1068 87.1583 56.8411 87.2104 56.6172 87.3145C56.3932 87.4187 56.2188 87.5593 56.0938 87.7364C55.9688 87.9135 55.9062 88.114 55.9062 88.338H54.0312C54.0312 88.0046 54.112 87.6817 54.2734 87.3692C54.4349 87.0567 54.6693 86.7781 54.9766 86.5333C55.2839 86.2885 55.651 86.0958 56.0781 85.9552C56.5052 85.8145 56.9844 85.7442 57.5156 85.7442C58.151 85.7442 58.7135 85.851 59.2031 86.0645C59.6979 86.2781 60.0859 86.601 60.3672 87.0333C60.6536 87.4604 60.7969 87.9968 60.7969 88.6427V92.4005C60.7969 92.7859 60.8229 93.1322 60.875 93.4395C60.9323 93.7416 61.013 94.0046 61.1172 94.2286V94.3536H59.1875C59.099 94.1505 59.0286 93.8927 58.9766 93.5802C58.9297 93.2624 58.9062 92.9552 58.9062 92.6583ZM59.1797 89.213L59.1953 90.377H57.8438C57.4948 90.377 57.1875 90.4109 56.9219 90.4786C56.6562 90.5411 56.4349 90.6348 56.2578 90.7598C56.0807 90.8848 55.9479 91.0359 55.8594 91.213C55.7708 91.3901 55.7266 91.5906 55.7266 91.8145C55.7266 92.0385 55.7786 92.2442 55.8828 92.4317C55.987 92.614 56.138 92.7572 56.3359 92.8614C56.5391 92.9656 56.7839 93.0177 57.0703 93.0177C57.4557 93.0177 57.7917 92.9395 58.0781 92.7833C58.3698 92.6218 58.599 92.4265 58.7656 92.1973C58.9323 91.963 59.0208 91.7416 59.0312 91.5333L59.6406 92.3692C59.5781 92.5828 59.4714 92.8119 59.3203 93.0567C59.1693 93.3015 58.9714 93.5359 58.7266 93.7598C58.487 93.9786 58.1979 94.1583 57.8594 94.2989C57.526 94.4395 57.1406 94.5098 56.7031 94.5098C56.151 94.5098 55.6589 94.4005 55.2266 94.1817C54.7943 93.9578 54.4557 93.6583 54.2109 93.2833C53.9661 92.9031 53.8438 92.4734 53.8438 91.9942C53.8438 91.5463 53.9271 91.1505 54.0938 90.8067C54.2656 90.4578 54.5156 90.1661 54.8438 89.9317C55.1771 89.6973 55.5833 89.5203 56.0625 89.4005C56.5417 89.2755 57.0885 89.213 57.7031 89.213H59.1797ZM68.6406 87.5255V97.6036H66.7578V85.9005H68.4922L68.6406 87.5255ZM74.1484 90.0489V90.213C74.1484 90.8276 74.0755 91.3979 73.9297 91.9239C73.7891 92.4447 73.5781 92.9005 73.2969 93.2911C73.0208 93.6765 72.6797 93.976 72.2734 94.1895C71.8672 94.4031 71.3984 94.5098 70.8672 94.5098C70.3411 94.5098 69.8802 94.4135 69.4844 94.2208C69.0938 94.0229 68.763 93.7442 68.4922 93.3848C68.2214 93.0255 68.0026 92.6036 67.8359 92.1192C67.6745 91.6296 67.5599 91.0932 67.4922 90.5098V89.877C67.5599 89.2572 67.6745 88.6947 67.8359 88.1895C68.0026 87.6843 68.2214 87.2494 68.4922 86.8848C68.763 86.5203 69.0938 86.239 69.4844 86.0411C69.875 85.8432 70.3307 85.7442 70.8516 85.7442C71.3828 85.7442 71.8542 85.8484 72.2656 86.0567C72.6771 86.2598 73.0234 86.5515 73.3047 86.9317C73.5859 87.3067 73.7969 87.7598 73.9375 88.2911C74.0781 88.8171 74.1484 89.4031 74.1484 90.0489ZM72.2656 90.213V90.0489C72.2656 89.6583 72.2292 89.2963 72.1562 88.963C72.0833 88.6244 71.9688 88.3276 71.8125 88.0723C71.6562 87.8171 71.4557 87.6192 71.2109 87.4786C70.9714 87.3328 70.6823 87.2598 70.3438 87.2598C70.0104 87.2598 69.724 87.3171 69.4844 87.4317C69.2448 87.5411 69.0443 87.6947 68.8828 87.8927C68.7214 88.0906 68.5964 88.3223 68.5078 88.588C68.4193 88.8484 68.3568 89.1322 68.3203 89.4395V90.9552C68.3828 91.3302 68.4896 91.6739 68.6406 91.9864C68.7917 92.2989 69.0052 92.5489 69.2812 92.7364C69.5625 92.9187 69.9219 93.0098 70.3594 93.0098C70.6979 93.0098 70.987 92.9369 71.2266 92.7911C71.4661 92.6453 71.6615 92.4447 71.8125 92.1895C71.9688 91.9291 72.0833 91.6296 72.1562 91.2911C72.2292 90.9526 72.2656 90.5932 72.2656 90.213ZM80.5156 92.6583V88.627C80.5156 88.3249 80.4609 88.0645 80.3516 87.8458C80.2422 87.627 80.0755 87.4578 79.8516 87.338C79.6328 87.2182 79.3568 87.1583 79.0234 87.1583C78.7161 87.1583 78.4505 87.2104 78.2266 87.3145C78.0026 87.4187 77.8281 87.5593 77.7031 87.7364C77.5781 87.9135 77.5156 88.114 77.5156 88.338H75.6406C75.6406 88.0046 75.7214 87.6817 75.8828 87.3692C76.0443 87.0567 76.2786 86.7781 76.5859 86.5333C76.8932 86.2885 77.2604 86.0958 77.6875 85.9552C78.1146 85.8145 78.5938 85.7442 79.125 85.7442C79.7604 85.7442 80.3229 85.851 80.8125 86.0645C81.3073 86.2781 81.6953 86.601 81.9766 87.0333C82.263 87.4604 82.4062 87.9968 82.4062 88.6427V92.4005C82.4062 92.7859 82.4323 93.1322 82.4844 93.4395C82.5417 93.7416 82.6224 94.0046 82.7266 94.2286V94.3536H80.7969C80.7083 94.1505 80.638 93.8927 80.5859 93.5802C80.5391 93.2624 80.5156 92.9552 80.5156 92.6583ZM80.7891 89.213L80.8047 90.377H79.4531C79.1042 90.377 78.7969 90.4109 78.5312 90.4786C78.2656 90.5411 78.0443 90.6348 77.8672 90.7598C77.6901 90.8848 77.5573 91.0359 77.4688 91.213C77.3802 91.3901 77.3359 91.5906 77.3359 91.8145C77.3359 92.0385 77.388 92.2442 77.4922 92.4317C77.5964 92.614 77.7474 92.7572 77.9453 92.8614C78.1484 92.9656 78.3932 93.0177 78.6797 93.0177C79.0651 93.0177 79.401 92.9395 79.6875 92.7833C79.9792 92.6218 80.2083 92.4265 80.375 92.1973C80.5417 91.963 80.6302 91.7416 80.6406 91.5333L81.25 92.3692C81.1875 92.5828 81.0807 92.8119 80.9297 93.0567C80.7786 93.3015 80.5807 93.5359 80.3359 93.7598C80.0964 93.9786 79.8073 94.1583 79.4688 94.2989C79.1354 94.4395 78.75 94.5098 78.3125 94.5098C77.7604 94.5098 77.2682 94.4005 76.8359 94.1817C76.4036 93.9578 76.0651 93.6583 75.8203 93.2833C75.5755 92.9031 75.4531 92.4734 75.4531 91.9942C75.4531 91.5463 75.5365 91.1505 75.7031 90.8067C75.875 90.4578 76.125 90.1661 76.4531 89.9317C76.7865 89.6973 77.1927 89.5203 77.6719 89.4005C78.151 89.2755 78.6979 89.213 79.3125 89.213H80.7891ZM87.8281 93.0098C88.1354 93.0098 88.4115 92.9499 88.6562 92.8302C88.9062 92.7052 89.1068 92.5333 89.2578 92.3145C89.4141 92.0958 89.5 91.8432 89.5156 91.5567H91.2891C91.2786 92.1036 91.1172 92.601 90.8047 93.0489C90.4922 93.4968 90.0781 93.8536 89.5625 94.1192C89.0469 94.3796 88.4766 94.5098 87.8516 94.5098C87.2057 94.5098 86.6432 94.4005 86.1641 94.1817C85.6849 93.9578 85.2865 93.6505 84.9688 93.2598C84.651 92.8692 84.4115 92.4187 84.25 91.9083C84.0938 91.3979 84.0156 90.851 84.0156 90.2677V89.9942C84.0156 89.4109 84.0938 88.864 84.25 88.3536C84.4115 87.838 84.651 87.3848 84.9688 86.9942C85.2865 86.6036 85.6849 86.2989 86.1641 86.0802C86.6432 85.8562 87.2031 85.7442 87.8438 85.7442C88.5208 85.7442 89.1146 85.8796 89.625 86.1505C90.1354 86.4161 90.5365 86.7885 90.8281 87.2677C91.125 87.7416 91.2786 88.2937 91.2891 88.9239H89.5156C89.5 88.6114 89.4219 88.3302 89.2812 88.0802C89.1458 87.8249 88.9531 87.6218 88.7031 87.4708C88.4583 87.3197 88.1641 87.2442 87.8203 87.2442C87.4401 87.2442 87.125 87.3223 86.875 87.4786C86.625 87.6296 86.4297 87.838 86.2891 88.1036C86.1484 88.364 86.0469 88.6583 85.9844 88.9864C85.9271 89.3093 85.8984 89.6453 85.8984 89.9942V90.2677C85.8984 90.6166 85.9271 90.9552 85.9844 91.2833C86.0417 91.6114 86.1406 91.9057 86.2812 92.1661C86.4271 92.4213 86.625 92.627 86.875 92.7833C87.125 92.9343 87.4427 93.0098 87.8281 93.0098ZM94.6328 82.3536V94.3536H92.7422V82.3536H94.6328ZM99.8828 85.9005L96.2031 89.9786L94.1875 92.0411L93.6953 90.4473L95.2188 88.5645L97.6094 85.9005H99.8828ZM98.0156 94.3536L95.2734 90.3848L96.4609 89.0645L100.195 94.3536H98.0156ZM105.844 92.6583V88.627C105.844 88.3249 105.789 88.0645 105.68 87.8458C105.57 87.627 105.404 87.4578 105.18 87.338C104.961 87.2182 104.685 87.1583 104.352 87.1583C104.044 87.1583 103.779 87.2104 103.555 87.3145C103.331 87.4187 103.156 87.5593 103.031 87.7364C102.906 87.9135 102.844 88.114 102.844 88.338H100.969C100.969 88.0046 101.049 87.6817 101.211 87.3692C101.372 87.0567 101.607 86.7781 101.914 86.5333C102.221 86.2885 102.589 86.0958 103.016 85.9552C103.443 85.8145 103.922 85.7442 104.453 85.7442C105.089 85.7442 105.651 85.851 106.141 86.0645C106.635 86.2781 107.023 86.601 107.305 87.0333C107.591 87.4604 107.734 87.9968 107.734 88.6427V92.4005C107.734 92.7859 107.76 93.1322 107.812 93.4395C107.87 93.7416 107.951 94.0046 108.055 94.2286V94.3536H106.125C106.036 94.1505 105.966 93.8927 105.914 93.5802C105.867 93.2624 105.844 92.9552 105.844 92.6583ZM106.117 89.213L106.133 90.377H104.781C104.432 90.377 104.125 90.4109 103.859 90.4786C103.594 90.5411 103.372 90.6348 103.195 90.7598C103.018 90.8848 102.885 91.0359 102.797 91.213C102.708 91.3901 102.664 91.5906 102.664 91.8145C102.664 92.0385 102.716 92.2442 102.82 92.4317C102.924 92.614 103.076 92.7572 103.273 92.8614C103.477 92.9656 103.721 93.0177 104.008 93.0177C104.393 93.0177 104.729 92.9395 105.016 92.7833C105.307 92.6218 105.536 92.4265 105.703 92.1973C105.87 91.963 105.958 91.7416 105.969 91.5333L106.578 92.3692C106.516 92.5828 106.409 92.8119 106.258 93.0567C106.107 93.3015 105.909 93.5359 105.664 93.7598C105.424 93.9786 105.135 94.1583 104.797 94.2989C104.464 94.4395 104.078 94.5098 103.641 94.5098C103.089 94.5098 102.596 94.4005 102.164 94.1817C101.732 93.9578 101.393 93.6583 101.148 93.2833C100.904 92.9031 100.781 92.4734 100.781 91.9942C100.781 91.5463 100.865 91.1505 101.031 90.8067C101.203 90.4578 101.453 90.1661 101.781 89.9317C102.115 89.6973 102.521 89.5203 103 89.4005C103.479 89.2755 104.026 89.213 104.641 89.213H106.117ZM115.117 85.9005H116.828V94.1192C116.828 94.8796 116.667 95.5255 116.344 96.0567C116.021 96.588 115.57 96.9916 114.992 97.2677C114.414 97.5489 113.745 97.6895 112.984 97.6895C112.661 97.6895 112.302 97.6427 111.906 97.5489C111.516 97.4552 111.135 97.3041 110.766 97.0958C110.401 96.8927 110.096 96.6244 109.852 96.2911L110.734 95.1817C111.036 95.5411 111.37 95.8041 111.734 95.9708C112.099 96.1374 112.482 96.2208 112.883 96.2208C113.315 96.2208 113.682 96.1401 113.984 95.9786C114.292 95.8223 114.529 95.5906 114.695 95.2833C114.862 94.976 114.945 94.601 114.945 94.1583V87.8145L115.117 85.9005ZM109.375 90.2208V90.0567C109.375 89.4161 109.453 88.8328 109.609 88.3067C109.766 87.7755 109.99 87.3197 110.281 86.9395C110.573 86.5541 110.927 86.2598 111.344 86.0567C111.76 85.8484 112.232 85.7442 112.758 85.7442C113.305 85.7442 113.771 85.8432 114.156 86.0411C114.547 86.239 114.872 86.5229 115.133 86.8927C115.393 87.2572 115.596 87.6947 115.742 88.2052C115.893 88.7104 116.005 89.2729 116.078 89.8927V90.4161C116.01 91.0203 115.896 91.5723 115.734 92.0723C115.573 92.5723 115.359 93.0046 115.094 93.3692C114.828 93.7338 114.5 94.0151 114.109 94.213C113.724 94.4109 113.268 94.5098 112.742 94.5098C112.227 94.5098 111.76 94.4031 111.344 94.1895C110.932 93.976 110.578 93.6765 110.281 93.2911C109.99 92.9057 109.766 92.4526 109.609 91.9317C109.453 91.4057 109.375 90.8354 109.375 90.2208ZM111.258 90.0567V90.2208C111.258 90.6062 111.294 90.9656 111.367 91.2989C111.445 91.6322 111.562 91.9265 111.719 92.1817C111.88 92.4317 112.083 92.6296 112.328 92.7755C112.578 92.9161 112.872 92.9864 113.211 92.9864C113.654 92.9864 114.016 92.8927 114.297 92.7052C114.583 92.5177 114.802 92.2651 114.953 91.9473C115.109 91.6244 115.219 91.2651 115.281 90.8692V89.4552C115.25 89.1479 115.185 88.8614 115.086 88.5958C114.992 88.3302 114.865 88.0984 114.703 87.9005C114.542 87.6973 114.339 87.5411 114.094 87.4317C113.849 87.3171 113.56 87.2598 113.227 87.2598C112.888 87.2598 112.594 87.3328 112.344 87.4786C112.094 87.6244 111.888 87.8249 111.727 88.0802C111.57 88.3354 111.453 88.6322 111.375 88.9708C111.297 89.3093 111.258 89.6713 111.258 90.0567ZM122.508 94.5098C121.883 94.5098 121.318 94.4083 120.812 94.2052C120.312 93.9968 119.885 93.7078 119.531 93.338C119.182 92.9682 118.914 92.5333 118.727 92.0333C118.539 91.5333 118.445 90.9942 118.445 90.4161V90.1036C118.445 89.4421 118.542 88.8432 118.734 88.3067C118.927 87.7703 119.195 87.3119 119.539 86.9317C119.883 86.5463 120.289 86.252 120.758 86.0489C121.227 85.8458 121.734 85.7442 122.281 85.7442C122.885 85.7442 123.414 85.8458 123.867 86.0489C124.32 86.252 124.695 86.5385 124.992 86.9083C125.294 87.2729 125.518 87.7078 125.664 88.213C125.815 88.7182 125.891 89.2755 125.891 89.8848V90.6895H119.359V89.338H124.031V89.1895C124.021 88.851 123.953 88.5333 123.828 88.2364C123.708 87.9395 123.523 87.6999 123.273 87.5177C123.023 87.3354 122.69 87.2442 122.273 87.2442C121.961 87.2442 121.682 87.3119 121.438 87.4473C121.198 87.5776 120.997 87.7677 120.836 88.0177C120.674 88.2677 120.549 88.5697 120.461 88.9239C120.378 89.2729 120.336 89.6661 120.336 90.1036V90.4161C120.336 90.7859 120.385 91.1296 120.484 91.4473C120.589 91.7598 120.74 92.0333 120.938 92.2677C121.135 92.502 121.375 92.6869 121.656 92.8223C121.938 92.9526 122.258 93.0177 122.617 93.0177C123.07 93.0177 123.474 92.9265 123.828 92.7442C124.182 92.5619 124.49 92.3041 124.75 91.9708L125.742 92.9317C125.56 93.1973 125.323 93.4526 125.031 93.6973C124.74 93.9369 124.383 94.1322 123.961 94.2833C123.544 94.4343 123.06 94.5098 122.508 94.5098Z" fill="white"/>
<path d="M13.6149 106.056H15.3688C15.7666 106.056 16.1026 106.116 16.3767 106.238C16.6533 106.359 16.8631 106.538 17.0062 106.776C17.1518 107.011 17.2245 107.301 17.2245 107.646C17.2245 107.888 17.1748 108.11 17.0753 108.312C16.9783 108.511 16.8376 108.68 16.6533 108.821C16.4713 108.959 16.253 109.062 15.9983 109.13L15.8018 109.207H14.1535L14.1462 108.635H15.3906C15.6429 108.635 15.8527 108.592 16.0201 108.504C16.1875 108.415 16.3136 108.295 16.3985 108.144C16.4834 107.994 16.5259 107.828 16.5259 107.646C16.5259 107.442 16.4859 107.264 16.4058 107.111C16.3258 106.958 16.1996 106.84 16.0274 106.758C15.8576 106.673 15.6381 106.631 15.3688 106.631H14.3172V111.354H13.6149V106.056ZM16.7115 111.354L15.4234 108.952L16.1548 108.948L17.461 111.31V111.354H16.7115ZM19.7389 111.426C19.4648 111.426 19.2161 111.38 18.9929 111.288C18.7722 111.193 18.5818 111.061 18.4217 110.891C18.264 110.722 18.1427 110.52 18.0578 110.287C17.9729 110.055 17.9304 109.8 17.9304 109.523V109.371C17.9304 109.05 17.9777 108.765 18.0723 108.515C18.167 108.263 18.2955 108.05 18.458 107.875C18.6206 107.7 18.8049 107.568 19.0111 107.478C19.2173 107.389 19.4308 107.344 19.6515 107.344C19.9329 107.344 20.1755 107.392 20.3793 107.489C20.5855 107.586 20.7541 107.722 20.8851 107.897C21.0161 108.069 21.1131 108.273 21.1762 108.508C21.2392 108.741 21.2708 108.996 21.2708 109.272V109.574H18.3307V109.025H20.5976V108.974C20.5879 108.799 20.5515 108.629 20.4884 108.464C20.4278 108.3 20.3308 108.164 20.1973 108.057C20.0639 107.95 19.882 107.897 19.6515 107.897C19.4987 107.897 19.358 107.93 19.2295 107.995C19.1009 108.058 18.9905 108.153 18.8983 108.279C18.8062 108.405 18.7346 108.559 18.6836 108.741C18.6327 108.923 18.6072 109.133 18.6072 109.371V109.523C18.6072 109.71 18.6327 109.886 18.6836 110.051C18.737 110.213 18.8134 110.357 18.9129 110.48C19.0148 110.604 19.1373 110.701 19.2804 110.771C19.4259 110.842 19.5909 110.877 19.7753 110.877C20.013 110.877 20.2143 110.828 20.3793 110.731C20.5442 110.634 20.6886 110.505 20.8123 110.342L21.2198 110.666C21.1349 110.794 21.027 110.917 20.896 111.033C20.765 111.15 20.6037 111.244 20.412 111.317C20.2228 111.39 19.9984 111.426 19.7389 111.426ZM24.5347 112.867V108.173L24.5929 107.417H25.2115V112.867H24.5347ZM21.8893 109.429V109.352C21.8893 109.052 21.9245 108.779 21.9949 108.534C22.0652 108.286 22.1683 108.074 22.3042 107.897C22.44 107.72 22.6037 107.584 22.7954 107.489C22.9894 107.392 23.2102 107.344 23.4576 107.344C23.7051 107.344 23.9222 107.387 24.1089 107.475C24.2982 107.56 24.4583 107.685 24.5893 107.85C24.7227 108.012 24.8282 108.209 24.9058 108.439C24.9834 108.669 25.0368 108.93 25.0659 109.221V109.556C25.0392 109.845 24.9871 110.104 24.9095 110.335C24.8318 110.565 24.7263 110.762 24.5929 110.924C24.4619 111.087 24.3006 111.212 24.1089 111.299C23.9197 111.384 23.7002 111.426 23.4503 111.426C23.2078 111.426 22.9894 111.377 22.7954 111.277C22.6037 111.178 22.44 111.038 22.3042 110.859C22.1707 110.679 22.0676 110.468 21.9949 110.226C21.9245 109.981 21.8893 109.715 21.8893 109.429ZM22.5661 109.352V109.429C22.5661 109.625 22.5868 109.811 22.628 109.985C22.6692 110.158 22.7323 110.31 22.8172 110.444C22.9045 110.577 23.0137 110.683 23.1447 110.76C23.2781 110.836 23.4358 110.873 23.6177 110.873C23.8409 110.873 24.0265 110.825 24.1744 110.728C24.3248 110.631 24.4449 110.503 24.5347 110.346C24.6244 110.186 24.6936 110.015 24.7421 109.833V108.956C24.7154 108.822 24.6729 108.692 24.6147 108.566C24.5589 108.44 24.4862 108.327 24.3964 108.228C24.3066 108.126 24.1975 108.046 24.0689 107.988C23.9428 107.927 23.7948 107.897 23.625 107.897C23.4406 107.897 23.2817 107.936 23.1483 108.013C23.0149 108.091 22.9045 108.198 22.8172 108.333C22.7323 108.467 22.6692 108.621 22.628 108.796C22.5868 108.97 22.5661 109.156 22.5661 109.352ZM28.701 110.444V107.417H29.3778V111.354H28.7337L28.701 110.444ZM28.8283 109.614L29.1085 109.607C29.1085 109.869 29.0806 110.112 29.0248 110.335C28.9715 110.556 28.8841 110.747 28.7628 110.91C28.6416 111.072 28.4827 111.2 28.2862 111.292C28.0897 111.381 27.8507 111.426 27.5693 111.426C27.3777 111.426 27.2018 111.398 27.0417 111.343C26.8841 111.287 26.7482 111.201 26.6342 111.084C26.5202 110.968 26.4316 110.816 26.3686 110.629C26.3079 110.443 26.2776 110.218 26.2776 109.956V107.417H26.9508V109.964C26.9508 110.141 26.9702 110.287 27.009 110.404C27.0502 110.518 27.1048 110.609 27.1727 110.677C27.2431 110.742 27.3207 110.788 27.4056 110.815C27.4929 110.842 27.5827 110.855 27.6749 110.855C27.9611 110.855 28.1879 110.801 28.3553 110.691C28.5227 110.58 28.6428 110.431 28.7155 110.244C28.7907 110.055 28.8283 109.845 28.8283 109.614ZM32.0377 111.426C31.7636 111.426 31.5149 111.38 31.2917 111.288C31.071 111.193 30.8806 111.061 30.7205 110.891C30.5628 110.722 30.4415 110.52 30.3566 110.287C30.2717 110.055 30.2292 109.8 30.2292 109.523V109.371C30.2292 109.05 30.2765 108.765 30.3711 108.515C30.4658 108.263 30.5943 108.05 30.7568 107.875C30.9194 107.7 31.1037 107.568 31.3099 107.478C31.5161 107.389 31.7296 107.344 31.9503 107.344C32.2317 107.344 32.4743 107.392 32.6781 107.489C32.8843 107.586 33.0529 107.722 33.1839 107.897C33.3149 108.069 33.4119 108.273 33.475 108.508C33.538 108.741 33.5696 108.996 33.5696 109.272V109.574H30.6295V109.025H32.8964V108.974C32.8867 108.799 32.8503 108.629 32.7872 108.464C32.7266 108.3 32.6296 108.164 32.4961 108.057C32.3627 107.95 32.1808 107.897 31.9503 107.897C31.7975 107.897 31.6568 107.93 31.5283 107.995C31.3997 108.058 31.2893 108.153 31.1971 108.279C31.105 108.405 31.0334 108.559 30.9824 108.741C30.9315 108.923 30.906 109.133 30.906 109.371V109.523C30.906 109.71 30.9315 109.886 30.9824 110.051C31.0358 110.213 31.1122 110.357 31.2117 110.48C31.3136 110.604 31.4361 110.701 31.5792 110.771C31.7247 110.842 31.8897 110.877 32.0741 110.877C32.3118 110.877 32.5131 110.828 32.6781 110.731C32.843 110.634 32.9874 110.505 33.1111 110.342L33.5186 110.666C33.4337 110.794 33.3258 110.917 33.1948 111.033C33.0638 111.15 32.9025 111.244 32.7108 111.317C32.5216 111.39 32.2972 111.426 32.0377 111.426ZM36.6479 110.309C36.6479 110.212 36.6261 110.122 36.5824 110.04C36.5412 109.955 36.455 109.879 36.3241 109.811C36.1955 109.74 36.0014 109.68 35.7419 109.629C35.5235 109.583 35.3258 109.528 35.1488 109.465C34.9741 109.402 34.8249 109.326 34.7012 109.236C34.5799 109.146 34.4865 109.041 34.421 108.919C34.3555 108.798 34.3228 108.656 34.3228 108.494C34.3228 108.338 34.3567 108.192 34.4247 108.053C34.495 107.915 34.5932 107.793 34.7194 107.686C34.848 107.579 35.002 107.495 35.1815 107.435C35.361 107.374 35.5611 107.344 35.7819 107.344C36.0972 107.344 36.3665 107.4 36.5897 107.511C36.8129 107.623 36.9839 107.772 37.1027 107.959C37.2216 108.143 37.281 108.348 37.281 108.574H36.6079C36.6079 108.464 36.5751 108.359 36.5096 108.257C36.4466 108.153 36.3532 108.067 36.2295 107.999C36.1082 107.931 35.959 107.897 35.7819 107.897C35.5951 107.897 35.4435 107.926 35.3271 107.984C35.213 108.04 35.1294 108.112 35.076 108.199C35.025 108.286 34.9996 108.378 34.9996 108.475C34.9996 108.548 35.0117 108.614 35.036 108.672C35.0626 108.728 35.1087 108.78 35.1742 108.828C35.2397 108.874 35.3319 108.918 35.4508 108.959C35.5696 109.001 35.7212 109.042 35.9056 109.083C36.2282 109.156 36.4939 109.243 36.7025 109.345C36.9111 109.447 37.0664 109.572 37.1682 109.72C37.2701 109.868 37.3211 110.047 37.3211 110.258C37.3211 110.431 37.2847 110.588 37.2119 110.731C37.1416 110.874 37.0385 110.998 36.9026 111.103C36.7692 111.204 36.6091 111.284 36.4223 111.343C36.2379 111.398 36.0305 111.426 35.8001 111.426C35.4532 111.426 35.1597 111.365 34.9195 111.241C34.6794 111.117 34.4974 110.957 34.3737 110.76C34.25 110.564 34.1881 110.357 34.1881 110.138H34.8649C34.8746 110.323 34.928 110.469 35.025 110.579C35.1221 110.685 35.2409 110.762 35.3816 110.808C35.5223 110.851 35.6618 110.873 35.8001 110.873C35.9844 110.873 36.1385 110.849 36.2622 110.801C36.3883 110.752 36.4842 110.685 36.5497 110.6C36.6152 110.515 36.6479 110.418 36.6479 110.309ZM39.8536 107.417V107.933H37.725V107.417H39.8536ZM38.4454 106.46H39.1186V110.378C39.1186 110.512 39.1392 110.613 39.1804 110.68C39.2217 110.748 39.275 110.793 39.3405 110.815C39.406 110.837 39.4764 110.848 39.5516 110.848C39.6074 110.848 39.6656 110.843 39.7262 110.833C39.7893 110.821 39.8366 110.811 39.8681 110.804L39.8718 111.354C39.8184 111.371 39.7481 111.386 39.6607 111.401C39.5758 111.418 39.4727 111.426 39.3515 111.426C39.1865 111.426 39.0349 111.394 38.8966 111.328C38.7583 111.263 38.648 111.153 38.5655 111.001C38.4854 110.845 38.4454 110.637 38.4454 110.375V106.46ZM43.4959 111.354H42.8228V107.002C42.8228 106.718 42.8737 106.479 42.9756 106.285C43.0799 106.088 43.2291 105.94 43.4232 105.841C43.6172 105.739 43.8477 105.688 44.1145 105.688C44.1921 105.688 44.2698 105.693 44.3474 105.703C44.4274 105.712 44.5051 105.727 44.5803 105.746L44.5439 106.296C44.4929 106.284 44.4347 106.275 44.3692 106.27C44.3061 106.265 44.2431 106.263 44.18 106.263C44.0369 106.263 43.9132 106.292 43.8089 106.35C43.707 106.406 43.6294 106.489 43.576 106.598C43.5226 106.707 43.4959 106.842 43.4959 107.002V111.354ZM44.3328 107.417V107.933H42.2006V107.417H44.3328ZM44.9041 109.429V109.345C44.9041 109.061 44.9453 108.798 45.0278 108.555C45.1103 108.31 45.2292 108.098 45.3844 107.919C45.5397 107.737 45.7277 107.596 45.9484 107.497C46.1692 107.395 46.4166 107.344 46.6907 107.344C46.9672 107.344 47.2159 107.395 47.4366 107.497C47.6598 107.596 47.849 107.737 48.0043 107.919C48.162 108.098 48.282 108.31 48.3645 108.555C48.447 108.798 48.4882 109.061 48.4882 109.345V109.429C48.4882 109.713 48.447 109.976 48.3645 110.218C48.282 110.461 48.162 110.673 48.0043 110.855C47.849 111.035 47.661 111.175 47.4403 111.277C47.222 111.377 46.9745 111.426 46.698 111.426C46.4214 111.426 46.1728 111.377 45.9521 111.277C45.7313 111.175 45.5421 111.035 45.3844 110.855C45.2292 110.673 45.1103 110.461 45.0278 110.218C44.9453 109.976 44.9041 109.713 44.9041 109.429ZM45.5773 109.345V109.429C45.5773 109.625 45.6003 109.811 45.6464 109.985C45.6925 110.158 45.7616 110.31 45.8538 110.444C45.9484 110.577 46.0661 110.683 46.2068 110.76C46.3475 110.836 46.5112 110.873 46.698 110.873C46.8823 110.873 47.0437 110.836 47.1819 110.76C47.3226 110.683 47.4391 110.577 47.5312 110.444C47.6234 110.31 47.6926 110.158 47.7387 109.985C47.7872 109.811 47.8114 109.625 47.8114 109.429V109.345C47.8114 109.151 47.7872 108.968 47.7387 108.796C47.6926 108.621 47.6222 108.467 47.5276 108.333C47.4354 108.198 47.319 108.091 47.1783 108.013C47.04 107.936 46.8775 107.897 46.6907 107.897C46.5063 107.897 46.3438 107.936 46.2031 108.013C46.0649 108.091 45.9484 108.198 45.8538 108.333C45.7616 108.467 45.6925 108.621 45.6464 108.796C45.6003 108.968 45.5773 109.151 45.5773 109.345ZM50.0056 108.035V111.354H49.3324V107.417H49.9874L50.0056 108.035ZM51.2354 107.395L51.2318 108.021C51.176 108.008 51.1226 108.001 51.0717 107.999C51.0232 107.994 50.9674 107.991 50.9043 107.991C50.7491 107.991 50.612 108.016 50.4931 108.064C50.3743 108.113 50.2736 108.181 50.1911 108.268C50.1087 108.355 50.0432 108.46 49.9946 108.581C49.9486 108.7 49.9182 108.831 49.9037 108.974L49.7145 109.083C49.7145 108.845 49.7375 108.622 49.7836 108.414C49.8321 108.205 49.9061 108.021 50.0056 107.86C50.105 107.698 50.2312 107.572 50.384 107.482C50.5392 107.39 50.7236 107.344 50.9371 107.344C50.9856 107.344 51.0414 107.35 51.1045 107.362C51.1675 107.372 51.2112 107.383 51.2354 107.395ZM56.0276 110.68V108.654C56.0276 108.498 55.9961 108.364 55.933 108.25C55.8724 108.133 55.7802 108.044 55.6565 107.981C55.5327 107.917 55.3799 107.886 55.198 107.886C55.0282 107.886 54.879 107.915 54.7504 107.973C54.6243 108.031 54.5248 108.108 54.4521 108.202C54.3817 108.297 54.3465 108.399 54.3465 108.508H53.6734C53.6734 108.367 53.7098 108.228 53.7825 108.09C53.8553 107.951 53.9596 107.826 54.0955 107.715C54.2337 107.601 54.3987 107.511 54.5903 107.446C54.7844 107.378 55.0003 107.344 55.238 107.344C55.5243 107.344 55.7765 107.392 55.9949 107.489C56.2156 107.586 56.3878 107.733 56.5116 107.93C56.6377 108.124 56.7008 108.367 56.7008 108.661V110.495C56.7008 110.626 56.7117 110.765 56.7335 110.913C56.7578 111.061 56.7929 111.189 56.839 111.295V111.354H56.1368C56.1028 111.276 56.0761 111.173 56.0567 111.044C56.0373 110.913 56.0276 110.792 56.0276 110.68ZM56.144 108.967L56.1513 109.44H55.4709C55.2792 109.44 55.1082 109.455 54.9578 109.487C54.8074 109.516 54.6813 109.561 54.5794 109.622C54.4775 109.682 54.3999 109.759 54.3465 109.851C54.2932 109.941 54.2665 110.046 54.2665 110.167C54.2665 110.291 54.2944 110.404 54.3502 110.506C54.406 110.608 54.4897 110.689 54.6012 110.75C54.7153 110.808 54.8547 110.837 55.0197 110.837C55.2259 110.837 55.4078 110.793 55.5655 110.706C55.7232 110.619 55.8481 110.512 55.9403 110.386C56.0349 110.26 56.0858 110.137 56.0931 110.018L56.3806 110.342C56.3636 110.444 56.3175 110.557 56.2423 110.68C56.1671 110.804 56.0664 110.923 55.9403 111.037C55.8166 111.149 55.6686 111.242 55.4964 111.317C55.3266 111.39 55.1349 111.426 54.9214 111.426C54.6546 111.426 54.4205 111.374 54.2192 111.27C54.0203 111.166 53.865 111.026 53.7534 110.851C53.6443 110.674 53.5897 110.477 53.5897 110.258C53.5897 110.047 53.6309 109.862 53.7134 109.702C53.7959 109.539 53.9147 109.404 54.07 109.298C54.2252 109.189 54.412 109.106 54.6303 109.05C54.8487 108.995 55.0925 108.967 55.3617 108.967H56.144ZM62.0897 110.589V105.765H62.7665V111.354H62.1479L62.0897 110.589ZM59.4407 109.429V109.352C59.4407 109.052 59.4771 108.779 59.5499 108.534C59.6251 108.286 59.7306 108.074 59.8664 107.897C60.0047 107.72 60.1684 107.584 60.3577 107.489C60.5493 107.392 60.7628 107.344 60.9981 107.344C61.2455 107.344 61.4614 107.387 61.6458 107.475C61.8325 107.56 61.9902 107.685 62.1188 107.85C62.2498 108.012 62.3529 108.209 62.4281 108.439C62.5033 108.669 62.5554 108.93 62.5845 109.221V109.556C62.5579 109.845 62.5057 110.104 62.4281 110.335C62.3529 110.565 62.2498 110.762 62.1188 110.924C61.9902 111.087 61.8325 111.212 61.6458 111.299C61.459 111.384 61.2407 111.426 60.9908 111.426C60.7603 111.426 60.5493 111.377 60.3577 111.277C60.1684 111.178 60.0047 111.038 59.8664 110.859C59.7306 110.679 59.6251 110.468 59.5499 110.226C59.4771 109.981 59.4407 109.715 59.4407 109.429ZM60.1175 109.352V109.429C60.1175 109.625 60.1369 109.81 60.1757 109.982C60.217 110.154 60.28 110.306 60.3649 110.437C60.4498 110.568 60.5578 110.671 60.6888 110.746C60.8198 110.819 60.9762 110.855 61.1582 110.855C61.3813 110.855 61.5645 110.808 61.7076 110.713C61.8532 110.619 61.9696 110.494 62.0569 110.338C62.1443 110.183 62.2122 110.015 62.2607 109.833V108.956C62.2316 108.822 62.1891 108.694 62.1333 108.57C62.08 108.444 62.0096 108.332 61.9223 108.235C61.8374 108.136 61.7319 108.057 61.6057 107.999C61.482 107.94 61.3353 107.911 61.1655 107.911C60.9811 107.911 60.8222 107.95 60.6888 108.028C60.5578 108.103 60.4498 108.207 60.3649 108.341C60.28 108.472 60.217 108.625 60.1757 108.799C60.1369 108.971 60.1175 109.156 60.1175 109.352ZM64.4876 108.035V111.354H63.8144V107.417H64.4694L64.4876 108.035ZM65.7175 107.395L65.7138 108.021C65.658 108.008 65.6047 108.001 65.5537 107.999C65.5052 107.994 65.4494 107.991 65.3863 107.991C65.2311 107.991 65.094 108.016 64.9752 108.064C64.8563 108.113 64.7556 108.181 64.6732 108.268C64.5907 108.355 64.5252 108.46 64.4767 108.581C64.4306 108.7 64.4003 108.831 64.3857 108.974L64.1965 109.083C64.1965 108.845 64.2195 108.622 64.2656 108.414C64.3141 108.205 64.3881 108.021 64.4876 107.86C64.587 107.698 64.7132 107.572 64.866 107.482C65.0213 107.39 65.2056 107.344 65.4191 107.344C65.4676 107.344 65.5234 107.35 65.5865 107.362C65.6495 107.372 65.6932 107.383 65.7175 107.395ZM67.0711 107.417V111.354H66.3943V107.417H67.0711ZM66.3433 106.372C66.3433 106.263 66.3761 106.171 66.4416 106.096C66.5095 106.02 66.6089 105.983 66.7399 105.983C66.8685 105.983 66.9668 106.02 67.0347 106.096C67.105 106.171 67.1402 106.263 67.1402 106.372C67.1402 106.477 67.105 106.566 67.0347 106.641C66.9668 106.714 66.8685 106.751 66.7399 106.751C66.6089 106.751 66.5095 106.714 66.4416 106.641C66.3761 106.566 66.3433 106.477 66.3433 106.372ZM69.3489 110.746L70.4259 107.417H71.1137L69.6982 111.354H69.247L69.3489 110.746ZM68.4501 107.417L69.5599 110.764L69.6363 111.354H69.1851L67.7588 107.417H68.4501ZM73.3442 111.426C73.0701 111.426 72.8214 111.38 72.5982 111.288C72.3775 111.193 72.1871 111.061 72.027 110.891C71.8693 110.722 71.748 110.52 71.6631 110.287C71.5782 110.055 71.5357 109.8 71.5357 109.523V109.371C71.5357 109.05 71.583 108.765 71.6777 108.515C71.7723 108.263 71.9008 108.05 72.0634 107.875C72.2259 107.7 72.4102 107.568 72.6164 107.478C72.8226 107.389 73.0361 107.344 73.2568 107.344C73.5382 107.344 73.7808 107.392 73.9846 107.489C74.1908 107.586 74.3594 107.722 74.4904 107.897C74.6214 108.069 74.7184 108.273 74.7815 108.508C74.8445 108.741 74.8761 108.996 74.8761 109.272V109.574H71.936V109.025H74.2029V108.974C74.1932 108.799 74.1568 108.629 74.0937 108.464C74.0331 108.3 73.9361 108.164 73.8027 108.057C73.6692 107.95 73.4873 107.897 73.2568 107.897C73.104 107.897 72.9633 107.93 72.8348 107.995C72.7062 108.058 72.5958 108.153 72.5036 108.279C72.4115 108.405 72.3399 108.559 72.289 108.741C72.238 108.923 72.2125 109.133 72.2125 109.371V109.523C72.2125 109.71 72.238 109.886 72.289 110.051C72.3423 110.213 72.4187 110.357 72.5182 110.48C72.6201 110.604 72.7426 110.701 72.8857 110.771C73.0312 110.842 73.1962 110.877 73.3806 110.877C73.6183 110.877 73.8196 110.828 73.9846 110.731C74.1495 110.634 74.2939 110.505 74.4176 110.342L74.8251 110.666C74.7402 110.794 74.6323 110.917 74.5013 111.033C74.3703 111.15 74.209 111.244 74.0173 111.317C73.8281 111.39 73.6037 111.426 73.3442 111.426ZM76.3352 108.035V111.354H75.662V107.417H76.317L76.3352 108.035ZM77.5651 107.395L77.5614 108.021C77.5056 108.008 77.4523 108.001 77.4013 107.999C77.3528 107.994 77.297 107.991 77.2339 107.991C77.0787 107.991 76.9416 108.016 76.8228 108.064C76.7039 108.113 76.6032 108.181 76.5208 108.268C76.4383 108.355 76.3728 108.46 76.3243 108.581C76.2782 108.7 76.2479 108.831 76.2333 108.974L76.0441 109.083C76.0441 108.845 76.0671 108.622 76.1132 108.414C76.1617 108.205 76.2357 108.021 76.3352 107.86C76.4346 107.698 76.5608 107.572 76.7136 107.482C76.8689 107.39 77.0532 107.344 77.2667 107.344C77.3152 107.344 77.371 107.35 77.4341 107.362C77.4971 107.372 77.5408 107.383 77.5651 107.395ZM81.6841 107.417V107.933H79.5554V107.417H81.6841ZM80.2759 106.46H80.9491V110.378C80.9491 110.512 80.9697 110.613 81.0109 110.68C81.0521 110.748 81.1055 110.793 81.171 110.815C81.2365 110.837 81.3069 110.848 81.3821 110.848C81.4379 110.848 81.4961 110.843 81.5567 110.833C81.6198 110.821 81.6671 110.811 81.6986 110.804L81.7023 111.354C81.6489 111.371 81.5785 111.386 81.4912 111.401C81.4063 111.418 81.3032 111.426 81.1819 111.426C81.017 111.426 80.8654 111.394 80.7271 111.328C80.5888 111.263 80.4784 111.153 80.396 111.001C80.3159 110.845 80.2759 110.637 80.2759 110.375V106.46ZM82.2226 109.429V109.345C82.2226 109.061 82.2638 108.798 82.3463 108.555C82.4288 108.31 82.5477 108.098 82.7029 107.919C82.8582 107.737 83.0462 107.596 83.2669 107.497C83.4877 107.395 83.7351 107.344 84.0092 107.344C84.2857 107.344 84.5344 107.395 84.7551 107.497C84.9783 107.596 85.1675 107.737 85.3228 107.919C85.4804 108.098 85.6005 108.31 85.683 108.555C85.7655 108.798 85.8067 109.061 85.8067 109.345V109.429C85.8067 109.713 85.7655 109.976 85.683 110.218C85.6005 110.461 85.4804 110.673 85.3228 110.855C85.1675 111.035 84.9795 111.175 84.7588 111.277C84.5405 111.377 84.293 111.426 84.0165 111.426C83.7399 111.426 83.4913 111.377 83.2705 111.277C83.0498 111.175 82.8606 111.035 82.7029 110.855C82.5477 110.673 82.4288 110.461 82.3463 110.218C82.2638 109.976 82.2226 109.713 82.2226 109.429ZM82.8958 109.345V109.429C82.8958 109.625 82.9188 109.811 82.9649 109.985C83.011 110.158 83.0801 110.31 83.1723 110.444C83.2669 110.577 83.3846 110.683 83.5253 110.76C83.666 110.836 83.8297 110.873 84.0165 110.873C84.2008 110.873 84.3622 110.836 84.5004 110.76C84.6411 110.683 84.7576 110.577 84.8497 110.444C84.9419 110.31 85.0111 110.158 85.0571 109.985C85.1057 109.811 85.1299 109.625 85.1299 109.429V109.345C85.1299 109.151 85.1057 108.968 85.0571 108.796C85.0111 108.621 84.9407 108.467 84.8461 108.333C84.7539 108.198 84.6375 108.091 84.4968 108.013C84.3585 107.936 84.196 107.897 84.0092 107.897C83.8248 107.897 83.6623 107.936 83.5216 108.013C83.3833 108.091 83.2669 108.198 83.1723 108.333C83.0801 108.467 83.011 108.621 82.9649 108.796C82.9188 108.968 82.8958 109.151 82.8958 109.345ZM89.1725 108.173V112.867H88.4957V107.417H89.1143L89.1725 108.173ZM91.8251 109.352V109.429C91.8251 109.715 91.7912 109.981 91.7232 110.226C91.6553 110.468 91.5559 110.679 91.4249 110.859C91.2963 111.038 91.1374 111.178 90.9482 111.277C90.759 111.377 90.5419 111.426 90.2969 111.426C90.047 111.426 89.8263 111.385 89.6346 111.303C89.443 111.22 89.2805 111.1 89.147 110.942C89.0136 110.785 88.9069 110.596 88.8268 110.375C88.7492 110.154 88.6958 109.905 88.6667 109.629V109.221C88.6958 108.93 88.7504 108.669 88.8305 108.439C88.9105 108.209 89.016 108.012 89.147 107.85C89.2805 107.685 89.4418 107.56 89.631 107.475C89.8202 107.387 90.0385 107.344 90.286 107.344C90.5334 107.344 90.7529 107.392 90.9446 107.489C91.1362 107.584 91.2975 107.72 91.4285 107.897C91.5595 108.074 91.6577 108.286 91.7232 108.534C91.7912 108.779 91.8251 109.052 91.8251 109.352ZM91.1483 109.429V109.352C91.1483 109.156 91.1277 108.971 91.0865 108.799C91.0452 108.625 90.9809 108.472 90.8936 108.341C90.8087 108.207 90.6996 108.103 90.5661 108.028C90.4327 107.95 90.2738 107.911 90.0895 107.911C89.9197 107.911 89.7717 107.94 89.6455 107.999C89.5218 108.057 89.4163 108.136 89.329 108.235C89.2416 108.332 89.1701 108.444 89.1143 108.57C89.0609 108.694 89.0209 108.822 88.9942 108.956V109.898C89.0427 110.068 89.1107 110.228 89.198 110.378C89.2853 110.526 89.4018 110.646 89.5473 110.739C89.6928 110.828 89.876 110.873 90.0967 110.873C90.2787 110.873 90.4351 110.836 90.5661 110.76C90.6996 110.683 90.8087 110.577 90.8936 110.444C90.9809 110.31 91.0452 110.158 91.0865 109.985C91.1277 109.811 91.1483 109.625 91.1483 109.429ZM93.4152 107.417V111.354H92.7384V107.417H93.4152ZM92.6875 106.372C92.6875 106.263 92.7202 106.171 92.7857 106.096C92.8537 106.02 92.9531 105.983 93.0841 105.983C93.2127 105.983 93.3109 106.02 93.3788 106.096C93.4492 106.171 93.4844 106.263 93.4844 106.372C93.4844 106.477 93.4492 106.566 93.3788 106.641C93.3109 106.714 93.2127 106.751 93.0841 106.751C92.9531 106.751 92.8537 106.714 92.7857 106.641C92.7202 106.566 92.6875 106.477 92.6875 106.372ZM96.0715 110.873C96.2316 110.873 96.3796 110.841 96.5154 110.775C96.6513 110.71 96.7628 110.62 96.8502 110.506C96.9375 110.389 96.9872 110.257 96.9994 110.109H97.6398C97.6276 110.342 97.5488 110.559 97.4032 110.76C97.2601 110.959 97.0721 111.121 96.8393 111.244C96.6064 111.366 96.3505 111.426 96.0715 111.426C95.7755 111.426 95.5172 111.374 95.2964 111.27C95.0781 111.166 94.8962 111.022 94.7506 110.841C94.6075 110.659 94.4996 110.45 94.4268 110.215C94.3564 109.977 94.3213 109.726 94.3213 109.461V109.309C94.3213 109.044 94.3564 108.794 94.4268 108.559C94.4996 108.321 94.6075 108.112 94.7506 107.93C94.8962 107.748 95.0781 107.605 95.2964 107.5C95.5172 107.396 95.7755 107.344 96.0715 107.344C96.3796 107.344 96.6488 107.407 96.8793 107.533C97.1097 107.657 97.2904 107.826 97.4214 108.042C97.5549 108.256 97.6276 108.498 97.6398 108.77H96.9994C96.9872 108.608 96.9411 108.461 96.8611 108.33C96.7835 108.199 96.6767 108.095 96.5409 108.017C96.4075 107.937 96.251 107.897 96.0715 107.897C95.8653 107.897 95.6918 107.938 95.5512 108.021C95.4129 108.101 95.3025 108.21 95.22 108.348C95.14 108.484 95.0818 108.635 95.0454 108.803C95.0114 108.968 94.9944 109.136 94.9944 109.309V109.461C94.9944 109.634 95.0114 109.804 95.0454 109.971C95.0793 110.138 95.1363 110.29 95.2164 110.426C95.2989 110.562 95.4092 110.671 95.5475 110.753C95.6882 110.833 95.8629 110.873 96.0715 110.873ZM99.0734 105.765V111.354H98.3966V105.765H99.0734ZM101.479 107.417L99.7611 109.254L98.8005 110.251L98.7459 109.534L99.4336 108.712L100.656 107.417H101.479ZM100.864 111.354L99.4591 109.476L99.8084 108.876L101.657 111.354H100.864ZM106.431 110.444V107.417H107.108V111.354H106.464L106.431 110.444ZM106.558 109.614L106.838 109.607C106.838 109.869 106.81 110.112 106.755 110.335C106.701 110.556 106.614 110.747 106.493 110.91C106.371 111.072 106.213 111.2 106.016 111.292C105.82 111.381 105.581 111.426 105.299 111.426C105.108 111.426 104.932 111.398 104.772 111.343C104.614 111.287 104.478 111.201 104.364 111.084C104.25 110.968 104.162 110.816 104.098 110.629C104.038 110.443 104.007 110.218 104.007 109.956V107.417H104.681V109.964C104.681 110.141 104.7 110.287 104.739 110.404C104.78 110.518 104.835 110.609 104.903 110.677C104.973 110.742 105.051 110.788 105.135 110.815C105.223 110.842 105.313 110.855 105.405 110.855C105.691 110.855 105.918 110.801 106.085 110.691C106.253 110.58 106.373 110.431 106.445 110.244C106.521 110.055 106.558 109.845 106.558 109.614ZM108.807 108.173V112.867H108.13V107.417H108.749L108.807 108.173ZM111.46 109.352V109.429C111.46 109.715 111.426 109.981 111.358 110.226C111.29 110.468 111.19 110.679 111.059 110.859C110.931 111.038 110.772 111.178 110.583 111.277C110.393 111.377 110.176 111.426 109.931 111.426C109.681 111.426 109.461 111.385 109.269 111.303C109.077 111.22 108.915 111.1 108.781 110.942C108.648 110.785 108.541 110.596 108.461 110.375C108.384 110.154 108.33 109.905 108.301 109.629V109.221C108.33 108.93 108.385 108.669 108.465 108.439C108.545 108.209 108.65 108.012 108.781 107.85C108.915 107.685 109.076 107.56 109.265 107.475C109.455 107.387 109.673 107.344 109.92 107.344C110.168 107.344 110.387 107.392 110.579 107.489C110.771 107.584 110.932 107.72 111.063 107.897C111.194 108.074 111.292 108.286 111.358 108.534C111.426 108.779 111.46 109.052 111.46 109.352ZM110.783 109.429V109.352C110.783 109.156 110.762 108.971 110.721 108.799C110.68 108.625 110.615 108.472 110.528 108.341C110.443 108.207 110.334 108.103 110.201 108.028C110.067 107.95 109.908 107.911 109.724 107.911C109.554 107.911 109.406 107.94 109.28 107.999C109.156 108.057 109.051 108.136 108.963 108.235C108.876 108.332 108.805 108.444 108.749 108.57C108.695 108.694 108.655 108.822 108.629 108.956V109.898C108.677 110.068 108.745 110.228 108.832 110.378C108.92 110.526 109.036 110.646 109.182 110.739C109.327 110.828 109.51 110.873 109.731 110.873C109.913 110.873 110.07 110.836 110.201 110.76C110.334 110.683 110.443 110.577 110.528 110.444C110.615 110.31 110.68 110.158 110.721 109.985C110.762 109.811 110.783 109.625 110.783 109.429ZM113.988 109.429V109.345C113.988 109.061 114.03 108.798 114.112 108.555C114.195 108.31 114.313 108.098 114.469 107.919C114.624 107.737 114.812 107.596 115.033 107.497C115.253 107.395 115.501 107.344 115.775 107.344C116.052 107.344 116.3 107.395 116.521 107.497C116.744 107.596 116.933 107.737 117.089 107.919C117.246 108.098 117.366 108.31 117.449 108.555C117.531 108.798 117.573 109.061 117.573 109.345V109.429C117.573 109.713 117.531 109.976 117.449 110.218C117.366 110.461 117.246 110.673 117.089 110.855C116.933 111.035 116.745 111.175 116.525 111.277C116.306 111.377 116.059 111.426 115.782 111.426C115.506 111.426 115.257 111.377 115.036 111.277C114.816 111.175 114.626 111.035 114.469 110.855C114.313 110.673 114.195 110.461 114.112 110.218C114.03 109.976 113.988 109.713 113.988 109.429ZM114.662 109.345V109.429C114.662 109.625 114.685 109.811 114.731 109.985C114.777 110.158 114.846 110.31 114.938 110.444C115.033 110.577 115.15 110.683 115.291 110.76C115.432 110.836 115.596 110.873 115.782 110.873C115.967 110.873 116.128 110.836 116.266 110.76C116.407 110.683 116.523 110.577 116.616 110.444C116.708 110.31 116.777 110.158 116.823 109.985C116.872 109.811 116.896 109.625 116.896 109.429V109.345C116.896 109.151 116.872 108.968 116.823 108.796C116.777 108.621 116.707 108.467 116.612 108.333C116.52 108.198 116.403 108.091 116.263 108.013C116.124 107.936 115.962 107.897 115.775 107.897C115.591 107.897 115.428 107.936 115.287 108.013C115.149 108.091 115.033 108.198 114.938 108.333C114.846 108.467 114.777 108.621 114.731 108.796C114.685 108.968 114.662 109.151 114.662 109.345ZM119.09 108.035V111.354H118.417V107.417H119.072L119.09 108.035ZM120.32 107.395L120.316 108.021C120.26 108.008 120.207 108.001 120.156 107.999C120.108 107.994 120.052 107.991 119.989 107.991C119.833 107.991 119.696 108.016 119.577 108.064C119.459 108.113 119.358 108.181 119.275 108.268C119.193 108.355 119.127 108.46 119.079 108.581C119.033 108.7 119.003 108.831 118.988 108.974L118.799 109.083C118.799 108.845 118.822 108.622 118.868 108.414C118.916 108.205 118.99 108.021 119.09 107.86C119.189 107.698 119.315 107.572 119.468 107.482C119.624 107.39 119.808 107.344 120.021 107.344C120.07 107.344 120.126 107.35 120.189 107.362C120.252 107.372 120.296 107.383 120.32 107.395ZM15.9946 119.589V114.765H16.6714V120.354H16.0529L15.9946 119.589ZM13.3457 118.429V118.352C13.3457 118.052 13.3821 117.779 13.4548 117.534C13.53 117.286 13.6356 117.074 13.7714 116.897C13.9097 116.72 14.0734 116.584 14.2626 116.489C14.4543 116.392 14.6677 116.344 14.903 116.344C15.1505 116.344 15.3664 116.387 15.5507 116.475C15.7375 116.56 15.8952 116.685 16.0238 116.85C16.1548 117.012 16.2578 117.209 16.333 117.439C16.4082 117.669 16.4604 117.93 16.4895 118.221V118.556C16.4628 118.845 16.4107 119.104 16.333 119.335C16.2578 119.565 16.1548 119.762 16.0238 119.924C15.8952 120.087 15.7375 120.212 15.5507 120.299C15.3639 120.384 15.1456 120.426 14.8958 120.426C14.6653 120.426 14.4543 120.377 14.2626 120.277C14.0734 120.178 13.9097 120.038 13.7714 119.859C13.6356 119.679 13.53 119.468 13.4548 119.226C13.3821 118.981 13.3457 118.715 13.3457 118.429ZM14.0225 118.352V118.429C14.0225 118.625 14.0419 118.81 14.0807 118.982C14.1219 119.154 14.185 119.306 14.2699 119.437C14.3548 119.568 14.4628 119.671 14.5937 119.746C14.7247 119.819 14.8812 119.855 15.0631 119.855C15.2863 119.855 15.4695 119.808 15.6126 119.713C15.7581 119.619 15.8746 119.494 15.9619 119.338C16.0492 119.183 16.1172 119.015 16.1657 118.833V117.956C16.1366 117.822 16.0941 117.694 16.0383 117.57C15.9849 117.444 15.9146 117.332 15.8273 117.235C15.7424 117.136 15.6368 117.057 15.5107 116.999C15.387 116.94 15.2402 116.911 15.0704 116.911C14.8861 116.911 14.7272 116.95 14.5937 117.028C14.4628 117.103 14.3548 117.207 14.2699 117.341C14.185 117.472 14.1219 117.625 14.0807 117.799C14.0419 117.971 14.0225 118.156 14.0225 118.352ZM19.3532 120.426C19.0791 120.426 18.8304 120.38 18.6072 120.288C18.3865 120.193 18.1961 120.061 18.036 119.891C17.8783 119.722 17.757 119.52 17.6721 119.287C17.5872 119.055 17.5447 118.8 17.5447 118.523V118.371C17.5447 118.05 17.592 117.765 17.6866 117.515C17.7812 117.263 17.9098 117.05 18.0723 116.875C18.2349 116.7 18.4192 116.568 18.6254 116.478C18.8316 116.389 19.0451 116.344 19.2658 116.344C19.5472 116.344 19.7898 116.392 19.9936 116.489C20.1998 116.586 20.3684 116.722 20.4994 116.897C20.6304 117.069 20.7274 117.273 20.7905 117.508C20.8535 117.741 20.8851 117.996 20.8851 118.272V118.574H17.945V118.025H20.2119V117.974C20.2022 117.799 20.1658 117.629 20.1027 117.464C20.0421 117.3 19.9451 117.164 19.8116 117.057C19.6782 116.95 19.4963 116.897 19.2658 116.897C19.113 116.897 18.9723 116.93 18.8437 116.995C18.7152 117.058 18.6048 117.153 18.5126 117.279C18.4204 117.405 18.3489 117.559 18.2979 117.741C18.247 117.923 18.2215 118.133 18.2215 118.371V118.523C18.2215 118.71 18.247 118.886 18.2979 119.051C18.3513 119.213 18.4277 119.357 18.5272 119.48C18.6291 119.604 18.7516 119.701 18.8947 119.771C19.0402 119.842 19.2052 119.877 19.3896 119.877C19.6273 119.877 19.8286 119.828 19.9936 119.731C20.1585 119.634 20.3029 119.505 20.4266 119.342L20.8341 119.666C20.7492 119.794 20.6413 119.917 20.5103 120.033C20.3793 120.15 20.218 120.244 20.0263 120.317C19.8371 120.39 19.6127 120.426 19.3532 120.426ZM22.4024 114.765V120.354H21.7256V114.765H22.4024ZM24.2145 116.417V120.354H23.5377V116.417H24.2145ZM23.4867 115.372C23.4867 115.263 23.5195 115.171 23.585 115.096C23.6529 115.02 23.7524 114.983 23.8833 114.983C24.0119 114.983 24.1102 115.02 24.1781 115.096C24.2484 115.171 24.2836 115.263 24.2836 115.372C24.2836 115.477 24.2484 115.566 24.1781 115.641C24.1102 115.714 24.0119 115.751 23.8833 115.751C23.7524 115.751 23.6529 115.714 23.585 115.641C23.5195 115.566 23.4867 115.477 23.4867 115.372ZM26.4923 119.746L27.5693 116.417H28.2571L26.8416 120.354H26.3904L26.4923 119.746ZM25.5935 116.417L26.7033 119.764L26.7798 120.354H26.3286L24.9022 116.417H25.5935ZM30.4876 120.426C30.2135 120.426 29.9648 120.38 29.7417 120.288C29.5209 120.193 29.3305 120.061 29.1704 119.891C29.0127 119.722 28.8914 119.52 28.8065 119.287C28.7216 119.055 28.6792 118.8 28.6792 118.523V118.371C28.6792 118.05 28.7265 117.765 28.8211 117.515C28.9157 117.263 29.0442 117.05 29.2068 116.875C29.3693 116.7 29.5537 116.568 29.7598 116.478C29.966 116.389 30.1795 116.344 30.4003 116.344C30.6816 116.344 30.9242 116.392 31.128 116.489C31.3342 116.586 31.5028 116.722 31.6338 116.897C31.7648 117.069 31.8618 117.273 31.9249 117.508C31.9879 117.741 32.0195 117.996 32.0195 118.272V118.574H29.0794V118.025H31.3463V117.974C31.3366 117.799 31.3002 117.629 31.2372 117.464C31.1765 117.3 31.0795 117.164 30.9461 117.057C30.8126 116.95 30.6307 116.897 30.4003 116.897C30.2474 116.897 30.1067 116.93 29.9782 116.995C29.8496 117.058 29.7392 117.153 29.647 117.279C29.5549 117.405 29.4833 117.559 29.4324 117.741C29.3814 117.923 29.3559 118.133 29.3559 118.371V118.523C29.3559 118.71 29.3814 118.886 29.4324 119.051C29.4857 119.213 29.5621 119.357 29.6616 119.48C29.7635 119.604 29.886 119.701 30.0291 119.771C30.1747 119.842 30.3396 119.877 30.524 119.877C30.7617 119.877 30.963 119.828 31.128 119.731C31.2929 119.634 31.4373 119.505 31.561 119.342L31.9685 119.666C31.8836 119.794 31.7757 119.917 31.6447 120.033C31.5137 120.15 31.3524 120.244 31.1607 120.317C30.9715 120.39 30.7471 120.426 30.4876 120.426ZM33.4786 117.035V120.354H32.8054V116.417H33.4604L33.4786 117.035ZM34.7085 116.395L34.7048 117.021C34.649 117.008 34.5957 117.001 34.5447 116.999C34.4962 116.994 34.4404 116.991 34.3774 116.991C34.2221 116.991 34.085 117.016 33.9662 117.064C33.8473 117.113 33.7466 117.181 33.6642 117.268C33.5817 117.355 33.5162 117.46 33.4677 117.581C33.4216 117.7 33.3913 117.831 33.3767 117.974L33.1875 118.083C33.1875 117.845 33.2105 117.622 33.2566 117.414C33.3052 117.205 33.3791 117.021 33.4786 116.86C33.5781 116.698 33.7042 116.572 33.857 116.482C34.0123 116.39 34.1966 116.344 34.4101 116.344C34.4586 116.344 34.5144 116.35 34.5775 116.362C34.6406 116.372 34.6842 116.383 34.7085 116.395ZM38.2853 119.946L39.3806 116.417H40.101L38.5218 120.961C38.4854 121.058 38.4369 121.163 38.3763 121.274C38.3181 121.388 38.2429 121.496 38.1507 121.598C38.0585 121.7 37.9469 121.782 37.8159 121.845C37.6874 121.911 37.5333 121.944 37.3538 121.944C37.3004 121.944 37.2325 121.936 37.15 121.922C37.0676 121.907 37.0093 121.895 36.9754 121.885L36.9717 121.34C36.9912 121.342 37.0215 121.345 37.0627 121.347C37.1064 121.352 37.1367 121.354 37.1537 121.354C37.3065 121.354 37.4363 121.334 37.543 121.292C37.6498 121.254 37.7395 121.187 37.8123 121.092C37.8875 121 37.9518 120.873 38.0051 120.71L38.2853 119.946ZM37.4812 116.417L38.5036 119.473L38.6783 120.183L38.1943 120.43L36.7461 116.417H37.4812ZM40.4722 118.429V118.345C40.4722 118.061 40.5134 117.798 40.5959 117.555C40.6784 117.31 40.7972 117.098 40.9525 116.919C41.1077 116.737 41.2957 116.596 41.5165 116.497C41.7372 116.395 41.9847 116.344 42.2588 116.344C42.5353 116.344 42.784 116.395 43.0047 116.497C43.2279 116.596 43.4171 116.737 43.5723 116.919C43.73 117.098 43.8501 117.31 43.9326 117.555C44.0151 117.798 44.0563 118.061 44.0563 118.345V118.429C44.0563 118.713 44.0151 118.976 43.9326 119.218C43.8501 119.461 43.73 119.673 43.5723 119.855C43.4171 120.035 43.2291 120.175 43.0083 120.277C42.79 120.377 42.5426 120.426 42.2661 120.426C41.9895 120.426 41.7409 120.377 41.5201 120.277C41.2994 120.175 41.1102 120.035 40.9525 119.855C40.7972 119.673 40.6784 119.461 40.5959 119.218C40.5134 118.976 40.4722 118.713 40.4722 118.429ZM41.1453 118.345V118.429C41.1453 118.625 41.1684 118.811 41.2145 118.985C41.2606 119.158 41.3297 119.31 41.4219 119.444C41.5165 119.577 41.6341 119.683 41.7748 119.76C41.9155 119.836 42.0793 119.873 42.2661 119.873C42.4504 119.873 42.6117 119.836 42.75 119.76C42.8907 119.683 43.0071 119.577 43.0993 119.444C43.1915 119.31 43.2606 119.158 43.3067 118.985C43.3552 118.811 43.3795 118.625 43.3795 118.429V118.345C43.3795 118.151 43.3552 117.968 43.3067 117.796C43.2606 117.621 43.1903 117.467 43.0957 117.333C43.0035 117.198 42.8871 117.091 42.7464 117.013C42.6081 116.936 42.4456 116.897 42.2588 116.897C42.0744 116.897 41.9119 116.936 41.7712 117.013C41.6329 117.091 41.5165 117.198 41.4219 117.333C41.3297 117.467 41.2606 117.621 41.2145 117.796C41.1684 117.968 41.1453 118.151 41.1453 118.345ZM47.3093 119.444V116.417H47.9861V120.354H47.342L47.3093 119.444ZM47.4366 118.614L47.7168 118.607C47.7168 118.869 47.6889 119.112 47.6331 119.335C47.5798 119.556 47.4924 119.747 47.3711 119.91C47.2499 120.072 47.091 120.2 46.8945 120.292C46.698 120.381 46.459 120.426 46.1777 120.426C45.986 120.426 45.8101 120.398 45.65 120.343C45.4924 120.287 45.3565 120.201 45.2425 120.084C45.1285 119.968 45.04 119.816 44.9769 119.629C44.9162 119.443 44.8859 119.218 44.8859 118.956V116.417H45.5591V118.964C45.5591 119.141 45.5785 119.287 45.6173 119.404C45.6585 119.518 45.7131 119.609 45.781 119.677C45.8514 119.742 45.929 119.788 46.0139 119.815C46.1012 119.842 46.191 119.855 46.2832 119.855C46.5694 119.855 46.7962 119.801 46.9636 119.691C47.131 119.58 47.2511 119.431 47.3238 119.244C47.399 119.055 47.4366 118.845 47.4366 118.614ZM49.6854 117.035V120.354H49.0122V116.417H49.6672L49.6854 117.035ZM50.9152 116.395L50.9116 117.021C50.8558 117.008 50.8024 117.001 50.7515 116.999C50.703 116.994 50.6472 116.991 50.5841 116.991C50.4289 116.991 50.2918 117.016 50.1729 117.064C50.0541 117.113 49.9534 117.181 49.8709 117.268C49.7885 117.355 49.723 117.46 49.6744 117.581C49.6284 117.7 49.598 117.831 49.5835 117.974L49.3943 118.083C49.3943 117.845 49.4173 117.622 49.4634 117.414C49.5119 117.205 49.5859 117.021 49.6854 116.86C49.7848 116.698 49.911 116.572 50.0638 116.482C50.219 116.39 50.4034 116.344 50.6169 116.344C50.6654 116.344 50.7212 116.35 50.7842 116.362C50.8473 116.372 50.891 116.383 50.9152 116.395ZM54.0591 117.173V121.867H53.3823V116.417H54.0009L54.0591 117.173ZM56.7117 118.352V118.429C56.7117 118.715 56.6777 118.981 56.6098 119.226C56.5419 119.468 56.4424 119.679 56.3114 119.859C56.1829 120.038 56.024 120.178 55.8348 120.277C55.6455 120.377 55.4284 120.426 55.1834 120.426C54.9336 120.426 54.7128 120.385 54.5212 120.303C54.3295 120.22 54.167 120.1 54.0336 119.942C53.9002 119.785 53.7934 119.596 53.7134 119.375C53.6358 119.154 53.5824 118.905 53.5533 118.629V118.221C53.5824 117.93 53.637 117.669 53.717 117.439C53.7971 117.209 53.9026 117.012 54.0336 116.85C54.167 116.685 54.3283 116.56 54.5175 116.475C54.7068 116.387 54.9251 116.344 55.1725 116.344C55.4199 116.344 55.6395 116.392 55.8311 116.489C56.0228 116.584 56.1841 116.72 56.3151 116.897C56.4461 117.074 56.5443 117.286 56.6098 117.534C56.6777 117.779 56.7117 118.052 56.7117 118.352ZM56.0349 118.429V118.352C56.0349 118.156 56.0143 117.971 55.973 117.799C55.9318 117.625 55.8675 117.472 55.7802 117.341C55.6953 117.207 55.5861 117.103 55.4527 117.028C55.3193 116.95 55.1604 116.911 54.976 116.911C54.8062 116.911 54.6582 116.94 54.5321 116.999C54.4084 117.057 54.3029 117.136 54.2155 117.235C54.1282 117.332 54.0566 117.444 54.0009 117.57C53.9475 117.694 53.9075 117.822 53.8808 117.956V118.898C53.9293 119.068 53.9972 119.228 54.0845 119.378C54.1719 119.526 54.2883 119.646 54.4339 119.739C54.5794 119.828 54.7626 119.873 54.9833 119.873C55.1652 119.873 55.3217 119.836 55.4527 119.76C55.5861 119.683 55.6953 119.577 55.7802 119.444C55.8675 119.31 55.9318 119.158 55.973 118.985C56.0143 118.811 56.0349 118.625 56.0349 118.429ZM59.8919 119.68V117.654C59.8919 117.498 59.8604 117.364 59.7973 117.25C59.7367 117.133 59.6445 117.044 59.5208 116.981C59.397 116.917 59.2442 116.886 59.0623 116.886C58.8925 116.886 58.7433 116.915 58.6147 116.973C58.4886 117.031 58.3891 117.108 58.3164 117.202C58.246 117.297 58.2108 117.399 58.2108 117.508H57.5377C57.5377 117.367 57.5741 117.228 57.6468 117.09C57.7196 116.951 57.8239 116.826 57.9598 116.715C58.098 116.601 58.263 116.511 58.4546 116.446C58.6487 116.378 58.8646 116.344 59.1023 116.344C59.3886 116.344 59.6408 116.392 59.8592 116.489C60.0799 116.586 60.2521 116.733 60.3759 116.93C60.502 117.124 60.5651 117.367 60.5651 117.661V119.495C60.5651 119.626 60.576 119.765 60.5978 119.913C60.6221 120.061 60.6572 120.189 60.7033 120.295V120.354H60.0011C59.9671 120.276 59.9404 120.173 59.921 120.044C59.9016 119.913 59.8919 119.792 59.8919 119.68ZM60.0083 117.967L60.0156 118.44H59.3352C59.1435 118.44 58.9725 118.455 58.8221 118.487C58.6717 118.516 58.5456 118.561 58.4437 118.622C58.3418 118.682 58.2642 118.759 58.2108 118.851C58.1575 118.941 58.1308 119.046 58.1308 119.167C58.1308 119.291 58.1587 119.404 58.2145 119.506C58.2703 119.608 58.354 119.689 58.4655 119.75C58.5796 119.808 58.719 119.837 58.884 119.837C59.0902 119.837 59.2721 119.793 59.4298 119.706C59.5875 119.619 59.7124 119.512 59.8046 119.386C59.8992 119.26 59.9501 119.137 59.9574 119.018L60.2449 119.342C60.2279 119.444 60.1818 119.557 60.1066 119.68C60.0314 119.804 59.9307 119.923 59.8046 120.037C59.6809 120.149 59.5329 120.242 59.3607 120.317C59.1909 120.39 58.9992 120.426 58.7857 120.426C58.5189 120.426 58.2848 120.374 58.0835 120.27C57.8846 120.166 57.7293 120.026 57.6177 119.851C57.5086 119.674 57.454 119.477 57.454 119.258C57.454 119.047 57.4952 118.862 57.5777 118.702C57.6602 118.539 57.779 118.404 57.9343 118.298C58.0895 118.189 58.2763 118.106 58.4946 118.05C58.713 117.995 58.9568 117.967 59.226 117.967H60.0083ZM63.1995 119.873C63.3596 119.873 63.5076 119.841 63.6434 119.775C63.7792 119.71 63.8908 119.62 63.9782 119.506C64.0655 119.389 64.1152 119.257 64.1274 119.109H64.7678C64.7556 119.342 64.6768 119.559 64.5312 119.76C64.3881 119.959 64.2001 120.121 63.9672 120.244C63.7344 120.366 63.4785 120.426 63.1995 120.426C62.9035 120.426 62.6452 120.374 62.4244 120.27C62.2061 120.166 62.0242 120.022 61.8786 119.841C61.7355 119.659 61.6276 119.45 61.5548 119.215C61.4844 118.977 61.4493 118.726 61.4493 118.461V118.309C61.4493 118.044 61.4844 117.794 61.5548 117.559C61.6276 117.321 61.7355 117.112 61.8786 116.93C62.0242 116.748 62.2061 116.605 62.4244 116.5C62.6452 116.396 62.9035 116.344 63.1995 116.344C63.5076 116.344 63.7768 116.407 64.0073 116.533C64.2377 116.657 64.4184 116.826 64.5494 117.042C64.6829 117.256 64.7556 117.498 64.7678 117.77H64.1274C64.1152 117.608 64.0691 117.461 63.9891 117.33C63.9115 117.199 63.8047 117.095 63.6689 117.017C63.5355 116.937 63.379 116.897 63.1995 116.897C62.9933 116.897 62.8198 116.938 62.6791 117.021C62.5409 117.101 62.4305 117.21 62.348 117.348C62.268 117.484 62.2098 117.635 62.1734 117.803C62.1394 117.968 62.1224 118.136 62.1224 118.309V118.461C62.1224 118.634 62.1394 118.804 62.1734 118.971C62.2073 119.138 62.2643 119.29 62.3444 119.426C62.4269 119.562 62.5372 119.671 62.6755 119.753C62.8162 119.833 62.9909 119.873 63.1995 119.873ZM66.2014 114.765V120.354H65.5246V114.765H66.2014ZM68.6066 116.417L66.8891 118.254L65.9285 119.251L65.8739 118.534L66.5616 117.712L67.7842 116.417H68.6066ZM67.9916 120.354L66.5871 118.476L66.9364 117.876L68.7849 120.354H67.9916ZM71.6231 119.68V117.654C71.6231 117.498 71.5915 117.364 71.5285 117.25C71.4678 117.133 71.3756 117.044 71.2519 116.981C71.1282 116.917 70.9754 116.886 70.7934 116.886C70.6236 116.886 70.4745 116.915 70.3459 116.973C70.2197 117.031 70.1203 117.108 70.0475 117.202C69.9772 117.297 69.942 117.399 69.942 117.508H69.2688C69.2688 117.367 69.3052 117.228 69.378 117.09C69.4508 116.951 69.5551 116.826 69.6909 116.715C69.8292 116.601 69.9941 116.511 70.1858 116.446C70.3798 116.378 70.5957 116.344 70.8335 116.344C71.1197 116.344 71.372 116.392 71.5903 116.489C71.8111 116.586 71.9833 116.733 72.107 116.93C72.2332 117.124 72.2962 117.367 72.2962 117.661V119.495C72.2962 119.626 72.3071 119.765 72.329 119.913C72.3532 120.061 72.3884 120.189 72.4345 120.295V120.354H71.7322C71.6983 120.276 71.6716 120.173 71.6522 120.044C71.6328 119.913 71.6231 119.792 71.6231 119.68ZM71.7395 117.967L71.7468 118.44H71.0663C70.8747 118.44 70.7037 118.455 70.5533 118.487C70.4029 118.516 70.2768 118.561 70.1749 118.622C70.073 118.682 69.9954 118.759 69.942 118.851C69.8886 118.941 69.8619 119.046 69.8619 119.167C69.8619 119.291 69.8898 119.404 69.9456 119.506C70.0014 119.608 70.0851 119.689 70.1967 119.75C70.3107 119.808 70.4502 119.837 70.6152 119.837C70.8213 119.837 71.0033 119.793 71.161 119.706C71.3186 119.619 71.4436 119.512 71.5357 119.386C71.6303 119.26 71.6813 119.137 71.6886 119.018L71.976 119.342C71.959 119.444 71.913 119.557 71.8378 119.68C71.7626 119.804 71.6619 119.923 71.5357 120.037C71.412 120.149 71.2641 120.242 71.0918 120.317C70.922 120.39 70.7304 120.426 70.5169 120.426C70.2501 120.426 70.016 120.374 69.8146 120.27C69.6157 120.166 69.4605 120.026 69.3489 119.851C69.2397 119.674 69.1851 119.477 69.1851 119.258C69.1851 119.047 69.2264 118.862 69.3089 118.702C69.3913 118.539 69.5102 118.404 69.6655 118.298C69.8207 118.189 70.0075 118.106 70.2258 118.05C70.4441 117.995 70.6879 117.967 70.9572 117.967H71.7395ZM75.9058 116.417H76.5171V120.27C76.5171 120.617 76.4468 120.913 76.3061 121.158C76.1654 121.403 75.9689 121.588 75.7166 121.714C75.4667 121.843 75.1781 121.907 74.8506 121.907C74.7148 121.907 74.5546 121.885 74.3703 121.842C74.1884 121.801 74.0088 121.729 73.8318 121.627C73.6571 121.528 73.5103 121.393 73.3915 121.223L73.7444 120.823C73.9094 121.022 74.0816 121.16 74.2611 121.238C74.4431 121.315 74.6226 121.354 74.7997 121.354C75.0131 121.354 75.1975 121.314 75.3527 121.234C75.508 121.154 75.6281 121.035 75.713 120.878C75.8003 120.722 75.844 120.531 75.844 120.303V117.283L75.9058 116.417ZM73.195 118.429V118.352C73.195 118.052 73.2302 117.779 73.3005 117.534C73.3733 117.286 73.4764 117.074 73.6098 116.897C73.7456 116.72 73.9094 116.584 74.101 116.489C74.2927 116.392 74.5086 116.344 74.7487 116.344C74.9961 116.344 75.212 116.387 75.3964 116.475C75.5832 116.56 75.7409 116.685 75.8694 116.85C76.0004 117.012 76.1035 117.209 76.1787 117.439C76.2539 117.669 76.3061 117.93 76.3352 118.221V118.556C76.3085 118.845 76.2563 119.104 76.1787 119.335C76.1035 119.565 76.0004 119.762 75.8694 119.924C75.7409 120.087 75.5832 120.212 75.3964 120.299C75.2096 120.384 74.9913 120.426 74.7414 120.426C74.5061 120.426 74.2927 120.377 74.101 120.277C73.9118 120.178 73.7493 120.038 73.6134 119.859C73.4776 119.679 73.3733 119.468 73.3005 119.226C73.2302 118.981 73.195 118.715 73.195 118.429ZM73.8681 118.352V118.429C73.8681 118.625 73.8876 118.81 73.9264 118.982C73.9676 119.154 74.0295 119.306 74.1119 119.437C74.1968 119.568 74.3048 119.671 74.4358 119.746C74.5668 119.819 74.7232 119.855 74.9052 119.855C75.1283 119.855 75.3127 119.808 75.4583 119.713C75.6038 119.619 75.719 119.494 75.8039 119.338C75.8913 119.183 75.9592 119.015 76.0077 118.833V117.956C75.981 117.822 75.9398 117.694 75.884 117.57C75.8306 117.444 75.7603 117.332 75.6729 117.235C75.588 117.136 75.4825 117.057 75.3564 116.999C75.2302 116.94 75.0823 116.911 74.9125 116.911C74.7281 116.911 74.5692 116.95 74.4358 117.028C74.3048 117.103 74.1968 117.207 74.1119 117.341C74.0295 117.472 73.9676 117.625 73.9264 117.799C73.8876 117.971 73.8681 118.156 73.8681 118.352ZM79.1734 120.426C78.8993 120.426 78.6506 120.38 78.4274 120.288C78.2067 120.193 78.0163 120.061 77.8562 119.891C77.6985 119.722 77.5772 119.52 77.4923 119.287C77.4074 119.055 77.3649 118.8 77.3649 118.523V118.371C77.3649 118.05 77.4122 117.765 77.5068 117.515C77.6014 117.263 77.73 117.05 77.8925 116.875C78.0551 116.7 78.2394 116.568 78.4456 116.478C78.6518 116.389 78.8653 116.344 79.086 116.344C79.3674 116.344 79.61 116.392 79.8138 116.489C80.02 116.586 80.1886 116.722 80.3196 116.897C80.4506 117.069 80.5476 117.273 80.6107 117.508C80.6737 117.741 80.7053 117.996 80.7053 118.272V118.574H77.7652V118.025H80.0321V117.974C80.0224 117.799 79.986 117.629 79.9229 117.464C79.8623 117.3 79.7653 117.164 79.6318 117.057C79.4984 116.95 79.3165 116.897 79.086 116.897C78.9332 116.897 78.7925 116.93 78.6639 116.995C78.5354 117.058 78.425 117.153 78.3328 117.279C78.2406 117.405 78.1691 117.559 78.1181 117.741C78.0672 117.923 78.0417 118.133 78.0417 118.371V118.523C78.0417 118.71 78.0672 118.886 78.1181 119.051C78.1715 119.213 78.2479 119.357 78.3474 119.48C78.4493 119.604 78.5718 119.701 78.7149 119.771C78.8604 119.842 79.0254 119.877 79.2098 119.877C79.4475 119.877 79.6488 119.828 79.8138 119.731C79.9787 119.634 80.1231 119.505 80.2468 119.342L80.6543 119.666C80.5694 119.794 80.4615 119.917 80.3305 120.033C80.1995 120.15 80.0382 120.244 79.8465 120.317C79.6573 120.39 79.4329 120.426 79.1734 120.426ZM84.344 120.354H83.6708V116.002C83.6708 115.718 83.7217 115.479 83.8236 115.285C83.9279 115.088 84.0771 114.94 84.2712 114.841C84.4652 114.739 84.6957 114.688 84.9625 114.688C85.0402 114.688 85.1178 114.693 85.1954 114.703C85.2755 114.712 85.3531 114.727 85.4283 114.746L85.3919 115.296C85.341 115.284 85.2827 115.275 85.2172 115.27C85.1542 115.265 85.0911 115.263 85.028 115.263C84.8849 115.263 84.7612 115.292 84.6569 115.35C84.555 115.406 84.4774 115.489 84.424 115.598C84.3706 115.707 84.344 115.842 84.344 116.002V120.354ZM85.1809 116.417V116.933H83.0486V116.417H85.1809ZM85.7521 118.429V118.345C85.7521 118.061 85.7934 117.798 85.8758 117.555C85.9583 117.31 86.0772 117.098 86.2324 116.919C86.3877 116.737 86.5757 116.596 86.7964 116.497C87.0172 116.395 87.2646 116.344 87.5387 116.344C87.8153 116.344 88.0639 116.395 88.2847 116.497C88.5078 116.596 88.6971 116.737 88.8523 116.919C89.01 117.098 89.1301 117.31 89.2125 117.555C89.295 117.798 89.3363 118.061 89.3363 118.345V118.429C89.3363 118.713 89.295 118.976 89.2125 119.218C89.1301 119.461 89.01 119.673 88.8523 119.855C88.6971 120.035 88.5091 120.175 88.2883 120.277C88.07 120.377 87.8226 120.426 87.546 120.426C87.2695 120.426 87.0208 120.377 86.8001 120.277C86.5793 120.175 86.3901 120.035 86.2324 119.855C86.0772 119.673 85.9583 119.461 85.8758 119.218C85.7934 118.976 85.7521 118.713 85.7521 118.429ZM86.4253 118.345V118.429C86.4253 118.625 86.4483 118.811 86.4944 118.985C86.5405 119.158 86.6097 119.31 86.7018 119.444C86.7964 119.577 86.9141 119.683 87.0548 119.76C87.1955 119.836 87.3592 119.873 87.546 119.873C87.7304 119.873 87.8917 119.836 88.03 119.76C88.1707 119.683 88.2871 119.577 88.3793 119.444C88.4715 119.31 88.5406 119.158 88.5867 118.985C88.6352 118.811 88.6595 118.625 88.6595 118.429V118.345C88.6595 118.151 88.6352 117.968 88.5867 117.796C88.5406 117.621 88.4702 117.467 88.3756 117.333C88.2835 117.198 88.167 117.091 88.0263 117.013C87.888 116.936 87.7255 116.897 87.5387 116.897C87.3544 116.897 87.1918 116.936 87.0511 117.013C86.9129 117.091 86.7964 117.198 86.7018 117.333C86.6097 117.467 86.5405 117.621 86.4944 117.796C86.4483 117.968 86.4253 118.151 86.4253 118.345ZM90.8536 117.035V120.354H90.1804V116.417H90.8354L90.8536 117.035ZM92.0835 116.395L92.0798 117.021C92.024 117.008 91.9707 117.001 91.9197 116.999C91.8712 116.994 91.8154 116.991 91.7523 116.991C91.5971 116.991 91.46 117.016 91.3412 117.064C91.2223 117.113 91.1216 117.181 91.0392 117.268C90.9567 117.355 90.8912 117.46 90.8427 117.581C90.7966 117.7 90.7663 117.831 90.7517 117.974L90.5625 118.083C90.5625 117.845 90.5855 117.622 90.6316 117.414C90.6801 117.205 90.7541 117.021 90.8536 116.86C90.953 116.698 91.0792 116.572 91.232 116.482C91.3873 116.39 91.5716 116.344 91.7851 116.344C91.8336 116.344 91.8894 116.35 91.9525 116.362C92.0155 116.372 92.0592 116.383 92.0835 116.395ZM95.6603 119.946L96.7556 116.417H97.476L95.8968 120.961C95.8604 121.058 95.8119 121.163 95.7513 121.274C95.6931 121.388 95.6179 121.496 95.5257 121.598C95.4335 121.7 95.3219 121.782 95.1909 121.845C95.0624 121.911 94.9083 121.944 94.7288 121.944C94.6754 121.944 94.6075 121.936 94.525 121.922C94.4426 121.907 94.3843 121.895 94.3504 121.885L94.3467 121.34C94.3661 121.342 94.3965 121.345 94.4377 121.347C94.4814 121.352 94.5117 121.354 94.5287 121.354C94.6815 121.354 94.8113 121.334 94.918 121.292C95.0248 121.254 95.1145 121.187 95.1873 121.092C95.2625 121 95.3268 120.873 95.3801 120.71L95.6603 119.946ZM94.8562 116.417L95.8786 119.473L96.0533 120.183L95.5693 120.43L94.1211 116.417H94.8562ZM97.8472 118.429V118.345C97.8472 118.061 97.8884 117.798 97.9709 117.555C98.0534 117.31 98.1722 117.098 98.3275 116.919C98.4827 116.737 98.6707 116.596 98.8915 116.497C99.1122 116.395 99.3597 116.344 99.6338 116.344C99.9103 116.344 100.159 116.395 100.38 116.497C100.603 116.596 100.792 116.737 100.947 116.919C101.105 117.098 101.225 117.31 101.308 117.555C101.39 117.798 101.431 118.061 101.431 118.345V118.429C101.431 118.713 101.39 118.976 101.308 119.218C101.225 119.461 101.105 119.673 100.947 119.855C100.792 120.035 100.604 120.175 100.383 120.277C100.165 120.377 99.9176 120.426 99.6411 120.426C99.3645 120.426 99.1159 120.377 98.8951 120.277C98.6744 120.175 98.4852 120.035 98.3275 119.855C98.1722 119.673 98.0534 119.461 97.9709 119.218C97.8884 118.976 97.8472 118.713 97.8472 118.429ZM98.5203 118.345V118.429C98.5203 118.625 98.5434 118.811 98.5895 118.985C98.6356 119.158 98.7047 119.31 98.7969 119.444C98.8915 119.577 99.0091 119.683 99.1498 119.76C99.2905 119.836 99.4543 119.873 99.6411 119.873C99.8254 119.873 99.9867 119.836 100.125 119.76C100.266 119.683 100.382 119.577 100.474 119.444C100.566 119.31 100.636 119.158 100.682 118.985C100.73 118.811 100.754 118.625 100.754 118.429V118.345C100.754 118.151 100.73 117.968 100.682 117.796C100.636 117.621 100.565 117.467 100.471 117.333C100.378 117.198 100.262 117.091 100.121 117.013C99.9831 116.936 99.8206 116.897 99.6338 116.897C99.4494 116.897 99.2869 116.936 99.1462 117.013C99.0079 117.091 98.8915 117.198 98.7969 117.333C98.7047 117.467 98.6356 117.621 98.5895 117.796C98.5434 117.968 98.5203 118.151 98.5203 118.345ZM104.684 119.444V116.417H105.361V120.354H104.717L104.684 119.444ZM104.812 118.614L105.092 118.607C105.092 118.869 105.064 119.112 105.008 119.335C104.955 119.556 104.867 119.747 104.746 119.91C104.625 120.072 104.466 120.2 104.269 120.292C104.073 120.381 103.834 120.426 103.553 120.426C103.361 120.426 103.185 120.398 103.025 120.343C102.867 120.287 102.732 120.201 102.618 120.084C102.503 119.968 102.415 119.816 102.352 119.629C102.291 119.443 102.261 119.218 102.261 118.956V116.417H102.934V118.964C102.934 119.141 102.953 119.287 102.992 119.404C103.034 119.518 103.088 119.609 103.156 119.677C103.226 119.742 103.304 119.788 103.389 119.815C103.476 119.842 103.566 119.855 103.658 119.855C103.944 119.855 104.171 119.801 104.339 119.691C104.506 119.58 104.626 119.431 104.699 119.244C104.774 119.055 104.812 118.845 104.812 118.614Z" fill="white"/>
</g>
<defs>
<filter id="filter0_d_253_4224" x="0" y="0" width="169" height="169" filterUnits="userSpaceOnUse" color-interpolation-filters="sRGB">
<feFlood flood-opacity="0" result="BackgroundImageFix"/>
<feColorMatrix in="SourceAlpha" type="matrix" values="0 0 0 0 0 0 0 0 0 0 0 0 0 0 0 0 0 0 127 0" result="hardAlpha"/>
<feOffset dy="2"/>
<feGaussianBlur stdDeviation="2.5"/>
<feComposite in2="hardAlpha" operator="out"/>
<feColorMatrix type="matrix" values="0 0 0 0 0 0 0 0 0 0 0 0 0 0 0 0 0 0 0.15 0"/>
<feBlend mode="normal" in2="BackgroundImageFix" result="effect1_dropShadow_253_4224"/>
<feBlend mode="normal" in="SourceGraphic" in2="effect1_dropShadow_253_4224" result="shape"/>
</filter>
</defs>
</svg>
