<svg width="30" height="31" viewBox="0 0 30 31" fill="none" xmlns="http://www.w3.org/2000/svg">
<g filter="url(#filter0_d_3_5146)">
<path d="M25 9V15C25 17.5 24.5 19.25 23.38 20.38L17 14L24.73 6.27C24.91 7.06 25 7.96 25 9Z" stroke="#292D32" stroke-width="1.5" stroke-linecap="round" stroke-linejoin="round"/>
<path d="M24.73 6.27L9.26999 21.73C6.25999 21.04 5 18.96 5 15V9C5 4 7 2 12 2H18C21.96 2 24.04 3.26 24.73 6.27Z" stroke="#292D32" stroke-width="1.5" stroke-linecap="round" stroke-linejoin="round"/>
<path d="M23.38 20.38C22.25 21.5 20.5 22 18 22H12C10.96 22 10.06 21.91 9.27002 21.73L17 14L23.38 20.38Z" stroke="#292D32" stroke-width="1.5" stroke-linecap="round" stroke-linejoin="round"/>
<path d="M9.24002 7.98C9.92002 5.05 14.32 5.05 15 7.98C15.39 9.7 14.31 11.16 13.36 12.06C12.67 12.72 11.58 12.72 10.88 12.06C9.93003 11.16 8.84002 9.7 9.24002 7.98Z" stroke="#292D32" stroke-width="1.5"/>
<path d="M12.0946 8.70001H12.1036" stroke="#292D32" stroke-width="2" stroke-linecap="round" stroke-linejoin="round"/>
</g>
<defs>
<filter id="filter0_d_3_5146" x="-1" y="0" width="32" height="32" filterUnits="userSpaceOnUse" color-interpolation-filters="sRGB">
<feFlood flood-opacity="0" result="BackgroundImageFix"/>
<feColorMatrix in="SourceAlpha" type="matrix" values="0 0 0 0 0 0 0 0 0 0 0 0 0 0 0 0 0 0 127 0" result="hardAlpha"/>
<feOffset dy="4"/>
<feGaussianBlur stdDeviation="2"/>
<feComposite in2="hardAlpha" operator="out"/>
<feColorMatrix type="matrix" values="0 0 0 0 0 0 0 0 0 0 0 0 0 0 0 0 0 0 0.25 0"/>
<feBlend mode="normal" in2="BackgroundImageFix" result="effect1_dropShadow_3_5146"/>
<feBlend mode="normal" in="SourceGraphic" in2="effect1_dropShadow_3_5146" result="shape"/>
</filter>
</defs>
</svg>
