<svg width="24" height="27" viewBox="0 0 24 27" fill="none" xmlns="http://www.w3.org/2000/svg">
<g filter="url(#filter0_d_28_4592)">
<path d="M12.0166 2.42493C9.25828 2.42493 7.01662 4.66659 7.01662 7.42493V9.83326C7.01662 10.3416 6.79995 11.1166 6.54162 11.5499L5.58328 13.1416C4.99162 14.1249 5.39995 15.2166 6.48328 15.5833C10.075 16.7833 13.95 16.7833 17.5416 15.5833C18.55 15.2499 18.9916 14.0583 18.4416 13.1416L17.4833 11.5499C17.2333 11.1166 17.0166 10.3416 17.0166 9.83326V7.42493C17.0166 4.67493 14.7666 2.42493 12.0166 2.42493Z" stroke="#3A3A3A" stroke-width="1.25" stroke-miterlimit="10" stroke-linecap="round"/>
<path d="M13.5584 2.66662C13.3 2.59162 13.0334 2.53328 12.7584 2.49995C11.9584 2.39995 11.1917 2.45828 10.475 2.66662C10.7167 2.04995 11.3167 1.61662 12.0167 1.61662C12.7167 1.61662 13.3167 2.04995 13.5584 2.66662Z" stroke="#3A3A3A" stroke-width="1.25" stroke-miterlimit="10" stroke-linecap="round" stroke-linejoin="round"/>
<path d="M14.5167 15.8834C14.5167 17.2584 13.3917 18.3834 12.0167 18.3834C11.3333 18.3834 10.7 18.1 10.25 17.65C9.8 17.2 9.51666 16.5667 9.51666 15.8834" stroke="#3A3A3A" stroke-width="1.25" stroke-miterlimit="10"/>
</g>
<defs>
<filter id="filter0_d_28_4592" x="-2" y="0" width="28" height="28" filterUnits="userSpaceOnUse" color-interpolation-filters="sRGB">
<feFlood flood-opacity="0" result="BackgroundImageFix"/>
<feColorMatrix in="SourceAlpha" type="matrix" values="0 0 0 0 0 0 0 0 0 0 0 0 0 0 0 0 0 0 127 0" result="hardAlpha"/>
<feOffset dy="4"/>
<feGaussianBlur stdDeviation="2"/>
<feComposite in2="hardAlpha" operator="out"/>
<feColorMatrix type="matrix" values="0 0 0 0 0 0 0 0 0 0 0 0 0 0 0 0 0 0 0.25 0"/>
<feBlend mode="normal" in2="BackgroundImageFix" result="effect1_dropShadow_28_4592"/>
<feBlend mode="normal" in="SourceGraphic" in2="effect1_dropShadow_28_4592" result="shape"/>
</filter>
</defs>
</svg>
