<svg width="26" height="27" viewBox="0 0 26 27" fill="none" xmlns="http://www.w3.org/2000/svg">
<circle cx="13" cy="13.4932" r="13" fill="#0560FA"/>
<path d="M11.7051 13.4327L10.8379 13.21L11.2656 8.96198H15.6426V9.96393H12.1855L11.9277 12.2842C12.084 12.1944 12.2812 12.1104 12.5195 12.0323C12.7617 11.9542 13.0391 11.9151 13.3516 11.9151C13.7461 11.9151 14.0996 11.9835 14.4121 12.1202C14.7246 12.253 14.9902 12.4444 15.209 12.6944C15.4316 12.9444 15.6016 13.2452 15.7188 13.5967C15.8359 13.9483 15.8945 14.3409 15.8945 14.7745C15.8945 15.1846 15.8379 15.5616 15.7246 15.9053C15.6152 16.2491 15.4492 16.5499 15.2266 16.8077C15.0039 17.0616 14.7227 17.2589 14.3828 17.3995C14.0469 17.5401 13.6504 17.6104 13.1934 17.6104C12.8496 17.6104 12.5234 17.5635 12.2148 17.4698C11.9102 17.3721 11.6367 17.2256 11.3945 17.0303C11.1562 16.8311 10.9609 16.585 10.8086 16.2921C10.6602 15.9952 10.5664 15.6475 10.5273 15.2491H11.5586C11.6055 15.5694 11.6992 15.8389 11.8398 16.0577C11.9805 16.2764 12.1641 16.4424 12.3906 16.5557C12.6211 16.6651 12.8887 16.7198 13.1934 16.7198C13.4512 16.7198 13.6797 16.6749 13.8789 16.585C14.0781 16.4952 14.2461 16.3663 14.3828 16.1983C14.5195 16.0303 14.623 15.8272 14.6934 15.5889C14.7676 15.3506 14.8047 15.0831 14.8047 14.7862C14.8047 14.5167 14.7676 14.2667 14.6934 14.0362C14.6191 13.8057 14.5078 13.6046 14.3594 13.4327C14.2148 13.2608 14.0371 13.128 13.8262 13.0342C13.6152 12.9366 13.373 12.8878 13.0996 12.8878C12.7363 12.8878 12.4609 12.9366 12.2734 13.0342C12.0898 13.1319 11.9004 13.2647 11.7051 13.4327Z" fill="white"/>
</svg>
