<svg width="100" height="50" viewBox="0 0 100 50" fill="none" xmlns="http://www.w3.org/2000/svg">
<rect width="100" height="50" rx="4.69226" fill="#0560FA"/>
<path d="M43.9893 19.0469V29H41.9385L37.9395 22.3281V29H35.8887V19.0469H37.9395L41.9453 25.7256V19.0469H43.9893ZM49.0547 29.1367C48.4805 29.1367 47.9655 29.0456 47.5098 28.8633C47.054 28.6764 46.6667 28.4189 46.3477 28.0908C46.0332 27.7627 45.7917 27.3822 45.623 26.9492C45.4544 26.5117 45.3701 26.0469 45.3701 25.5547V25.2812C45.3701 24.7207 45.4499 24.208 45.6094 23.7432C45.7689 23.2783 45.9967 22.875 46.293 22.5332C46.5938 22.1914 46.9583 21.9294 47.3867 21.7471C47.8151 21.5602 48.2982 21.4668 48.8359 21.4668C49.36 21.4668 49.8249 21.5534 50.2305 21.7266C50.6361 21.8997 50.9756 22.1458 51.249 22.4648C51.527 22.7839 51.7367 23.1667 51.8779 23.6133C52.0192 24.0553 52.0898 24.5475 52.0898 25.0898V25.9102H46.2109V24.5977H50.1553V24.4473C50.1553 24.1738 50.1051 23.93 50.0049 23.7158C49.9092 23.4971 49.7633 23.3239 49.5674 23.1963C49.3714 23.0687 49.1208 23.0049 48.8154 23.0049C48.5557 23.0049 48.3324 23.0618 48.1455 23.1758C47.9587 23.2897 47.806 23.4492 47.6875 23.6543C47.5736 23.8594 47.487 24.1009 47.4277 24.3789C47.373 24.6523 47.3457 24.9531 47.3457 25.2812V25.5547C47.3457 25.8509 47.3867 26.1243 47.4688 26.375C47.5553 26.6257 47.6761 26.8421 47.8311 27.0244C47.9906 27.2067 48.182 27.348 48.4053 27.4482C48.6331 27.5485 48.8906 27.5986 49.1777 27.5986C49.5332 27.5986 49.8636 27.5303 50.1689 27.3936C50.4788 27.2523 50.7454 27.0404 50.9688 26.7578L51.9258 27.7969C51.7708 28.0202 51.5589 28.2344 51.29 28.4395C51.0257 28.6445 50.7067 28.8132 50.333 28.9453C49.9593 29.0729 49.5332 29.1367 49.0547 29.1367ZM54.7969 21.6035L56.0205 23.8525L57.2783 21.6035H59.377L57.2852 25.2197L59.4727 29H57.3672L56.0342 26.6211L54.7012 29H52.5957L54.7832 25.2197L52.6914 21.6035H54.7969ZM63.957 21.6035V22.998H59.6504V21.6035H63.957ZM60.7168 19.7783H62.6855V26.7715C62.6855 26.9857 62.7129 27.1497 62.7676 27.2637C62.8268 27.3776 62.9134 27.4574 63.0273 27.5029C63.1413 27.5439 63.2848 27.5645 63.458 27.5645C63.5811 27.5645 63.6904 27.5599 63.7861 27.5508C63.8864 27.5371 63.9707 27.5234 64.0391 27.5098L64.0459 28.959C63.8773 29.0137 63.695 29.057 63.499 29.0889C63.3031 29.1208 63.0866 29.1367 62.8496 29.1367C62.4167 29.1367 62.0384 29.0661 61.7148 28.9248C61.3958 28.779 61.1497 28.5465 60.9766 28.2275C60.8034 27.9085 60.7168 27.4893 60.7168 26.9697V19.7783Z" fill="white"/>
</svg>
