<svg width="100" height="50" viewBox="0 0 100 50" fill="none" xmlns="http://www.w3.org/2000/svg">
<rect x="0.5" y="0.5" width="99" height="49" rx="4.19226" stroke="#0560FA"/>
<path d="M42.0703 26.3955C42.0703 26.2178 42.043 26.0583 41.9883 25.917C41.9382 25.7712 41.8424 25.639 41.7012 25.5205C41.5599 25.3975 41.3617 25.2767 41.1064 25.1582C40.8512 25.0397 40.5208 24.9167 40.1152 24.7891C39.6641 24.6432 39.2357 24.4792 38.8301 24.2969C38.429 24.1146 38.0736 23.9027 37.7637 23.6611C37.4583 23.415 37.2168 23.1302 37.0391 22.8066C36.8659 22.4831 36.7793 22.1071 36.7793 21.6787C36.7793 21.264 36.8704 20.888 37.0527 20.5508C37.235 20.209 37.4902 19.9173 37.8184 19.6758C38.1465 19.4297 38.5339 19.2406 38.9805 19.1084C39.4316 18.9762 39.9261 18.9102 40.4639 18.9102C41.1976 18.9102 41.8379 19.0423 42.3848 19.3066C42.9316 19.571 43.3555 19.9333 43.6562 20.3936C43.9616 20.8538 44.1143 21.3802 44.1143 21.9727H42.0771C42.0771 21.681 42.0156 21.4258 41.8926 21.207C41.7741 20.9837 41.5918 20.8083 41.3457 20.6807C41.1042 20.5531 40.7988 20.4893 40.4297 20.4893C40.0742 20.4893 39.778 20.5439 39.541 20.6533C39.304 20.7581 39.1263 20.9017 39.0078 21.084C38.8893 21.2617 38.8301 21.4622 38.8301 21.6855C38.8301 21.8542 38.8711 22.0068 38.9531 22.1436C39.0397 22.2803 39.1673 22.4079 39.3359 22.5264C39.5046 22.6449 39.7119 22.7565 39.958 22.8613C40.2041 22.9661 40.4889 23.0687 40.8125 23.1689C41.3548 23.333 41.8311 23.5176 42.2412 23.7227C42.6559 23.9277 43.0023 24.1579 43.2803 24.4131C43.5583 24.6683 43.7679 24.9577 43.9092 25.2812C44.0505 25.6048 44.1211 25.9717 44.1211 26.3818C44.1211 26.8148 44.0368 27.2021 43.8682 27.5439C43.6995 27.8857 43.4557 28.1751 43.1367 28.4121C42.8177 28.6491 42.4372 28.8291 41.9951 28.9521C41.5531 29.0752 41.0586 29.1367 40.5117 29.1367C40.0195 29.1367 39.5342 29.0729 39.0557 28.9453C38.5771 28.8132 38.1419 28.6149 37.75 28.3506C37.3626 28.0863 37.0527 27.749 36.8203 27.3389C36.5879 26.9287 36.4717 26.4434 36.4717 25.8828H38.5293C38.5293 26.1927 38.5771 26.4548 38.6729 26.6689C38.7686 26.8831 38.903 27.0563 39.0762 27.1885C39.2539 27.3206 39.4635 27.4163 39.7051 27.4756C39.9512 27.5348 40.2201 27.5645 40.5117 27.5645C40.8672 27.5645 41.1589 27.5143 41.3867 27.4141C41.6191 27.3138 41.79 27.1748 41.8994 26.9971C42.0133 26.8193 42.0703 26.6188 42.0703 26.3955ZM47.3613 18.4932V29H45.3926V18.4932H47.3613ZM52.0234 21.6035L48.8105 25.2676L47.0879 27.0107L46.3701 25.5889L47.7373 23.8525L49.6582 21.6035H52.0234ZM49.9795 29L47.792 25.582L49.1523 24.3926L52.249 29H49.9795ZM54.9492 21.6035V29H52.9736V21.6035H54.9492ZM52.8506 19.6758C52.8506 19.3887 52.9508 19.1517 53.1514 18.9648C53.3519 18.778 53.6208 18.6846 53.958 18.6846C54.2907 18.6846 54.5573 18.778 54.7578 18.9648C54.9629 19.1517 55.0654 19.3887 55.0654 19.6758C55.0654 19.9629 54.9629 20.1999 54.7578 20.3867C54.5573 20.5736 54.2907 20.667 53.958 20.667C53.6208 20.667 53.3519 20.5736 53.1514 20.3867C52.9508 20.1999 52.8506 19.9629 52.8506 19.6758ZM58.5449 23.0254V31.8438H56.5762V21.6035H58.4014L58.5449 23.0254ZM63.2275 25.2197V25.3633C63.2275 25.901 63.1637 26.4001 63.0361 26.8604C62.9131 27.3206 62.7308 27.7217 62.4893 28.0635C62.2477 28.4007 61.9469 28.665 61.5869 28.8564C61.2314 29.0433 60.8213 29.1367 60.3564 29.1367C59.9053 29.1367 59.5133 29.0456 59.1807 28.8633C58.848 28.681 58.5677 28.4258 58.3398 28.0977C58.1165 27.765 57.9365 27.3799 57.7998 26.9424C57.6631 26.5049 57.5583 26.0355 57.4854 25.5342V25.1582C57.5583 24.6204 57.6631 24.1283 57.7998 23.6816C57.9365 23.2305 58.1165 22.8408 58.3398 22.5127C58.5677 22.18 58.8457 21.9225 59.1738 21.7402C59.5065 21.5579 59.8962 21.4668 60.3428 21.4668C60.8122 21.4668 61.2246 21.5557 61.5801 21.7334C61.9401 21.9111 62.2409 22.1663 62.4824 22.499C62.7285 22.8317 62.9131 23.2282 63.0361 23.6885C63.1637 24.1488 63.2275 24.6592 63.2275 25.2197ZM61.252 25.3633V25.2197C61.252 24.9053 61.2246 24.6159 61.1699 24.3516C61.1198 24.0827 61.0378 23.848 60.9238 23.6475C60.8145 23.4469 60.6686 23.292 60.4863 23.1826C60.3086 23.0687 60.0921 23.0117 59.8369 23.0117C59.568 23.0117 59.3379 23.055 59.1465 23.1416C58.9596 23.2282 58.807 23.3535 58.6885 23.5176C58.57 23.6816 58.4811 23.8776 58.4219 24.1055C58.3626 24.3333 58.3262 24.5908 58.3125 24.8779V25.8281C58.3353 26.1654 58.3991 26.4684 58.5039 26.7373C58.6087 27.0016 58.7705 27.2113 58.9893 27.3662C59.208 27.5212 59.4951 27.5986 59.8506 27.5986C60.1104 27.5986 60.3291 27.5417 60.5068 27.4277C60.6846 27.3092 60.8281 27.1475 60.9375 26.9424C61.0514 26.7373 61.1312 26.5003 61.1768 26.2314C61.2269 25.9626 61.252 25.6732 61.252 25.3633Z" fill="#0560FA"/>
</svg>
