<svg width="342" height="46" viewBox="0 0 342 46" fill="none" xmlns="http://www.w3.org/2000/svg">
<rect width="342" height="46" rx="4" fill="#A7A7A7"/>
<path d="M157.32 26.1719V28H151.594V26.1719H157.32ZM152.352 16.625V28H150.008V16.625H152.352ZM158.164 23.8594V23.6953C158.164 23.0755 158.253 22.5052 158.43 21.9844C158.607 21.4583 158.865 21.0026 159.203 20.6172C159.542 20.2318 159.958 19.9323 160.453 19.7188C160.948 19.5 161.516 19.3906 162.156 19.3906C162.797 19.3906 163.367 19.5 163.867 19.7188C164.367 19.9323 164.786 20.2318 165.125 20.6172C165.469 21.0026 165.729 21.4583 165.906 21.9844C166.083 22.5052 166.172 23.0755 166.172 23.6953V23.8594C166.172 24.474 166.083 25.0443 165.906 25.5703C165.729 26.0911 165.469 26.5469 165.125 26.9375C164.786 27.3229 164.37 27.6224 163.875 27.8359C163.38 28.0495 162.812 28.1562 162.172 28.1562C161.531 28.1562 160.961 28.0495 160.461 27.8359C159.966 27.6224 159.547 27.3229 159.203 26.9375C158.865 26.5469 158.607 26.0911 158.43 25.5703C158.253 25.0443 158.164 24.474 158.164 23.8594ZM160.414 23.6953V23.8594C160.414 24.2135 160.445 24.5443 160.508 24.8516C160.57 25.1589 160.669 25.4297 160.805 25.6641C160.945 25.8932 161.128 26.0729 161.352 26.2031C161.576 26.3333 161.849 26.3984 162.172 26.3984C162.484 26.3984 162.753 26.3333 162.977 26.2031C163.201 26.0729 163.38 25.8932 163.516 25.6641C163.651 25.4297 163.75 25.1589 163.812 24.8516C163.88 24.5443 163.914 24.2135 163.914 23.8594V23.6953C163.914 23.3516 163.88 23.0286 163.812 22.7266C163.75 22.4193 163.648 22.1484 163.508 21.9141C163.372 21.6745 163.193 21.487 162.969 21.3516C162.745 21.2161 162.474 21.1484 162.156 21.1484C161.839 21.1484 161.568 21.2161 161.344 21.3516C161.125 21.487 160.945 21.6745 160.805 21.9141C160.669 22.1484 160.57 22.4193 160.508 22.7266C160.445 23.0286 160.414 23.3516 160.414 23.6953ZM172.906 19.5469H174.945V27.7188C174.945 28.4896 174.773 29.1432 174.43 29.6797C174.091 30.2214 173.617 30.6302 173.008 30.9062C172.398 31.1875 171.69 31.3281 170.883 31.3281C170.529 31.3281 170.154 31.2812 169.758 31.1875C169.367 31.0938 168.992 30.9479 168.633 30.75C168.279 30.5521 167.982 30.3021 167.742 30L168.734 28.6719C168.995 28.974 169.297 29.2083 169.641 29.375C169.984 29.5469 170.365 29.6328 170.781 29.6328C171.188 29.6328 171.531 29.5573 171.812 29.4062C172.094 29.2604 172.31 29.0443 172.461 28.7578C172.612 28.4766 172.688 28.1354 172.688 27.7344V21.5L172.906 19.5469ZM167.219 23.875V23.7109C167.219 23.0651 167.297 22.4792 167.453 21.9531C167.615 21.4219 167.841 20.9661 168.133 20.5859C168.43 20.2057 168.789 19.9115 169.211 19.7031C169.633 19.4948 170.109 19.3906 170.641 19.3906C171.203 19.3906 171.674 19.4948 172.055 19.7031C172.435 19.9115 172.747 20.2083 172.992 20.5938C173.237 20.974 173.427 21.4245 173.562 21.9453C173.703 22.4609 173.812 23.026 173.891 23.6406V24C173.812 24.5885 173.695 25.1354 173.539 25.6406C173.383 26.1458 173.177 26.5885 172.922 26.9688C172.667 27.3438 172.349 27.6354 171.969 27.8438C171.594 28.0521 171.146 28.1562 170.625 28.1562C170.104 28.1562 169.633 28.0495 169.211 27.8359C168.794 27.6224 168.438 27.3229 168.141 26.9375C167.844 26.5521 167.615 26.099 167.453 25.5781C167.297 25.0573 167.219 24.4896 167.219 23.875ZM169.469 23.7109V23.875C169.469 24.224 169.503 24.5495 169.57 24.8516C169.638 25.1536 169.742 25.4219 169.883 25.6562C170.029 25.8854 170.208 26.0651 170.422 26.1953C170.641 26.3203 170.898 26.3828 171.195 26.3828C171.607 26.3828 171.943 26.2969 172.203 26.125C172.464 25.9479 172.659 25.7057 172.789 25.3984C172.919 25.0911 172.995 24.737 173.016 24.3359V23.3125C173.005 22.9844 172.961 22.6901 172.883 22.4297C172.805 22.1641 172.695 21.9375 172.555 21.75C172.414 21.5625 172.232 21.4167 172.008 21.3125C171.784 21.2083 171.518 21.1562 171.211 21.1562C170.914 21.1562 170.656 21.224 170.438 21.3594C170.224 21.4896 170.044 21.6693 169.898 21.8984C169.758 22.1276 169.651 22.3984 169.578 22.7109C169.505 23.0182 169.469 23.3516 169.469 23.7109ZM183.055 19.5469V28H180.797V19.5469H183.055ZM180.656 17.3438C180.656 17.0156 180.771 16.7448 181 16.5312C181.229 16.3177 181.536 16.2109 181.922 16.2109C182.302 16.2109 182.607 16.3177 182.836 16.5312C183.07 16.7448 183.188 17.0156 183.188 17.3438C183.188 17.6719 183.07 17.9427 182.836 18.1562C182.607 18.3698 182.302 18.4766 181.922 18.4766C181.536 18.4766 181.229 18.3698 181 18.1562C180.771 17.9427 180.656 17.6719 180.656 17.3438ZM187.117 21.3516V28H184.867V19.5469H186.977L187.117 21.3516ZM186.789 23.4766H186.18C186.18 22.8516 186.26 22.2891 186.422 21.7891C186.583 21.2839 186.81 20.8542 187.102 20.5C187.393 20.1406 187.74 19.8672 188.141 19.6797C188.547 19.487 189 19.3906 189.5 19.3906C189.896 19.3906 190.258 19.4479 190.586 19.5625C190.914 19.6771 191.195 19.8594 191.43 20.1094C191.669 20.3594 191.852 20.6901 191.977 21.1016C192.107 21.513 192.172 22.0156 192.172 22.6094V28H189.906V22.6016C189.906 22.2266 189.854 21.9349 189.75 21.7266C189.646 21.5182 189.492 21.3724 189.289 21.2891C189.091 21.2005 188.846 21.1562 188.555 21.1562C188.253 21.1562 187.99 21.2161 187.766 21.3359C187.547 21.4557 187.365 21.6224 187.219 21.8359C187.078 22.0443 186.971 22.2891 186.898 22.5703C186.826 22.8516 186.789 23.1536 186.789 23.4766Z" fill="white"/>
</svg>
