<svg width="342" height="46" viewBox="0 0 342 46" fill="none" xmlns="http://www.w3.org/2000/svg">
<rect width="342" height="46" rx="4" fill="#0560FA"/>
<path d="M142.336 25.0234C142.336 24.8203 142.305 24.638 142.242 24.4766C142.185 24.3099 142.076 24.1589 141.914 24.0234C141.753 23.8828 141.526 23.7448 141.234 23.6094C140.943 23.474 140.565 23.3333 140.102 23.1875C139.586 23.0208 139.096 22.8333 138.633 22.625C138.174 22.4167 137.768 22.1745 137.414 21.8984C137.065 21.6172 136.789 21.2917 136.586 20.9219C136.388 20.5521 136.289 20.1224 136.289 19.6328C136.289 19.1589 136.393 18.7292 136.602 18.3438C136.81 17.9531 137.102 17.6198 137.477 17.3438C137.852 17.0625 138.294 16.8464 138.805 16.6953C139.32 16.5443 139.885 16.4688 140.5 16.4688C141.339 16.4688 142.07 16.6198 142.695 16.9219C143.32 17.224 143.805 17.638 144.148 18.1641C144.497 18.6901 144.672 19.2917 144.672 19.9688H142.344C142.344 19.6354 142.273 19.3438 142.133 19.0938C141.997 18.8385 141.789 18.638 141.508 18.4922C141.232 18.3464 140.883 18.2734 140.461 18.2734C140.055 18.2734 139.716 18.3359 139.445 18.4609C139.174 18.5807 138.971 18.7448 138.836 18.9531C138.701 19.1562 138.633 19.3854 138.633 19.6406C138.633 19.8333 138.68 20.0078 138.773 20.1641C138.872 20.3203 139.018 20.4661 139.211 20.6016C139.404 20.737 139.641 20.8646 139.922 20.9844C140.203 21.1042 140.529 21.2214 140.898 21.3359C141.518 21.5234 142.062 21.7344 142.531 21.9688C143.005 22.2031 143.401 22.4661 143.719 22.7578C144.036 23.0495 144.276 23.3802 144.438 23.75C144.599 24.1198 144.68 24.5391 144.68 25.0078C144.68 25.5026 144.583 25.9453 144.391 26.3359C144.198 26.7266 143.919 27.0573 143.555 27.3281C143.19 27.599 142.755 27.8047 142.25 27.9453C141.745 28.0859 141.18 28.1562 140.555 28.1562C139.992 28.1562 139.438 28.0833 138.891 27.9375C138.344 27.7865 137.846 27.5599 137.398 27.2578C136.956 26.9557 136.602 26.5703 136.336 26.1016C136.07 25.6328 135.938 25.0781 135.938 24.4375H138.289C138.289 24.7917 138.344 25.0911 138.453 25.3359C138.562 25.5807 138.716 25.7786 138.914 25.9297C139.117 26.0807 139.357 26.1901 139.633 26.2578C139.914 26.3255 140.221 26.3594 140.555 26.3594C140.961 26.3594 141.294 26.3021 141.555 26.1875C141.82 26.0729 142.016 25.9141 142.141 25.7109C142.271 25.5078 142.336 25.2786 142.336 25.0234ZM150.023 28.1562C149.367 28.1562 148.779 28.0521 148.258 27.8438C147.737 27.6302 147.294 27.3359 146.93 26.9609C146.57 26.5859 146.294 26.151 146.102 25.6562C145.909 25.1562 145.812 24.625 145.812 24.0625V23.75C145.812 23.1094 145.904 22.5234 146.086 21.9922C146.268 21.4609 146.529 21 146.867 20.6094C147.211 20.2188 147.628 19.9193 148.117 19.7109C148.607 19.4974 149.159 19.3906 149.773 19.3906C150.372 19.3906 150.904 19.4896 151.367 19.6875C151.831 19.8854 152.219 20.1667 152.531 20.5312C152.849 20.8958 153.089 21.3333 153.25 21.8438C153.411 22.349 153.492 22.9115 153.492 23.5312V24.4688H146.773V22.9688H151.281V22.7969C151.281 22.4844 151.224 22.2057 151.109 21.9609C151 21.7109 150.833 21.513 150.609 21.3672C150.385 21.2214 150.099 21.1484 149.75 21.1484C149.453 21.1484 149.198 21.2135 148.984 21.3438C148.771 21.474 148.596 21.6562 148.461 21.8906C148.331 22.125 148.232 22.401 148.164 22.7188C148.102 23.0312 148.07 23.375 148.07 23.75V24.0625C148.07 24.401 148.117 24.7135 148.211 25C148.31 25.2865 148.448 25.5339 148.625 25.7422C148.807 25.9505 149.026 26.112 149.281 26.2266C149.542 26.3411 149.836 26.3984 150.164 26.3984C150.57 26.3984 150.948 26.3203 151.297 26.1641C151.651 26.0026 151.956 25.7604 152.211 25.4375L153.305 26.625C153.128 26.8802 152.885 27.125 152.578 27.3594C152.276 27.5938 151.911 27.7865 151.484 27.9375C151.057 28.0833 150.57 28.1562 150.023 28.1562ZM156.977 21.3516V28H154.727V19.5469H156.836L156.977 21.3516ZM156.648 23.4766H156.039C156.039 22.8516 156.12 22.2891 156.281 21.7891C156.443 21.2839 156.669 20.8542 156.961 20.5C157.253 20.1406 157.599 19.8672 158 19.6797C158.406 19.487 158.859 19.3906 159.359 19.3906C159.755 19.3906 160.117 19.4479 160.445 19.5625C160.773 19.6771 161.055 19.8594 161.289 20.1094C161.529 20.3594 161.711 20.6901 161.836 21.1016C161.966 21.513 162.031 22.0156 162.031 22.6094V28H159.766V22.6016C159.766 22.2266 159.714 21.9349 159.609 21.7266C159.505 21.5182 159.352 21.3724 159.148 21.2891C158.951 21.2005 158.706 21.1562 158.414 21.1562C158.112 21.1562 157.849 21.2161 157.625 21.3359C157.406 21.4557 157.224 21.6224 157.078 21.8359C156.938 22.0443 156.831 22.2891 156.758 22.5703C156.685 22.8516 156.648 23.1536 156.648 23.4766ZM168.734 26.1562V16H171V28H168.961L168.734 26.1562ZM163.391 23.875V23.7109C163.391 23.0651 163.464 22.4792 163.609 21.9531C163.755 21.4219 163.969 20.9661 164.25 20.5859C164.531 20.2057 164.878 19.9115 165.289 19.7031C165.701 19.4948 166.169 19.3906 166.695 19.3906C167.19 19.3906 167.622 19.4948 167.992 19.7031C168.367 19.9115 168.685 20.2083 168.945 20.5938C169.211 20.974 169.424 21.4245 169.586 21.9453C169.747 22.4609 169.865 23.026 169.938 23.6406V24C169.865 24.5885 169.747 25.1354 169.586 25.6406C169.424 26.1458 169.211 26.5885 168.945 26.9688C168.685 27.3438 168.367 27.6354 167.992 27.8438C167.617 28.0521 167.18 28.1562 166.68 28.1562C166.154 28.1562 165.685 28.0495 165.273 27.8359C164.867 27.6224 164.523 27.3229 164.242 26.9375C163.966 26.5521 163.755 26.099 163.609 25.5781C163.464 25.0573 163.391 24.4896 163.391 23.875ZM165.641 23.7109V23.875C165.641 24.224 165.667 24.5495 165.719 24.8516C165.776 25.1536 165.867 25.4219 165.992 25.6562C166.122 25.8854 166.289 26.0651 166.492 26.1953C166.701 26.3203 166.953 26.3828 167.25 26.3828C167.635 26.3828 167.953 26.2969 168.203 26.125C168.453 25.9479 168.643 25.7057 168.773 25.3984C168.909 25.0911 168.987 24.737 169.008 24.3359V23.3125C168.992 22.9844 168.945 22.6901 168.867 22.4297C168.794 22.1641 168.685 21.9375 168.539 21.75C168.398 21.5625 168.221 21.4167 168.008 21.3125C167.799 21.2083 167.552 21.1562 167.266 21.1562C166.974 21.1562 166.724 21.224 166.516 21.3594C166.307 21.4896 166.138 21.6693 166.008 21.8984C165.883 22.1276 165.789 22.3984 165.727 22.7109C165.669 23.0182 165.641 23.3516 165.641 23.7109ZM186.227 22.0469V22.5859C186.227 23.4505 186.109 24.2266 185.875 24.9141C185.641 25.6016 185.31 26.1875 184.883 26.6719C184.456 27.151 183.945 27.5182 183.352 27.7734C182.763 28.0286 182.109 28.1562 181.391 28.1562C180.677 28.1562 180.023 28.0286 179.43 27.7734C178.841 27.5182 178.331 27.151 177.898 26.6719C177.466 26.1875 177.13 25.6016 176.891 24.9141C176.656 24.2266 176.539 23.4505 176.539 22.5859V22.0469C176.539 21.1771 176.656 20.401 176.891 19.7188C177.125 19.0312 177.456 18.4453 177.883 17.9609C178.315 17.4766 178.826 17.1068 179.414 16.8516C180.008 16.5964 180.661 16.4688 181.375 16.4688C182.094 16.4688 182.747 16.5964 183.336 16.8516C183.93 17.1068 184.44 17.4766 184.867 17.9609C185.299 18.4453 185.633 19.0312 185.867 19.7188C186.107 20.401 186.227 21.1771 186.227 22.0469ZM183.859 22.5859V22.0312C183.859 21.4271 183.805 20.8958 183.695 20.4375C183.586 19.9792 183.424 19.5938 183.211 19.2812C182.997 18.9688 182.737 18.7344 182.43 18.5781C182.122 18.4167 181.771 18.3359 181.375 18.3359C180.979 18.3359 180.628 18.4167 180.32 18.5781C180.018 18.7344 179.76 18.9688 179.547 19.2812C179.339 19.5938 179.18 19.9792 179.07 20.4375C178.961 20.8958 178.906 21.4271 178.906 22.0312V22.5859C178.906 23.1849 178.961 23.7161 179.07 24.1797C179.18 24.638 179.341 25.026 179.555 25.3438C179.768 25.6562 180.029 25.8932 180.336 26.0547C180.643 26.2161 180.995 26.2969 181.391 26.2969C181.786 26.2969 182.138 26.2161 182.445 26.0547C182.753 25.8932 183.01 25.6562 183.219 25.3438C183.427 25.026 183.586 24.638 183.695 24.1797C183.805 23.7161 183.859 23.1849 183.859 22.5859ZM192.469 16.625V28H190.133V16.625H192.469ZM195.969 16.625V18.4609H186.688V16.625H195.969ZM201.734 23.9453H198.836V22.1172H201.734C202.182 22.1172 202.547 22.0443 202.828 21.8984C203.109 21.7474 203.315 21.5391 203.445 21.2734C203.576 21.0078 203.641 20.7083 203.641 20.375C203.641 20.0365 203.576 19.7214 203.445 19.4297C203.315 19.138 203.109 18.9036 202.828 18.7266C202.547 18.5495 202.182 18.4609 201.734 18.4609H199.648V28H197.305V16.625H201.734C202.625 16.625 203.388 16.7865 204.023 17.1094C204.664 17.4271 205.154 17.8672 205.492 18.4297C205.831 18.9922 206 19.6354 206 20.3594C206 21.0938 205.831 21.7292 205.492 22.2656C205.154 22.8021 204.664 23.2161 204.023 23.5078C203.388 23.7995 202.625 23.9453 201.734 23.9453Z" fill="white"/>
</svg>
