<svg width="342" height="46" viewBox="0 0 342 46" fill="none" xmlns="http://www.w3.org/2000/svg">
<rect width="342" height="46" rx="4" fill="#A7A7A7"/>
<path d="M110.789 25.0234C110.789 24.8203 110.758 24.638 110.695 24.4766C110.638 24.3099 110.529 24.1589 110.367 24.0234C110.206 23.8828 109.979 23.7448 109.688 23.6094C109.396 23.474 109.018 23.3333 108.555 23.1875C108.039 23.0208 107.549 22.8333 107.086 22.625C106.628 22.4167 106.221 22.1745 105.867 21.8984C105.518 21.6172 105.242 21.2917 105.039 20.9219C104.841 20.5521 104.742 20.1224 104.742 19.6328C104.742 19.1589 104.846 18.7292 105.055 18.3438C105.263 17.9531 105.555 17.6198 105.93 17.3438C106.305 17.0625 106.747 16.8464 107.258 16.6953C107.773 16.5443 108.339 16.4688 108.953 16.4688C109.792 16.4688 110.523 16.6198 111.148 16.9219C111.773 17.224 112.258 17.638 112.602 18.1641C112.951 18.6901 113.125 19.2917 113.125 19.9688H110.797C110.797 19.6354 110.727 19.3438 110.586 19.0938C110.451 18.8385 110.242 18.638 109.961 18.4922C109.685 18.3464 109.336 18.2734 108.914 18.2734C108.508 18.2734 108.169 18.3359 107.898 18.4609C107.628 18.5807 107.424 18.7448 107.289 18.9531C107.154 19.1562 107.086 19.3854 107.086 19.6406C107.086 19.8333 107.133 20.0078 107.227 20.1641C107.326 20.3203 107.471 20.4661 107.664 20.6016C107.857 20.737 108.094 20.8646 108.375 20.9844C108.656 21.1042 108.982 21.2214 109.352 21.3359C109.971 21.5234 110.516 21.7344 110.984 21.9688C111.458 22.2031 111.854 22.4661 112.172 22.7578C112.49 23.0495 112.729 23.3802 112.891 23.75C113.052 24.1198 113.133 24.5391 113.133 25.0078C113.133 25.5026 113.036 25.9453 112.844 26.3359C112.651 26.7266 112.372 27.0573 112.008 27.3281C111.643 27.599 111.208 27.8047 110.703 27.9453C110.198 28.0859 109.633 28.1562 109.008 28.1562C108.445 28.1562 107.891 28.0833 107.344 27.9375C106.797 27.7865 106.299 27.5599 105.852 27.2578C105.409 26.9557 105.055 26.5703 104.789 26.1016C104.523 25.6328 104.391 25.0781 104.391 24.4375H106.742C106.742 24.7917 106.797 25.0911 106.906 25.3359C107.016 25.5807 107.169 25.7786 107.367 25.9297C107.57 26.0807 107.81 26.1901 108.086 26.2578C108.367 26.3255 108.674 26.3594 109.008 26.3594C109.414 26.3594 109.747 26.3021 110.008 26.1875C110.273 26.0729 110.469 25.9141 110.594 25.7109C110.724 25.5078 110.789 25.2786 110.789 25.0234ZM118.477 28.1562C117.82 28.1562 117.232 28.0521 116.711 27.8438C116.19 27.6302 115.747 27.3359 115.383 26.9609C115.023 26.5859 114.747 26.151 114.555 25.6562C114.362 25.1562 114.266 24.625 114.266 24.0625V23.75C114.266 23.1094 114.357 22.5234 114.539 21.9922C114.721 21.4609 114.982 21 115.32 20.6094C115.664 20.2188 116.081 19.9193 116.57 19.7109C117.06 19.4974 117.612 19.3906 118.227 19.3906C118.826 19.3906 119.357 19.4896 119.82 19.6875C120.284 19.8854 120.672 20.1667 120.984 20.5312C121.302 20.8958 121.542 21.3333 121.703 21.8438C121.865 22.349 121.945 22.9115 121.945 23.5312V24.4688H115.227V22.9688H119.734V22.7969C119.734 22.4844 119.677 22.2057 119.562 21.9609C119.453 21.7109 119.286 21.513 119.062 21.3672C118.839 21.2214 118.552 21.1484 118.203 21.1484C117.906 21.1484 117.651 21.2135 117.438 21.3438C117.224 21.474 117.049 21.6562 116.914 21.8906C116.784 22.125 116.685 22.401 116.617 22.7188C116.555 23.0312 116.523 23.375 116.523 23.75V24.0625C116.523 24.401 116.57 24.7135 116.664 25C116.763 25.2865 116.901 25.5339 117.078 25.7422C117.26 25.9505 117.479 26.112 117.734 26.2266C117.995 26.3411 118.289 26.3984 118.617 26.3984C119.023 26.3984 119.401 26.3203 119.75 26.1641C120.104 26.0026 120.409 25.7604 120.664 25.4375L121.758 26.625C121.581 26.8802 121.339 27.125 121.031 27.3594C120.729 27.5938 120.365 27.7865 119.938 27.9375C119.51 28.0833 119.023 28.1562 118.477 28.1562ZM127.367 19.5469V21.1406H122.445V19.5469H127.367ZM123.664 17.4609H125.914V25.4531C125.914 25.6979 125.945 25.8854 126.008 26.0156C126.076 26.1458 126.174 26.237 126.305 26.2891C126.435 26.3359 126.599 26.3594 126.797 26.3594C126.938 26.3594 127.062 26.3542 127.172 26.3438C127.286 26.3281 127.383 26.3125 127.461 26.2969L127.469 27.9531C127.276 28.0156 127.068 28.0651 126.844 28.1016C126.62 28.138 126.372 28.1562 126.102 28.1562C125.607 28.1562 125.174 28.0755 124.805 27.9141C124.44 27.7474 124.159 27.4818 123.961 27.1172C123.763 26.7526 123.664 26.2734 123.664 25.6797V17.4609ZM142.031 16.625V28H139.688L135.117 20.375V28H132.773V16.625H135.117L139.695 24.2578V16.625H142.031ZM147.82 28.1562C147.164 28.1562 146.576 28.0521 146.055 27.8438C145.534 27.6302 145.091 27.3359 144.727 26.9609C144.367 26.5859 144.091 26.151 143.898 25.6562C143.706 25.1562 143.609 24.625 143.609 24.0625V23.75C143.609 23.1094 143.701 22.5234 143.883 21.9922C144.065 21.4609 144.326 21 144.664 20.6094C145.008 20.2188 145.424 19.9193 145.914 19.7109C146.404 19.4974 146.956 19.3906 147.57 19.3906C148.169 19.3906 148.701 19.4896 149.164 19.6875C149.628 19.8854 150.016 20.1667 150.328 20.5312C150.646 20.8958 150.885 21.3333 151.047 21.8438C151.208 22.349 151.289 22.9115 151.289 23.5312V24.4688H144.57V22.9688H149.078V22.7969C149.078 22.4844 149.021 22.2057 148.906 21.9609C148.797 21.7109 148.63 21.513 148.406 21.3672C148.182 21.2214 147.896 21.1484 147.547 21.1484C147.25 21.1484 146.995 21.2135 146.781 21.3438C146.568 21.474 146.393 21.6562 146.258 21.8906C146.128 22.125 146.029 22.401 145.961 22.7188C145.898 23.0312 145.867 23.375 145.867 23.75V24.0625C145.867 24.401 145.914 24.7135 146.008 25C146.107 25.2865 146.245 25.5339 146.422 25.7422C146.604 25.9505 146.823 26.112 147.078 26.2266C147.339 26.3411 147.633 26.3984 147.961 26.3984C148.367 26.3984 148.745 26.3203 149.094 26.1641C149.448 26.0026 149.753 25.7604 150.008 25.4375L151.102 26.625C150.924 26.8802 150.682 27.125 150.375 27.3594C150.073 27.5938 149.708 27.7865 149.281 27.9375C148.854 28.0833 148.367 28.1562 147.82 28.1562ZM154.984 25.8125L156.742 19.5469H158.172L157.711 22.0078L155.953 28H154.758L154.984 25.8125ZM154.094 19.5469L155.352 25.8047L155.469 28H154.062L151.922 19.5469H154.094ZM159.781 25.7031L161.008 19.5469H163.188L161.047 28H159.648L159.781 25.7031ZM158.367 19.5469L160.117 25.7656L160.359 28H159.156L157.398 22.0156L156.953 19.5469H158.367ZM172.875 23.9453H169.977V22.1172H172.875C173.323 22.1172 173.688 22.0443 173.969 21.8984C174.25 21.7474 174.456 21.5391 174.586 21.2734C174.716 21.0078 174.781 20.7083 174.781 20.375C174.781 20.0365 174.716 19.7214 174.586 19.4297C174.456 19.138 174.25 18.9036 173.969 18.7266C173.688 18.5495 173.323 18.4609 172.875 18.4609H170.789V28H168.445V16.625H172.875C173.766 16.625 174.529 16.7865 175.164 17.1094C175.805 17.4271 176.294 17.8672 176.633 18.4297C176.971 18.9922 177.141 19.6354 177.141 20.3594C177.141 21.0938 176.971 21.7292 176.633 22.2656C176.294 22.8021 175.805 23.2161 175.164 23.5078C174.529 23.7995 173.766 23.9453 172.875 23.9453ZM183.086 26.0938V22.3281C183.086 22.0573 183.042 21.8255 182.953 21.6328C182.865 21.4349 182.727 21.2812 182.539 21.1719C182.357 21.0625 182.12 21.0078 181.828 21.0078C181.578 21.0078 181.362 21.0521 181.18 21.1406C180.997 21.224 180.857 21.3464 180.758 21.5078C180.659 21.6641 180.609 21.849 180.609 22.0625H178.359C178.359 21.7031 178.443 21.362 178.609 21.0391C178.776 20.7161 179.018 20.4323 179.336 20.1875C179.654 19.9375 180.031 19.7422 180.469 19.6016C180.911 19.4609 181.406 19.3906 181.953 19.3906C182.609 19.3906 183.193 19.5 183.703 19.7188C184.214 19.9375 184.615 20.2656 184.906 20.7031C185.203 21.1406 185.352 21.6875 185.352 22.3438V25.9609C185.352 26.4245 185.38 26.8047 185.438 27.1016C185.495 27.3932 185.578 27.6484 185.688 27.8672V28H183.414C183.305 27.7708 183.221 27.4844 183.164 27.1406C183.112 26.7917 183.086 26.4427 183.086 26.0938ZM183.383 22.8516L183.398 24.125H182.141C181.844 24.125 181.586 24.1589 181.367 24.2266C181.148 24.2943 180.969 24.3906 180.828 24.5156C180.688 24.6354 180.583 24.776 180.516 24.9375C180.453 25.099 180.422 25.276 180.422 25.4688C180.422 25.6615 180.466 25.8359 180.555 25.9922C180.643 26.1432 180.771 26.263 180.938 26.3516C181.104 26.4349 181.299 26.4766 181.523 26.4766C181.862 26.4766 182.156 26.4089 182.406 26.2734C182.656 26.138 182.849 25.9714 182.984 25.7734C183.125 25.5755 183.198 25.388 183.203 25.2109L183.797 26.1641C183.714 26.3776 183.599 26.599 183.453 26.8281C183.312 27.0573 183.133 27.2734 182.914 27.4766C182.695 27.6745 182.432 27.8385 182.125 27.9688C181.818 28.0938 181.453 28.1562 181.031 28.1562C180.495 28.1562 180.008 28.0495 179.57 27.8359C179.138 27.6172 178.794 27.3177 178.539 26.9375C178.289 26.5521 178.164 26.1146 178.164 25.625C178.164 25.1823 178.247 24.7891 178.414 24.4453C178.581 24.1016 178.826 23.8125 179.148 23.5781C179.477 23.3385 179.885 23.1589 180.375 23.0391C180.865 22.9141 181.432 22.8516 182.078 22.8516H183.383ZM191.656 25.6641C191.656 25.5026 191.609 25.3568 191.516 25.2266C191.422 25.0964 191.247 24.9766 190.992 24.8672C190.742 24.7526 190.38 24.6484 189.906 24.5547C189.479 24.4609 189.081 24.3438 188.711 24.2031C188.346 24.0573 188.029 23.8828 187.758 23.6797C187.492 23.4766 187.284 23.237 187.133 22.9609C186.982 22.6797 186.906 22.3594 186.906 22C186.906 21.6458 186.982 21.3125 187.133 21C187.289 20.6875 187.51 20.4115 187.797 20.1719C188.089 19.9271 188.443 19.737 188.859 19.6016C189.281 19.4609 189.755 19.3906 190.281 19.3906C191.016 19.3906 191.646 19.5078 192.172 19.7422C192.703 19.9766 193.109 20.2995 193.391 20.7109C193.677 21.1172 193.82 21.5807 193.82 22.1016H191.57C191.57 21.8828 191.523 21.6875 191.43 21.5156C191.341 21.3385 191.201 21.2005 191.008 21.1016C190.82 20.9974 190.576 20.9453 190.273 20.9453C190.023 20.9453 189.807 20.9896 189.625 21.0781C189.443 21.1615 189.302 21.276 189.203 21.4219C189.109 21.5625 189.062 21.7188 189.062 21.8906C189.062 22.0208 189.089 22.138 189.141 22.2422C189.198 22.3411 189.289 22.4323 189.414 22.5156C189.539 22.599 189.701 22.6771 189.898 22.75C190.102 22.8177 190.352 22.8802 190.648 22.9375C191.258 23.0625 191.802 23.2266 192.281 23.4297C192.76 23.6276 193.141 23.8984 193.422 24.2422C193.703 24.5807 193.844 25.026 193.844 25.5781C193.844 25.9531 193.76 26.2969 193.594 26.6094C193.427 26.9219 193.188 27.1953 192.875 27.4297C192.562 27.6589 192.188 27.8385 191.75 27.9688C191.318 28.0938 190.831 28.1562 190.289 28.1562C189.503 28.1562 188.836 28.0156 188.289 27.7344C187.747 27.4531 187.336 27.0964 187.055 26.6641C186.779 26.2266 186.641 25.7786 186.641 25.3203H188.773C188.784 25.6276 188.862 25.875 189.008 26.0625C189.159 26.25 189.349 26.3854 189.578 26.4688C189.812 26.5521 190.065 26.5938 190.336 26.5938C190.628 26.5938 190.87 26.5547 191.062 26.4766C191.255 26.3932 191.401 26.2839 191.5 26.1484C191.604 26.0078 191.656 25.8464 191.656 25.6641ZM199.875 25.6641C199.875 25.5026 199.828 25.3568 199.734 25.2266C199.641 25.0964 199.466 24.9766 199.211 24.8672C198.961 24.7526 198.599 24.6484 198.125 24.5547C197.698 24.4609 197.299 24.3438 196.93 24.2031C196.565 24.0573 196.247 23.8828 195.977 23.6797C195.711 23.4766 195.503 23.237 195.352 22.9609C195.201 22.6797 195.125 22.3594 195.125 22C195.125 21.6458 195.201 21.3125 195.352 21C195.508 20.6875 195.729 20.4115 196.016 20.1719C196.307 19.9271 196.661 19.737 197.078 19.6016C197.5 19.4609 197.974 19.3906 198.5 19.3906C199.234 19.3906 199.865 19.5078 200.391 19.7422C200.922 19.9766 201.328 20.2995 201.609 20.7109C201.896 21.1172 202.039 21.5807 202.039 22.1016H199.789C199.789 21.8828 199.742 21.6875 199.648 21.5156C199.56 21.3385 199.419 21.2005 199.227 21.1016C199.039 20.9974 198.794 20.9453 198.492 20.9453C198.242 20.9453 198.026 20.9896 197.844 21.0781C197.661 21.1615 197.521 21.276 197.422 21.4219C197.328 21.5625 197.281 21.7188 197.281 21.8906C197.281 22.0208 197.307 22.138 197.359 22.2422C197.417 22.3411 197.508 22.4323 197.633 22.5156C197.758 22.599 197.919 22.6771 198.117 22.75C198.32 22.8177 198.57 22.8802 198.867 22.9375C199.477 23.0625 200.021 23.2266 200.5 23.4297C200.979 23.6276 201.359 23.8984 201.641 24.2422C201.922 24.5807 202.062 25.026 202.062 25.5781C202.062 25.9531 201.979 26.2969 201.812 26.6094C201.646 26.9219 201.406 27.1953 201.094 27.4297C200.781 27.6589 200.406 27.8385 199.969 27.9688C199.536 28.0938 199.049 28.1562 198.508 28.1562C197.721 28.1562 197.055 28.0156 196.508 27.7344C195.966 27.4531 195.555 27.0964 195.273 26.6641C194.997 26.2266 194.859 25.7786 194.859 25.3203H196.992C197.003 25.6276 197.081 25.875 197.227 26.0625C197.378 26.25 197.568 26.3854 197.797 26.4688C198.031 26.5521 198.284 26.5938 198.555 26.5938C198.846 26.5938 199.089 26.5547 199.281 26.4766C199.474 26.3932 199.62 26.2839 199.719 26.1484C199.823 26.0078 199.875 25.8464 199.875 25.6641ZM205.938 25.8125L207.695 19.5469H209.125L208.664 22.0078L206.906 28H205.711L205.938 25.8125ZM205.047 19.5469L206.305 25.8047L206.422 28H205.016L202.875 19.5469H205.047ZM210.734 25.7031L211.961 19.5469H214.141L212 28H210.602L210.734 25.7031ZM209.32 19.5469L211.07 25.7656L211.312 28H210.109L208.352 22.0156L207.906 19.5469H209.32ZM214.914 23.8594V23.6953C214.914 23.0755 215.003 22.5052 215.18 21.9844C215.357 21.4583 215.615 21.0026 215.953 20.6172C216.292 20.2318 216.708 19.9323 217.203 19.7188C217.698 19.5 218.266 19.3906 218.906 19.3906C219.547 19.3906 220.117 19.5 220.617 19.7188C221.117 19.9323 221.536 20.2318 221.875 20.6172C222.219 21.0026 222.479 21.4583 222.656 21.9844C222.833 22.5052 222.922 23.0755 222.922 23.6953V23.8594C222.922 24.474 222.833 25.0443 222.656 25.5703C222.479 26.0911 222.219 26.5469 221.875 26.9375C221.536 27.3229 221.12 27.6224 220.625 27.8359C220.13 28.0495 219.562 28.1562 218.922 28.1562C218.281 28.1562 217.711 28.0495 217.211 27.8359C216.716 27.6224 216.297 27.3229 215.953 26.9375C215.615 26.5469 215.357 26.0911 215.18 25.5703C215.003 25.0443 214.914 24.474 214.914 23.8594ZM217.164 23.6953V23.8594C217.164 24.2135 217.195 24.5443 217.258 24.8516C217.32 25.1589 217.419 25.4297 217.555 25.6641C217.695 25.8932 217.878 26.0729 218.102 26.2031C218.326 26.3333 218.599 26.3984 218.922 26.3984C219.234 26.3984 219.503 26.3333 219.727 26.2031C219.951 26.0729 220.13 25.8932 220.266 25.6641C220.401 25.4297 220.5 25.1589 220.562 24.8516C220.63 24.5443 220.664 24.2135 220.664 23.8594V23.6953C220.664 23.3516 220.63 23.0286 220.562 22.7266C220.5 22.4193 220.398 22.1484 220.258 21.9141C220.122 21.6745 219.943 21.487 219.719 21.3516C219.495 21.2161 219.224 21.1484 218.906 21.1484C218.589 21.1484 218.318 21.2161 218.094 21.3516C217.875 21.487 217.695 21.6745 217.555 21.9141C217.419 22.1484 217.32 22.4193 217.258 22.7266C217.195 23.0286 217.164 23.3516 217.164 23.6953ZM226.555 21.3906V28H224.305V19.5469H226.422L226.555 21.3906ZM229.102 19.4922L229.062 21.5781C228.953 21.5625 228.82 21.5495 228.664 21.5391C228.513 21.5234 228.375 21.5156 228.25 21.5156C227.932 21.5156 227.656 21.5573 227.422 21.6406C227.193 21.7188 227 21.8359 226.844 21.9922C226.693 22.1484 226.578 22.3385 226.5 22.5625C226.427 22.7865 226.385 23.0417 226.375 23.3281L225.922 23.1875C225.922 22.6406 225.977 22.138 226.086 21.6797C226.195 21.2161 226.354 20.8125 226.562 20.4688C226.776 20.125 227.036 19.8594 227.344 19.6719C227.651 19.4844 228.003 19.3906 228.398 19.3906C228.523 19.3906 228.651 19.401 228.781 19.4219C228.911 19.4375 229.018 19.4609 229.102 19.4922ZM235 26.1562V16H237.266V28H235.227L235 26.1562ZM229.656 23.875V23.7109C229.656 23.0651 229.729 22.4792 229.875 21.9531C230.021 21.4219 230.234 20.9661 230.516 20.5859C230.797 20.2057 231.143 19.9115 231.555 19.7031C231.966 19.4948 232.435 19.3906 232.961 19.3906C233.456 19.3906 233.888 19.4948 234.258 19.7031C234.633 19.9115 234.951 20.2083 235.211 20.5938C235.477 20.974 235.69 21.4245 235.852 21.9453C236.013 22.4609 236.13 23.026 236.203 23.6406V24C236.13 24.5885 236.013 25.1354 235.852 25.6406C235.69 26.1458 235.477 26.5885 235.211 26.9688C234.951 27.3438 234.633 27.6354 234.258 27.8438C233.883 28.0521 233.445 28.1562 232.945 28.1562C232.419 28.1562 231.951 28.0495 231.539 27.8359C231.133 27.6224 230.789 27.3229 230.508 26.9375C230.232 26.5521 230.021 26.099 229.875 25.5781C229.729 25.0573 229.656 24.4896 229.656 23.875ZM231.906 23.7109V23.875C231.906 24.224 231.932 24.5495 231.984 24.8516C232.042 25.1536 232.133 25.4219 232.258 25.6562C232.388 25.8854 232.555 26.0651 232.758 26.1953C232.966 26.3203 233.219 26.3828 233.516 26.3828C233.901 26.3828 234.219 26.2969 234.469 26.125C234.719 25.9479 234.909 25.7057 235.039 25.3984C235.174 25.0911 235.253 24.737 235.273 24.3359V23.3125C235.258 22.9844 235.211 22.6901 235.133 22.4297C235.06 22.1641 234.951 21.9375 234.805 21.75C234.664 21.5625 234.487 21.4167 234.273 21.3125C234.065 21.2083 233.818 21.1562 233.531 21.1562C233.24 21.1562 232.99 21.224 232.781 21.3594C232.573 21.4896 232.404 21.6693 232.273 21.8984C232.148 22.1276 232.055 22.3984 231.992 22.7109C231.935 23.0182 231.906 23.3516 231.906 23.7109Z" fill="white"/>
</svg>
