<svg width="342" height="46" viewBox="0 0 342 46" fill="none" xmlns="http://www.w3.org/2000/svg">
<rect width="342" height="46" rx="4" fill="#0560FA"/>
<path d="M150.07 25.0234C150.07 24.8203 150.039 24.638 149.977 24.4766C149.919 24.3099 149.81 24.1589 149.648 24.0234C149.487 23.8828 149.26 23.7448 148.969 23.6094C148.677 23.474 148.299 23.3333 147.836 23.1875C147.32 23.0208 146.831 22.8333 146.367 22.625C145.909 22.4167 145.503 22.1745 145.148 21.8984C144.799 21.6172 144.523 21.2917 144.32 20.9219C144.122 20.5521 144.023 20.1224 144.023 19.6328C144.023 19.1589 144.128 18.7292 144.336 18.3438C144.544 17.9531 144.836 17.6198 145.211 17.3438C145.586 17.0625 146.029 16.8464 146.539 16.6953C147.055 16.5443 147.62 16.4688 148.234 16.4688C149.073 16.4688 149.805 16.6198 150.43 16.9219C151.055 17.224 151.539 17.638 151.883 18.1641C152.232 18.6901 152.406 19.2917 152.406 19.9688H150.078C150.078 19.6354 150.008 19.3438 149.867 19.0938C149.732 18.8385 149.523 18.638 149.242 18.4922C148.966 18.3464 148.617 18.2734 148.195 18.2734C147.789 18.2734 147.451 18.3359 147.18 18.4609C146.909 18.5807 146.706 18.7448 146.57 18.9531C146.435 19.1562 146.367 19.3854 146.367 19.6406C146.367 19.8333 146.414 20.0078 146.508 20.1641C146.607 20.3203 146.753 20.4661 146.945 20.6016C147.138 20.737 147.375 20.8646 147.656 20.9844C147.938 21.1042 148.263 21.2214 148.633 21.3359C149.253 21.5234 149.797 21.7344 150.266 21.9688C150.74 22.2031 151.135 22.4661 151.453 22.7578C151.771 23.0495 152.01 23.3802 152.172 23.75C152.333 24.1198 152.414 24.5391 152.414 25.0078C152.414 25.5026 152.318 25.9453 152.125 26.3359C151.932 26.7266 151.654 27.0573 151.289 27.3281C150.924 27.599 150.49 27.8047 149.984 27.9453C149.479 28.0859 148.914 28.1562 148.289 28.1562C147.727 28.1562 147.172 28.0833 146.625 27.9375C146.078 27.7865 145.581 27.5599 145.133 27.2578C144.69 26.9557 144.336 26.5703 144.07 26.1016C143.805 25.6328 143.672 25.0781 143.672 24.4375H146.023C146.023 24.7917 146.078 25.0911 146.188 25.3359C146.297 25.5807 146.451 25.7786 146.648 25.9297C146.852 26.0807 147.091 26.1901 147.367 26.2578C147.648 26.3255 147.956 26.3594 148.289 26.3594C148.695 26.3594 149.029 26.3021 149.289 26.1875C149.555 26.0729 149.75 25.9141 149.875 25.7109C150.005 25.5078 150.07 25.2786 150.07 25.0234ZM156.242 19.5469V28H153.984V19.5469H156.242ZM153.844 17.3438C153.844 17.0156 153.958 16.7448 154.188 16.5312C154.417 16.3177 154.724 16.2109 155.109 16.2109C155.49 16.2109 155.794 16.3177 156.023 16.5312C156.258 16.7448 156.375 17.0156 156.375 17.3438C156.375 17.6719 156.258 17.9427 156.023 18.1562C155.794 18.3698 155.49 18.4766 155.109 18.4766C154.724 18.4766 154.417 18.3698 154.188 18.1562C153.958 17.9427 153.844 17.6719 153.844 17.3438ZM163.453 19.5469H165.492V27.7188C165.492 28.4896 165.32 29.1432 164.977 29.6797C164.638 30.2214 164.164 30.6302 163.555 30.9062C162.945 31.1875 162.237 31.3281 161.43 31.3281C161.076 31.3281 160.701 31.2812 160.305 31.1875C159.914 31.0938 159.539 30.9479 159.18 30.75C158.826 30.5521 158.529 30.3021 158.289 30L159.281 28.6719C159.542 28.974 159.844 29.2083 160.188 29.375C160.531 29.5469 160.911 29.6328 161.328 29.6328C161.734 29.6328 162.078 29.5573 162.359 29.4062C162.641 29.2604 162.857 29.0443 163.008 28.7578C163.159 28.4766 163.234 28.1354 163.234 27.7344V21.5L163.453 19.5469ZM157.766 23.875V23.7109C157.766 23.0651 157.844 22.4792 158 21.9531C158.161 21.4219 158.388 20.9661 158.68 20.5859C158.977 20.2057 159.336 19.9115 159.758 19.7031C160.18 19.4948 160.656 19.3906 161.188 19.3906C161.75 19.3906 162.221 19.4948 162.602 19.7031C162.982 19.9115 163.294 20.2083 163.539 20.5938C163.784 20.974 163.974 21.4245 164.109 21.9453C164.25 22.4609 164.359 23.026 164.438 23.6406V24C164.359 24.5885 164.242 25.1354 164.086 25.6406C163.93 26.1458 163.724 26.5885 163.469 26.9688C163.214 27.3438 162.896 27.6354 162.516 27.8438C162.141 28.0521 161.693 28.1562 161.172 28.1562C160.651 28.1562 160.18 28.0495 159.758 27.8359C159.341 27.6224 158.984 27.3229 158.688 26.9375C158.391 26.5521 158.161 26.099 158 25.5781C157.844 25.0573 157.766 24.4896 157.766 23.875ZM160.016 23.7109V23.875C160.016 24.224 160.049 24.5495 160.117 24.8516C160.185 25.1536 160.289 25.4219 160.43 25.6562C160.576 25.8854 160.755 26.0651 160.969 26.1953C161.188 26.3203 161.445 26.3828 161.742 26.3828C162.154 26.3828 162.49 26.2969 162.75 26.125C163.01 25.9479 163.206 25.7057 163.336 25.3984C163.466 25.0911 163.542 24.737 163.562 24.3359V23.3125C163.552 22.9844 163.508 22.6901 163.43 22.4297C163.352 22.1641 163.242 21.9375 163.102 21.75C162.961 21.5625 162.779 21.4167 162.555 21.3125C162.331 21.2083 162.065 21.1562 161.758 21.1562C161.461 21.1562 161.203 21.224 160.984 21.3594C160.771 21.4896 160.591 21.6693 160.445 21.8984C160.305 22.1276 160.198 22.3984 160.125 22.7109C160.052 23.0182 160.016 23.3516 160.016 23.7109ZM169.445 21.3516V28H167.195V19.5469H169.305L169.445 21.3516ZM169.117 23.4766H168.508C168.508 22.8516 168.589 22.2891 168.75 21.7891C168.911 21.2839 169.138 20.8542 169.43 20.5C169.721 20.1406 170.068 19.8672 170.469 19.6797C170.875 19.487 171.328 19.3906 171.828 19.3906C172.224 19.3906 172.586 19.4479 172.914 19.5625C173.242 19.6771 173.523 19.8594 173.758 20.1094C173.997 20.3594 174.18 20.6901 174.305 21.1016C174.435 21.513 174.5 22.0156 174.5 22.6094V28H172.234V22.6016C172.234 22.2266 172.182 21.9349 172.078 21.7266C171.974 21.5182 171.82 21.3724 171.617 21.2891C171.419 21.2005 171.174 21.1562 170.883 21.1562C170.581 21.1562 170.318 21.2161 170.094 21.3359C169.875 21.4557 169.693 21.6224 169.547 21.8359C169.406 22.0443 169.299 22.2891 169.227 22.5703C169.154 22.8516 169.117 23.1536 169.117 23.4766ZM186.617 16.625H188.953V24.1406C188.953 25.0156 188.766 25.7526 188.391 26.3516C188.021 26.9505 187.508 27.401 186.852 27.7031C186.201 28.0052 185.451 28.1562 184.602 28.1562C183.753 28.1562 182.997 28.0052 182.336 27.7031C181.68 27.401 181.164 26.9505 180.789 26.3516C180.419 25.7526 180.234 25.0156 180.234 24.1406V16.625H182.578V24.1406C182.578 24.651 182.659 25.0677 182.82 25.3906C182.982 25.7135 183.214 25.9505 183.516 26.1016C183.823 26.2526 184.185 26.3281 184.602 26.3281C185.029 26.3281 185.391 26.2526 185.688 26.1016C185.99 25.9505 186.219 25.7135 186.375 25.3906C186.536 25.0677 186.617 24.651 186.617 24.1406V16.625ZM192.992 21.1719V31.25H190.742V19.5469H192.828L192.992 21.1719ZM198.344 23.6797V23.8438C198.344 24.4583 198.271 25.0286 198.125 25.5547C197.984 26.0807 197.776 26.5391 197.5 26.9297C197.224 27.3151 196.88 27.6172 196.469 27.8359C196.062 28.0495 195.594 28.1562 195.062 28.1562C194.547 28.1562 194.099 28.0521 193.719 27.8438C193.339 27.6354 193.018 27.3438 192.758 26.9688C192.503 26.5885 192.297 26.1484 192.141 25.6484C191.984 25.1484 191.865 24.612 191.781 24.0391V23.6094C191.865 22.9948 191.984 22.4323 192.141 21.9219C192.297 21.4062 192.503 20.9609 192.758 20.5859C193.018 20.2057 193.336 19.9115 193.711 19.7031C194.091 19.4948 194.536 19.3906 195.047 19.3906C195.583 19.3906 196.055 19.4922 196.461 19.6953C196.872 19.8984 197.216 20.1901 197.492 20.5703C197.773 20.9505 197.984 21.4036 198.125 21.9297C198.271 22.4557 198.344 23.0391 198.344 23.6797ZM196.086 23.8438V23.6797C196.086 23.3203 196.055 22.9896 195.992 22.6875C195.935 22.3802 195.841 22.112 195.711 21.8828C195.586 21.6536 195.419 21.4766 195.211 21.3516C195.008 21.2214 194.76 21.1562 194.469 21.1562C194.161 21.1562 193.898 21.2057 193.68 21.3047C193.466 21.4036 193.292 21.5469 193.156 21.7344C193.021 21.9219 192.919 22.1458 192.852 22.4062C192.784 22.6667 192.742 22.9609 192.727 23.2891V24.375C192.753 24.7604 192.826 25.1068 192.945 25.4141C193.065 25.7161 193.25 25.9557 193.5 26.1328C193.75 26.3099 194.078 26.3984 194.484 26.3984C194.781 26.3984 195.031 26.3333 195.234 26.2031C195.438 26.0677 195.602 25.8828 195.727 25.6484C195.857 25.4141 195.948 25.1432 196 24.8359C196.057 24.5286 196.086 24.1979 196.086 23.8438Z" fill="white"/>
</svg>
