<svg width="342" height="46" viewBox="0 0 342 46" fill="none" xmlns="http://www.w3.org/2000/svg">
<rect width="342" height="46" rx="4" fill="#A7A7A7"/>
<path d="M149.938 25.0234C149.938 24.8203 149.906 24.638 149.844 24.4766C149.786 24.3099 149.677 24.1589 149.516 24.0234C149.354 23.8828 149.128 23.7448 148.836 23.6094C148.544 23.474 148.167 23.3333 147.703 23.1875C147.188 23.0208 146.698 22.8333 146.234 22.625C145.776 22.4167 145.37 22.1745 145.016 21.8984C144.667 21.6172 144.391 21.2917 144.188 20.9219C143.99 20.5521 143.891 20.1224 143.891 19.6328C143.891 19.1589 143.995 18.7292 144.203 18.3438C144.411 17.9531 144.703 17.6198 145.078 17.3438C145.453 17.0625 145.896 16.8464 146.406 16.6953C146.922 16.5443 147.487 16.4688 148.102 16.4688C148.94 16.4688 149.672 16.6198 150.297 16.9219C150.922 17.224 151.406 17.638 151.75 18.1641C152.099 18.6901 152.273 19.2917 152.273 19.9688H149.945C149.945 19.6354 149.875 19.3438 149.734 19.0938C149.599 18.8385 149.391 18.638 149.109 18.4922C148.833 18.3464 148.484 18.2734 148.062 18.2734C147.656 18.2734 147.318 18.3359 147.047 18.4609C146.776 18.5807 146.573 18.7448 146.438 18.9531C146.302 19.1562 146.234 19.3854 146.234 19.6406C146.234 19.8333 146.281 20.0078 146.375 20.1641C146.474 20.3203 146.62 20.4661 146.812 20.6016C147.005 20.737 147.242 20.8646 147.523 20.9844C147.805 21.1042 148.13 21.2214 148.5 21.3359C149.12 21.5234 149.664 21.7344 150.133 21.9688C150.607 22.2031 151.003 22.4661 151.32 22.7578C151.638 23.0495 151.878 23.3802 152.039 23.75C152.201 24.1198 152.281 24.5391 152.281 25.0078C152.281 25.5026 152.185 25.9453 151.992 26.3359C151.799 26.7266 151.521 27.0573 151.156 27.3281C150.792 27.599 150.357 27.8047 149.852 27.9453C149.346 28.0859 148.781 28.1562 148.156 28.1562C147.594 28.1562 147.039 28.0833 146.492 27.9375C145.945 27.7865 145.448 27.5599 145 27.2578C144.557 26.9557 144.203 26.5703 143.938 26.1016C143.672 25.6328 143.539 25.0781 143.539 24.4375H145.891C145.891 24.7917 145.945 25.0911 146.055 25.3359C146.164 25.5807 146.318 25.7786 146.516 25.9297C146.719 26.0807 146.958 26.1901 147.234 26.2578C147.516 26.3255 147.823 26.3594 148.156 26.3594C148.562 26.3594 148.896 26.3021 149.156 26.1875C149.422 26.0729 149.617 25.9141 149.742 25.7109C149.872 25.5078 149.938 25.2786 149.938 25.0234ZM156.109 19.5469V28H153.852V19.5469H156.109ZM153.711 17.3438C153.711 17.0156 153.826 16.7448 154.055 16.5312C154.284 16.3177 154.591 16.2109 154.977 16.2109C155.357 16.2109 155.661 16.3177 155.891 16.5312C156.125 16.7448 156.242 17.0156 156.242 17.3438C156.242 17.6719 156.125 17.9427 155.891 18.1562C155.661 18.3698 155.357 18.4766 154.977 18.4766C154.591 18.4766 154.284 18.3698 154.055 18.1562C153.826 17.9427 153.711 17.6719 153.711 17.3438ZM163.32 19.5469H165.359V27.7188C165.359 28.4896 165.188 29.1432 164.844 29.6797C164.505 30.2214 164.031 30.6302 163.422 30.9062C162.812 31.1875 162.104 31.3281 161.297 31.3281C160.943 31.3281 160.568 31.2812 160.172 31.1875C159.781 31.0938 159.406 30.9479 159.047 30.75C158.693 30.5521 158.396 30.3021 158.156 30L159.148 28.6719C159.409 28.974 159.711 29.2083 160.055 29.375C160.398 29.5469 160.779 29.6328 161.195 29.6328C161.602 29.6328 161.945 29.5573 162.227 29.4062C162.508 29.2604 162.724 29.0443 162.875 28.7578C163.026 28.4766 163.102 28.1354 163.102 27.7344V21.5L163.32 19.5469ZM157.633 23.875V23.7109C157.633 23.0651 157.711 22.4792 157.867 21.9531C158.029 21.4219 158.255 20.9661 158.547 20.5859C158.844 20.2057 159.203 19.9115 159.625 19.7031C160.047 19.4948 160.523 19.3906 161.055 19.3906C161.617 19.3906 162.089 19.4948 162.469 19.7031C162.849 19.9115 163.161 20.2083 163.406 20.5938C163.651 20.974 163.841 21.4245 163.977 21.9453C164.117 22.4609 164.227 23.026 164.305 23.6406V24C164.227 24.5885 164.109 25.1354 163.953 25.6406C163.797 26.1458 163.591 26.5885 163.336 26.9688C163.081 27.3438 162.763 27.6354 162.383 27.8438C162.008 28.0521 161.56 28.1562 161.039 28.1562C160.518 28.1562 160.047 28.0495 159.625 27.8359C159.208 27.6224 158.852 27.3229 158.555 26.9375C158.258 26.5521 158.029 26.099 157.867 25.5781C157.711 25.0573 157.633 24.4896 157.633 23.875ZM159.883 23.7109V23.875C159.883 24.224 159.917 24.5495 159.984 24.8516C160.052 25.1536 160.156 25.4219 160.297 25.6562C160.443 25.8854 160.622 26.0651 160.836 26.1953C161.055 26.3203 161.312 26.3828 161.609 26.3828C162.021 26.3828 162.357 26.2969 162.617 26.125C162.878 25.9479 163.073 25.7057 163.203 25.3984C163.333 25.0911 163.409 24.737 163.43 24.3359V23.3125C163.419 22.9844 163.375 22.6901 163.297 22.4297C163.219 22.1641 163.109 21.9375 162.969 21.75C162.828 21.5625 162.646 21.4167 162.422 21.3125C162.198 21.2083 161.932 21.1562 161.625 21.1562C161.328 21.1562 161.07 21.224 160.852 21.3594C160.638 21.4896 160.458 21.6693 160.312 21.8984C160.172 22.1276 160.065 22.3984 159.992 22.7109C159.919 23.0182 159.883 23.3516 159.883 23.7109ZM169.312 21.3516V28H167.062V19.5469H169.172L169.312 21.3516ZM168.984 23.4766H168.375C168.375 22.8516 168.456 22.2891 168.617 21.7891C168.779 21.2839 169.005 20.8542 169.297 20.5C169.589 20.1406 169.935 19.8672 170.336 19.6797C170.742 19.487 171.195 19.3906 171.695 19.3906C172.091 19.3906 172.453 19.4479 172.781 19.5625C173.109 19.6771 173.391 19.8594 173.625 20.1094C173.865 20.3594 174.047 20.6901 174.172 21.1016C174.302 21.513 174.367 22.0156 174.367 22.6094V28H172.102V22.6016C172.102 22.2266 172.049 21.9349 171.945 21.7266C171.841 21.5182 171.688 21.3724 171.484 21.2891C171.286 21.2005 171.042 21.1562 170.75 21.1562C170.448 21.1562 170.185 21.2161 169.961 21.3359C169.742 21.4557 169.56 21.6224 169.414 21.8359C169.273 22.0443 169.167 22.2891 169.094 22.5703C169.021 22.8516 168.984 23.1536 168.984 23.4766ZM186.484 16.625H188.82V24.1406C188.82 25.0156 188.633 25.7526 188.258 26.3516C187.888 26.9505 187.375 27.401 186.719 27.7031C186.068 28.0052 185.318 28.1562 184.469 28.1562C183.62 28.1562 182.865 28.0052 182.203 27.7031C181.547 27.401 181.031 26.9505 180.656 26.3516C180.286 25.7526 180.102 25.0156 180.102 24.1406V16.625H182.445V24.1406C182.445 24.651 182.526 25.0677 182.688 25.3906C182.849 25.7135 183.081 25.9505 183.383 26.1016C183.69 26.2526 184.052 26.3281 184.469 26.3281C184.896 26.3281 185.258 26.2526 185.555 26.1016C185.857 25.9505 186.086 25.7135 186.242 25.3906C186.404 25.0677 186.484 24.651 186.484 24.1406V16.625ZM192.859 21.1719V31.25H190.609V19.5469H192.695L192.859 21.1719ZM198.211 23.6797V23.8438C198.211 24.4583 198.138 25.0286 197.992 25.5547C197.852 26.0807 197.643 26.5391 197.367 26.9297C197.091 27.3151 196.747 27.6172 196.336 27.8359C195.93 28.0495 195.461 28.1562 194.93 28.1562C194.414 28.1562 193.966 28.0521 193.586 27.8438C193.206 27.6354 192.885 27.3438 192.625 26.9688C192.37 26.5885 192.164 26.1484 192.008 25.6484C191.852 25.1484 191.732 24.612 191.648 24.0391V23.6094C191.732 22.9948 191.852 22.4323 192.008 21.9219C192.164 21.4062 192.37 20.9609 192.625 20.5859C192.885 20.2057 193.203 19.9115 193.578 19.7031C193.958 19.4948 194.404 19.3906 194.914 19.3906C195.451 19.3906 195.922 19.4922 196.328 19.6953C196.74 19.8984 197.083 20.1901 197.359 20.5703C197.641 20.9505 197.852 21.4036 197.992 21.9297C198.138 22.4557 198.211 23.0391 198.211 23.6797ZM195.953 23.8438V23.6797C195.953 23.3203 195.922 22.9896 195.859 22.6875C195.802 22.3802 195.708 22.112 195.578 21.8828C195.453 21.6536 195.286 21.4766 195.078 21.3516C194.875 21.2214 194.628 21.1562 194.336 21.1562C194.029 21.1562 193.766 21.2057 193.547 21.3047C193.333 21.4036 193.159 21.5469 193.023 21.7344C192.888 21.9219 192.786 22.1458 192.719 22.4062C192.651 22.6667 192.609 22.9609 192.594 23.2891V24.375C192.62 24.7604 192.693 25.1068 192.812 25.4141C192.932 25.7161 193.117 25.9557 193.367 26.1328C193.617 26.3099 193.945 26.3984 194.352 26.3984C194.648 26.3984 194.898 26.3333 195.102 26.2031C195.305 26.0677 195.469 25.8828 195.594 25.6484C195.724 25.4141 195.815 25.1432 195.867 24.8359C195.924 24.5286 195.953 24.1979 195.953 23.8438Z" fill="white"/>
</svg>
