<svg width="61" height="61" viewBox="0 0 61 61" fill="none" xmlns="http://www.w3.org/2000/svg">
<g clip-path="url(#clip0_209_4342)">
<rect y="0.429688" width="60.1409" height="60.1409" rx="30.0705" fill="white"/>
<g clip-path="url(#clip1_209_4342)">
<path d="M51.0167 46.2963C48.3386 43.3947 45.0886 41.079 41.4716 39.4952C37.8545 37.9114 33.9486 37.0938 30 37.0938C26.0514 37.0937 22.1455 37.9114 18.5284 39.4952C14.9113 41.079 11.6614 43.3947 8.98333 46.2963C8.56986 46.7535 8.33857 47.3466 8.33333 47.963V57.963C8.34209 58.6203 8.60935 59.2476 9.07724 59.7093C9.54514 60.1709 10.176 60.4297 10.8333 60.4297H49.1667C49.8297 60.4297 50.4656 60.1663 50.9344 59.6974C51.4033 59.2286 51.6667 58.5927 51.6667 57.9297V47.9297C51.6534 47.3248 51.4226 46.7449 51.0167 46.2963Z" fill="black"/>
<path d="M30 33.763C36.4433 33.763 41.6667 28.5397 41.6667 22.0964C41.6667 15.653 36.4433 10.4297 30 10.4297C23.5567 10.4297 18.3333 15.653 18.3333 22.0964C18.3333 28.5397 23.5567 33.763 30 33.763Z" fill="black"/>
</g>
</g>
<rect x="0.501174" y="0.930862" width="59.1386" height="59.1386" rx="29.5693" stroke="#CFCFCF" stroke-width="1.00235"/>
<defs>
<clipPath id="clip0_209_4342">
<rect y="0.429688" width="60.1409" height="60.1409" rx="30.0705" fill="white"/>
</clipPath>
<clipPath id="clip1_209_4342">
<rect width="60" height="60" fill="white" transform="translate(0 5.42969)"/>
</clipPath>
</defs>
</svg>
