<svg width="154" height="154" viewBox="0 0 154 154" fill="none" xmlns="http://www.w3.org/2000/svg">
<rect width="154" height="154" rx="77" fill="#0560FA"/>
<path d="M125.689 67.5335V87.3002L107.751 77.4168L94.6151 70.1842L89.8132 67.5335L71.8755 57.6501L63.5416 53.0682L53.9377 47.7667L36 37.8834L39.532 35.9521L53.9377 28L68.3435 35.9521L71.8755 37.8834L89.8132 47.7667L99.417 53.0682L107.751 57.6501L125.689 67.5335Z" fill="white"/>
<path d="M125.689 87.299L107.751 97.1445L94.615 104.377L89.813 107.028L85.0111 104.377L71.8753 97.1445L89.813 87.299V87.2611L125.689 67.5322V87.299Z" fill="#F3F3F3"/>
<path d="M71.8755 77.4162L53.9377 87.2617V126.795L44.3339 121.494L36 116.912V57.6494L53.9377 67.5328L58.7397 70.1835L71.8755 77.4162Z" fill="white"/>
<path d="M71.8754 116.912L63.5415 121.494L53.9377 126.795V107.028L71.8754 116.912Z" fill="white"/>
</svg>
