<svg width="24" height="25" viewBox="0 0 24 25" fill="none" xmlns="http://www.w3.org/2000/svg">
<path d="M12.0186 3.40997C8.70862 3.40997 6.01862 6.09997 6.01862 9.40997V12.3C6.01862 12.91 5.75862 13.84 5.44862 14.36L4.29862 16.27C3.58862 17.45 4.07862 18.76 5.37862 19.2C9.68862 20.64 14.3386 20.64 18.6486 19.2C19.8586 18.8 20.3886 17.37 19.7286 16.27L18.5786 14.36C18.2786 13.84 18.0186 12.91 18.0186 12.3V9.40997C18.0186 6.10997 15.3186 3.40997 12.0186 3.40997Z" stroke="white" stroke-width="1.5" stroke-miterlimit="10" stroke-linecap="round"/>
<path d="M13.8719 3.7C13.5619 3.61 13.2419 3.54 12.9119 3.5C11.9519 3.38 11.0319 3.45 10.1719 3.7C10.4619 2.96 11.1819 2.44 12.0219 2.44C12.8619 2.44 13.5819 2.96 13.8719 3.7Z" stroke="white" stroke-width="1.5" stroke-miterlimit="10" stroke-linecap="round" stroke-linejoin="round"/>
<path d="M15.0195 19.56C15.0195 21.21 13.6695 22.56 12.0195 22.56C11.1995 22.56 10.4395 22.22 9.89953 21.68C9.35953 21.14 9.01953 20.38 9.01953 19.56" stroke="white" stroke-width="1.5" stroke-miterlimit="10"/>
</svg>
