<svg width="271" height="107" viewBox="0 0 271 107" fill="none" xmlns="http://www.w3.org/2000/svg">
<rect width="270.95" height="107" fill="#0560FA"/>
<path d="M118.208 49.4768H109.249V69.1423H98.0145V16.498H118.263C124.699 16.498 129.664 17.8744 133.159 20.6005C136.654 23.3532 138.402 27.2175 138.402 32.2199C138.402 35.7665 137.597 38.7309 135.988 41.0865C134.379 43.4686 131.938 45.3478 128.665 46.7506L140.454 68.0042V69.1158H128.721L118.208 49.4768ZM109.276 40.7954H118.347C121.176 40.7954 123.34 40.1072 124.893 38.7309C126.446 37.3546 127.223 35.4754 127.223 33.0668C127.223 30.6053 126.502 28.6732 125.032 27.2704C123.561 25.8676 121.342 25.153 118.319 25.153H109.304V40.7954H109.276Z" fill="white"/>
<path d="M164.919 69.2226C158.983 69.2226 154.129 67.4757 150.412 64.0084C146.668 60.5412 144.809 55.9093 144.809 50.1129V49.1071C144.809 45.2164 145.586 41.7491 147.167 38.6789C148.748 35.6086 150.967 33.253 153.852 31.612C156.737 29.9445 160.037 29.124 163.727 29.124C169.274 29.124 173.629 30.7915 176.819 34.1264C180.009 37.4613 181.59 42.1991 181.59 48.3131V52.5215H155.793C156.154 55.0359 157.208 57.0739 158.956 58.5826C160.703 60.1177 162.95 60.8588 165.641 60.8588C169.801 60.8588 173.074 59.4295 175.404 56.5446L180.73 62.2351C179.094 64.4319 176.902 66.1259 174.128 67.3698C171.355 68.6138 168.276 69.2226 164.919 69.2226ZM163.671 37.4613C161.535 37.4613 159.788 38.1495 158.456 39.5523C157.125 40.9286 156.265 42.9137 155.904 45.5075H170.966V44.687C170.911 42.3843 170.273 40.611 169.025 39.367C167.749 38.0966 165.973 37.4613 163.671 37.4613Z" fill="white"/>
<path d="M186.028 48.8945C186.028 42.8599 187.443 38.0692 190.272 34.4961C193.102 30.9229 196.985 29.1496 201.895 29.1496C205.833 29.1496 209.107 30.5524 211.658 33.358V16.498H222.504V69.1423H212.713L212.213 64.4046C209.523 67.6072 206.055 69.2217 201.811 69.2217C197.04 69.2217 193.212 67.4219 190.328 63.8487C187.471 60.2756 186.028 55.2997 186.028 48.8945ZM196.846 49.6621C196.846 53.2881 197.512 56.0672 198.843 57.9994C200.175 59.9315 202.089 60.9108 204.613 60.9108C207.969 60.9108 210.327 59.561 211.686 56.8613V41.5894C210.327 38.8897 207.997 37.5399 204.668 37.5399C199.454 37.5399 196.846 41.5894 196.846 49.6621Z" fill="white"/>
<path d="M230.854 21.8181C230.854 20.2829 231.408 18.986 232.49 18.0067C233.572 17.0009 235.042 16.498 236.928 16.498C238.787 16.498 240.257 17.0009 241.339 18.0067C242.448 19.0125 242.975 20.2829 242.975 21.8181C242.975 23.3796 242.42 24.6766 241.311 25.6823C240.201 26.6881 238.731 27.191 236.9 27.191C235.07 27.191 233.6 26.6881 232.49 25.6823C231.408 24.6766 230.854 23.4061 230.854 21.8181Z" fill="white"/>
<path d="M242.337 29.1494H231.491V69.1421H242.337V29.1494Z" fill="white"/>
<path d="M162.562 85.7106C161.397 85.7106 160.343 85.446 159.399 84.8901C158.456 84.3343 157.735 83.5668 157.208 82.6139C156.681 81.6346 156.431 80.5494 156.431 79.3319V78.8026C156.431 77.5586 156.681 76.4205 157.208 75.4147C157.707 74.4089 158.429 73.6149 159.344 73.0326C160.259 72.4503 161.23 72.1592 162.312 72.1592C163.976 72.1592 165.28 72.6885 166.279 73.7737C167.277 74.8589 167.749 76.3411 167.749 78.2203V79.0408H157.985V79.3055C157.985 80.7876 158.429 82.0316 159.316 83.0109C160.204 83.9902 161.313 84.4931 162.673 84.4931C163.477 84.4931 164.198 84.3608 164.808 84.0696C165.419 83.7785 166.001 83.3285 166.5 82.7198L167.444 83.4079C166.306 84.9431 164.67 85.7106 162.562 85.7106ZM162.284 73.4032C161.147 73.4032 160.176 73.8002 159.399 74.5942C158.623 75.3882 158.151 76.4734 157.985 77.7968H166.195V77.638C166.14 76.394 165.779 75.3618 165.058 74.5677C164.365 73.8002 163.421 73.4032 162.284 73.4032Z" fill="white"/>
<path d="M174.961 77.7183L178.65 72.4248H180.453L175.821 78.83L180.675 85.4734H178.872L174.961 79.9416L171.05 85.4734H169.274L174.101 78.83L169.468 72.4248H171.244L174.961 77.7183Z" fill="white"/>
<path d="M194.266 79.0672C194.266 81.1053 193.795 82.7198 192.852 83.9108C191.909 85.1019 190.633 85.7106 189.052 85.7106C187.165 85.7106 185.751 85.0754 184.752 83.8314V90.5013H183.254V72.3974H184.669L184.752 74.2501C185.751 72.8473 187.165 72.1592 189.052 72.1592C190.688 72.1592 191.964 72.7415 192.907 73.9325C193.85 75.1236 194.294 76.7646 194.294 78.8555V79.0672H194.266ZM192.741 78.829C192.741 77.1616 192.38 75.8382 191.659 74.8854C190.938 73.906 189.939 73.4296 188.663 73.4296C187.748 73.4296 186.943 73.6414 186.278 74.0649C185.612 74.4883 185.113 75.1236 184.752 75.9176V82.1904C185.113 82.9315 185.64 83.5138 186.305 83.9108C186.971 84.3078 187.776 84.4931 188.691 84.4931C189.967 84.4931 190.966 84.0167 191.659 83.0374C192.408 82.0846 192.741 80.6553 192.741 78.829Z" fill="white"/>
<path d="M203.947 73.6414C203.614 73.5884 203.281 73.562 202.921 73.562C201.978 73.562 201.173 73.8266 200.535 74.3295C199.897 74.8324 199.426 75.5735 199.148 76.5263V85.4989H197.651V72.4239H199.121L199.148 74.4883C199.953 72.9532 201.229 72.1592 203.004 72.1592C203.42 72.1592 203.753 72.2121 204.003 72.318L203.947 73.6414Z" fill="white"/>
<path d="M211.409 85.7106C210.244 85.7106 209.19 85.446 208.247 84.8901C207.304 84.3343 206.582 83.5668 206.055 82.6139C205.528 81.6346 205.279 80.5494 205.279 79.3319V78.8026C205.279 77.5586 205.528 76.4205 206.055 75.4147C206.555 74.4089 207.276 73.6149 208.191 73.0326C209.107 72.4503 210.077 72.1592 211.159 72.1592C212.823 72.1592 214.127 72.6885 215.126 73.7737C216.124 74.8589 216.596 76.3411 216.596 78.2203V79.0408H206.832V79.3055C206.832 80.7876 207.276 82.0316 208.163 83.0109C209.051 83.9902 210.161 84.4931 211.52 84.4931C212.324 84.4931 213.045 84.3608 213.656 84.0696C214.266 83.7785 214.848 83.3285 215.348 82.7198L216.291 83.4079C215.153 84.9431 213.517 85.7106 211.409 85.7106ZM211.131 73.4032C209.994 73.4032 209.023 73.8002 208.247 74.5942C207.47 75.3882 206.998 76.4734 206.832 77.7968H215.043V77.638C214.987 76.394 214.626 75.3618 213.905 74.5677C213.212 73.8002 212.269 73.4032 211.131 73.4032Z" fill="white"/>
<path d="M227.691 82.164C227.691 81.4493 227.386 80.8671 226.776 80.4436C226.166 80.0201 225.25 79.676 224.058 79.4113C222.837 79.1731 221.894 78.882 221.228 78.5644C220.562 78.2467 220.063 77.8497 219.73 77.3998C219.397 76.9498 219.231 76.394 219.231 75.7323C219.231 74.7001 219.675 73.8531 220.59 73.165C221.506 72.5033 222.643 72.1592 224.058 72.1592C225.583 72.1592 226.804 72.5297 227.747 73.2444C228.69 73.959 229.134 74.9118 229.134 76.0764H227.608C227.608 75.3088 227.275 74.6736 226.609 74.1707C225.944 73.6678 225.084 73.4032 224.085 73.4032C223.087 73.4032 222.282 73.6149 221.7 74.0384C221.09 74.4619 220.784 75.0177 220.784 75.6794C220.784 76.3411 221.034 76.844 221.533 77.188C222.033 77.5586 222.948 77.8762 224.279 78.1673C225.611 78.4585 226.609 78.7761 227.275 79.1202C227.941 79.4643 228.44 79.8613 228.745 80.3377C229.078 80.8141 229.217 81.3964 229.217 82.0581C229.217 83.1697 228.745 84.0432 227.83 84.7049C226.887 85.3666 225.666 85.6842 224.168 85.6842C222.56 85.6842 221.284 85.3136 220.285 84.5725C219.286 83.8314 218.787 82.9051 218.787 81.767H220.313C220.368 82.6139 220.757 83.2756 221.422 83.752C222.116 84.2284 223.031 84.4667 224.141 84.4667C225.195 84.4667 226.055 84.2549 226.693 83.805C227.386 83.3815 227.691 82.8257 227.691 82.164Z" fill="white"/>
<path d="M240.839 82.164C240.839 81.4493 240.534 80.8671 239.924 80.4436C239.314 80.0201 238.398 79.676 237.205 79.4113C235.985 79.1731 235.042 78.882 234.376 78.5644C233.71 78.2467 233.211 77.8497 232.878 77.3998C232.545 76.9498 232.379 76.394 232.379 75.7323C232.379 74.7001 232.823 73.8531 233.738 73.165C234.654 72.5033 235.791 72.1592 237.205 72.1592C238.731 72.1592 239.952 72.5297 240.895 73.2444C241.838 73.959 242.282 74.9118 242.282 76.0764H240.756C240.756 75.3088 240.423 74.6736 239.757 74.1707C239.092 73.6678 238.232 73.4032 237.233 73.4032C236.235 73.4032 235.43 73.6149 234.848 74.0384C234.237 74.4619 233.932 75.0177 233.932 75.6794C233.932 76.3411 234.182 76.844 234.681 77.188C235.181 77.5586 236.096 77.8762 237.427 78.1673C238.759 78.4585 239.757 78.7761 240.423 79.1202C241.089 79.4643 241.588 79.8613 241.893 80.3377C242.226 80.8141 242.365 81.3964 242.365 82.0581C242.365 83.1697 241.893 84.0432 240.978 84.7049C240.035 85.3666 238.814 85.6842 237.316 85.6842C235.708 85.6842 234.432 85.3136 233.433 84.5725C232.434 83.8314 231.935 82.9051 231.935 81.767H233.461C233.516 82.6139 233.905 83.2756 234.57 83.752C235.264 84.2284 236.179 84.4667 237.289 84.4667C238.343 84.4667 239.203 84.2549 239.841 83.805C240.506 83.3815 240.839 82.8257 240.839 82.164Z" fill="white"/>
<path d="M90.6638 44.2888V58.1049L78.1261 51.1968L68.9447 46.1415L65.5884 44.2888L53.0506 37.3807L47.2256 34.1781L40.5129 30.4726L27.9752 23.5646L30.4439 22.2147L40.5129 16.6565L50.5819 22.2147L53.0506 23.5646L65.5884 30.4726L72.3011 34.1781L78.1261 37.3807L90.6638 44.2888Z" fill="white"/>
<path d="M90.6637 58.1045L78.126 64.9861L68.9446 70.0414L65.5883 71.8941L62.2319 70.0414L53.0505 64.9861L65.5883 58.1045V58.078L90.6637 44.2883V58.1045Z" fill="#F3F3F3"/>
<path d="M53.0506 51.1963L40.5129 58.0779V85.7101L33.8002 82.0047L27.9751 78.8021V37.3801L40.5129 44.2882L43.8692 46.1409L53.0506 51.1963Z" fill="white"/>
<path d="M53.0506 78.8019L47.2256 82.0045L40.5129 85.7099V71.8938L53.0506 78.8019Z" fill="white"/>
</svg>
