<svg width="390" height="844" viewBox="0 0 390 844" fill="none" xmlns="http://www.w3.org/2000/svg">
<rect width="390" height="844" fill="#0560FA"/>
<rect width="216" height="100.321" fill="#0560FA"/>
<rect width="270.95" height="107" transform="translate(60 369)" fill="#0560FA"/>
<path d="M178.208 418.477H169.249V438.142H158.014V385.498H178.263C184.699 385.498 189.664 386.874 193.159 389.601C196.654 392.353 198.402 396.217 198.402 401.22C198.402 404.767 197.597 407.731 195.988 410.087C194.379 412.469 191.938 414.348 188.665 415.751L200.454 437.004V438.116H188.721L178.208 418.477ZM169.276 409.795H178.347C181.176 409.795 183.34 409.107 184.893 407.731C186.446 406.355 187.223 404.475 187.223 402.067C187.223 399.605 186.502 397.673 185.032 396.27C183.561 394.868 181.342 394.153 178.319 394.153H169.304V409.795H169.276Z" fill="white"/>
<path d="M224.919 438.223C218.983 438.223 214.129 436.476 210.412 433.008C206.668 429.541 204.809 424.909 204.809 419.113V418.107C204.809 414.216 205.586 410.749 207.167 407.679C208.748 404.609 210.967 402.253 213.852 400.612C216.737 398.945 220.037 398.124 223.727 398.124C229.274 398.124 233.629 399.791 236.819 403.126C240.009 406.461 241.59 411.199 241.59 417.313V421.521H215.793C216.154 424.036 217.208 426.074 218.956 427.583C220.703 429.118 222.95 429.859 225.641 429.859C229.801 429.859 233.074 428.43 235.404 425.545L240.73 431.235C239.094 433.432 236.902 435.126 234.128 436.37C231.355 437.614 228.276 438.223 224.919 438.223ZM223.671 406.461C221.535 406.461 219.788 407.15 218.456 408.552C217.125 409.929 216.265 411.914 215.904 414.508H230.966V413.687C230.911 411.384 230.273 409.611 229.025 408.367C227.749 407.097 225.973 406.461 223.671 406.461Z" fill="white"/>
<path d="M246.028 417.895C246.028 411.86 247.443 407.069 250.272 403.496C253.102 399.923 256.985 398.15 261.895 398.15C265.833 398.15 269.107 399.552 271.658 402.358V385.498H282.504V438.142H272.713L272.213 433.405C269.523 436.607 266.055 438.222 261.811 438.222C257.04 438.222 253.212 436.422 250.328 432.849C247.471 429.276 246.028 424.3 246.028 417.895ZM256.846 418.662C256.846 422.288 257.512 425.067 258.843 426.999C260.175 428.932 262.089 429.911 264.613 429.911C267.969 429.911 270.327 428.561 271.686 425.861V410.589C270.327 407.89 267.997 406.54 264.668 406.54C259.454 406.54 256.846 410.589 256.846 418.662Z" fill="white"/>
<path d="M290.854 390.818C290.854 389.283 291.408 387.986 292.49 387.007C293.572 386.001 295.042 385.498 296.928 385.498C298.787 385.498 300.257 386.001 301.339 387.007C302.448 388.012 302.975 389.283 302.975 390.818C302.975 392.38 302.42 393.677 301.311 394.682C300.201 395.688 298.731 396.191 296.9 396.191C295.07 396.191 293.6 395.688 292.49 394.682C291.408 393.677 290.854 392.406 290.854 390.818Z" fill="white"/>
<path d="M302.337 398.149H291.491V438.142H302.337V398.149Z" fill="white"/>
<path d="M222.562 454.711C221.397 454.711 220.343 454.446 219.399 453.89C218.456 453.334 217.735 452.567 217.208 451.614C216.681 450.635 216.431 449.549 216.431 448.332V447.803C216.431 446.559 216.681 445.42 217.208 444.415C217.707 443.409 218.429 442.615 219.344 442.033C220.259 441.45 221.23 441.159 222.312 441.159C223.976 441.159 225.28 441.689 226.279 442.774C227.277 443.859 227.749 445.341 227.749 447.22V448.041H217.985V448.305C217.985 449.788 218.429 451.032 219.316 452.011C220.204 452.99 221.313 453.493 222.673 453.493C223.477 453.493 224.198 453.361 224.808 453.07C225.419 452.778 226.001 452.329 226.5 451.72L227.444 452.408C226.306 453.943 224.67 454.711 222.562 454.711ZM222.284 442.403C221.147 442.403 220.176 442.8 219.399 443.594C218.623 444.388 218.151 445.473 217.985 446.797H226.195V446.638C226.14 445.394 225.779 444.362 225.058 443.568C224.365 442.8 223.421 442.403 222.284 442.403Z" fill="white"/>
<path d="M234.961 446.718L238.65 441.425H240.453L235.821 447.83L240.675 454.473H238.872L234.961 448.942L231.05 454.473H229.274L234.101 447.83L229.468 441.425H231.244L234.961 446.718Z" fill="white"/>
<path d="M254.266 448.067C254.266 450.105 253.795 451.72 252.852 452.911C251.909 454.102 250.633 454.711 249.052 454.711C247.165 454.711 245.751 454.075 244.752 452.831V459.501H243.254V441.397H244.669L244.752 443.25C245.751 441.847 247.165 441.159 249.052 441.159C250.688 441.159 251.964 441.741 252.907 442.933C253.85 444.124 254.294 445.765 254.294 447.856V448.067H254.266ZM252.741 447.829C252.741 446.162 252.38 444.838 251.659 443.885C250.938 442.906 249.939 442.43 248.663 442.43C247.748 442.43 246.943 442.641 246.278 443.065C245.612 443.488 245.113 444.124 244.752 444.918V451.19C245.113 451.932 245.64 452.514 246.305 452.911C246.971 453.308 247.776 453.493 248.691 453.493C249.967 453.493 250.966 453.017 251.659 452.037C252.408 451.085 252.741 449.655 252.741 447.829Z" fill="white"/>
<path d="M263.947 442.641C263.614 442.588 263.281 442.562 262.921 442.562C261.978 442.562 261.173 442.827 260.535 443.33C259.897 443.832 259.426 444.574 259.148 445.526V454.499H257.651V441.424H259.121L259.148 443.488C259.953 441.953 261.229 441.159 263.004 441.159C263.42 441.159 263.753 441.212 264.003 441.318L263.947 442.641Z" fill="white"/>
<path d="M271.409 454.711C270.244 454.711 269.19 454.446 268.247 453.89C267.304 453.334 266.582 452.567 266.055 451.614C265.528 450.635 265.279 449.549 265.279 448.332V447.803C265.279 446.559 265.528 445.42 266.055 444.415C266.555 443.409 267.276 442.615 268.191 442.033C269.107 441.45 270.077 441.159 271.159 441.159C272.823 441.159 274.127 441.689 275.126 442.774C276.124 443.859 276.596 445.341 276.596 447.22V448.041H266.832V448.305C266.832 449.788 267.276 451.032 268.163 452.011C269.051 452.99 270.161 453.493 271.52 453.493C272.324 453.493 273.045 453.361 273.656 453.07C274.266 452.778 274.848 452.329 275.348 451.72L276.291 452.408C275.153 453.943 273.517 454.711 271.409 454.711ZM271.131 442.403C269.994 442.403 269.023 442.8 268.247 443.594C267.47 444.388 266.998 445.473 266.832 446.797H275.043V446.638C274.987 445.394 274.626 444.362 273.905 443.568C273.212 442.8 272.269 442.403 271.131 442.403Z" fill="white"/>
<path d="M287.691 451.164C287.691 450.449 287.386 449.867 286.776 449.444C286.166 449.02 285.25 448.676 284.058 448.411C282.837 448.173 281.894 447.882 281.228 447.564C280.562 447.247 280.063 446.85 279.73 446.4C279.397 445.95 279.231 445.394 279.231 444.732C279.231 443.7 279.675 442.853 280.59 442.165C281.506 441.503 282.643 441.159 284.058 441.159C285.583 441.159 286.804 441.53 287.747 442.244C288.69 442.959 289.134 443.912 289.134 445.076H287.608C287.608 444.309 287.275 443.674 286.609 443.171C285.944 442.668 285.084 442.403 284.085 442.403C283.087 442.403 282.282 442.615 281.7 443.038C281.09 443.462 280.784 444.018 280.784 444.679C280.784 445.341 281.034 445.844 281.533 446.188C282.033 446.559 282.948 446.876 284.279 447.167C285.611 447.458 286.609 447.776 287.275 448.12C287.941 448.464 288.44 448.861 288.745 449.338C289.078 449.814 289.217 450.396 289.217 451.058C289.217 452.17 288.745 453.043 287.83 453.705C286.887 454.367 285.666 454.684 284.168 454.684C282.56 454.684 281.284 454.314 280.285 453.573C279.286 452.831 278.787 451.905 278.787 450.767H280.313C280.368 451.614 280.757 452.276 281.422 452.752C282.116 453.228 283.031 453.467 284.141 453.467C285.195 453.467 286.055 453.255 286.693 452.805C287.386 452.381 287.691 451.826 287.691 451.164Z" fill="white"/>
<path d="M300.839 451.164C300.839 450.449 300.534 449.867 299.924 449.444C299.314 449.02 298.398 448.676 297.205 448.411C295.985 448.173 295.042 447.882 294.376 447.564C293.71 447.247 293.211 446.85 292.878 446.4C292.545 445.95 292.379 445.394 292.379 444.732C292.379 443.7 292.823 442.853 293.738 442.165C294.654 441.503 295.791 441.159 297.205 441.159C298.731 441.159 299.952 441.53 300.895 442.244C301.838 442.959 302.282 443.912 302.282 445.076H300.756C300.756 444.309 300.423 443.674 299.757 443.171C299.092 442.668 298.232 442.403 297.233 442.403C296.235 442.403 295.43 442.615 294.848 443.038C294.237 443.462 293.932 444.018 293.932 444.679C293.932 445.341 294.182 445.844 294.681 446.188C295.181 446.559 296.096 446.876 297.427 447.167C298.759 447.458 299.757 447.776 300.423 448.12C301.089 448.464 301.588 448.861 301.893 449.338C302.226 449.814 302.365 450.396 302.365 451.058C302.365 452.17 301.893 453.043 300.978 453.705C300.035 454.367 298.814 454.684 297.316 454.684C295.708 454.684 294.432 454.314 293.433 453.573C292.434 452.831 291.935 451.905 291.935 450.767H293.461C293.516 451.614 293.905 452.276 294.57 452.752C295.264 453.228 296.179 453.467 297.289 453.467C298.343 453.467 299.203 453.255 299.841 452.805C300.506 452.381 300.839 451.826 300.839 451.164Z" fill="white"/>
<path d="M150.664 413.289V427.105L138.126 420.197L128.945 415.142L125.588 413.289L113.051 406.381L107.226 403.178L100.513 399.473L87.9752 392.565L90.4439 391.215L100.513 385.656L110.582 391.215L113.051 392.565L125.588 399.473L132.301 403.178L138.126 406.381L150.664 413.289Z" fill="white"/>
<path d="M150.664 427.104L138.126 433.986L128.945 439.041L125.588 440.894L122.232 439.041L113.051 433.986L125.588 427.104V427.078L150.664 413.288V427.104Z" fill="#F3F3F3"/>
<path d="M113.051 420.196L100.513 427.078V454.71L93.8002 451.005L87.9751 447.802V406.38L100.513 413.288L103.869 415.141L113.051 420.196Z" fill="white"/>
<path d="M113.051 447.802L107.226 451.004L100.513 454.71V440.894L113.051 447.802Z" fill="white"/>
</svg>
