<svg width="215" height="78" viewBox="0 0 215 78" fill="none" xmlns="http://www.w3.org/2000/svg">
<g clip-path="url(#clip0_1_1099)">
<path d="M90.2329 34.5622H81.2734V55.1718H70.0394V0.000244141H90.2884C96.7237 0.000244141 101.689 1.44264 105.184 4.29969C108.679 7.18448 110.426 11.2343 110.426 16.4768C110.426 20.1938 109.622 23.3005 108.013 25.7692C106.404 28.2656 103.963 30.2351 100.69 31.7052L112.479 53.9791V55.1441H100.746L90.2329 34.5622ZM81.3011 25.4641H90.3716C93.2009 25.4641 95.3645 24.7429 96.9178 23.3005C98.4712 21.8581 99.2479 19.8886 99.2479 17.3645C99.2479 14.7848 98.5267 12.7599 97.0565 11.2898C95.5864 9.81962 93.3673 9.07069 90.3438 9.07069H81.3289V25.4641H81.3011Z" fill="#0560FA"/>
<path d="M136.944 55.2553C131.008 55.2553 126.154 53.4246 122.437 49.7908C118.692 46.1571 116.834 41.3029 116.834 35.2282V34.1742C116.834 30.0966 117.611 26.4629 119.192 23.2452C120.773 20.0276 122.992 17.5589 125.877 15.8391C128.762 14.0916 132.062 13.2317 135.752 13.2317C141.299 13.2317 145.654 14.9792 148.844 18.4742C152.034 21.9693 153.615 26.9344 153.615 33.342V37.7524H127.818C128.179 40.3875 129.233 42.5234 130.981 44.1045C132.728 45.7133 134.975 46.49 137.666 46.49C141.826 46.49 145.099 44.9921 147.429 41.9686L152.755 47.9324C151.119 50.2347 148.927 52.0099 146.153 53.3136C143.38 54.6173 140.301 55.2553 136.944 55.2553ZM135.696 21.9693C133.56 21.9693 131.813 22.6905 130.481 24.1606C129.15 25.603 128.29 27.6834 127.929 30.4017H142.991V29.5418C142.936 27.1286 142.298 25.2701 141.05 23.9664C139.774 22.635 137.998 21.9693 135.696 21.9693Z" fill="#0560FA"/>
<path d="M158.053 33.952C158.053 27.6276 159.468 22.607 162.297 18.8623C165.127 15.1176 169.01 13.2592 173.92 13.2592C177.858 13.2592 181.132 14.7293 183.683 17.6696V0.000244141H194.529V55.1718H184.738L184.238 50.2067C181.548 53.563 178.08 55.2551 173.836 55.2551C169.065 55.2551 165.237 53.3688 162.353 49.6242C159.496 45.8795 158.053 40.6647 158.053 33.952ZM168.871 34.7564C168.871 38.5566 169.537 41.4691 170.868 43.494C172.2 45.5189 174.114 46.5452 176.638 46.5452C179.994 46.5452 182.352 45.1306 183.711 42.3012V26.2962C182.352 23.4669 180.022 22.0522 176.693 22.0522C171.479 22.0522 168.871 26.2962 168.871 34.7564Z" fill="#0560FA"/>
<path d="M202.878 5.57565C202.878 3.96683 203.433 2.60765 204.515 1.58133C205.597 0.527273 207.067 0.000244141 208.953 0.000244141C210.812 0.000244141 212.282 0.527273 213.363 1.58133C214.473 2.63539 215 3.96683 215 5.57565C215 7.21222 214.445 8.5714 213.336 9.62545C212.226 10.6795 210.756 11.2065 208.925 11.2065C207.095 11.2065 205.624 10.6795 204.515 9.62545C203.433 8.5714 202.878 7.23996 202.878 5.57565Z" fill="#EC8000"/>
<path d="M214.362 13.2593H203.516V55.1719H214.362V13.2593Z" fill="#0560FA"/>
<path d="M134.587 72.5363C133.422 72.5363 132.368 72.2589 131.424 71.6764C130.481 71.0939 129.76 70.2895 129.233 69.2909C128.706 68.2646 128.456 67.1273 128.456 65.8513V65.2966C128.456 63.9929 128.706 62.8001 129.233 61.746C129.732 60.692 130.454 59.8598 131.369 59.2496C132.284 58.6394 133.255 58.3342 134.337 58.3342C136.001 58.3342 137.305 58.889 138.304 60.0263C139.302 61.1635 139.774 62.7169 139.774 64.6863V65.5462H130.01V65.8236C130.01 67.3769 130.454 68.6806 131.341 69.707C132.229 70.7333 133.338 71.2603 134.698 71.2603C135.502 71.2603 136.223 71.1216 136.833 70.8165C137.444 70.5114 138.026 70.0398 138.525 69.4018L139.469 70.123C138.331 71.7319 136.695 72.5363 134.587 72.5363ZM134.309 59.6379C133.172 59.6379 132.201 60.054 131.424 60.8862C130.648 61.7183 130.176 62.8556 130.01 64.2425H138.22V64.0761C138.165 62.7724 137.804 61.6906 137.083 60.8584C136.39 60.054 135.446 59.6379 134.309 59.6379Z" fill="#0560FA"/>
<path d="M146.986 64.1592L150.675 58.6116H152.478L147.846 65.3243L152.7 72.2866H150.897L146.986 66.4893L143.075 72.2866H141.299L146.126 65.3243L141.493 58.6116H143.269L146.986 64.1592Z" fill="#0560FA"/>
<path d="M166.291 65.5739C166.291 67.7098 165.82 69.4018 164.877 70.6501C163.934 71.8983 162.658 72.5363 161.077 72.5363C159.19 72.5363 157.776 71.8705 156.777 70.5668V77.5569H155.279V58.5839H156.694L156.777 60.5256C157.776 59.0554 159.19 58.3342 161.077 58.3342C162.713 58.3342 163.989 58.9445 164.932 60.1927C165.875 61.4409 166.319 63.1607 166.319 65.352V65.5739H166.291ZM164.766 65.3243C164.766 63.5768 164.405 62.1899 163.684 61.1913C162.963 60.165 161.964 59.6657 160.688 59.6657C159.773 59.6657 158.969 59.8876 158.303 60.3314C157.637 60.7752 157.138 61.4409 156.777 62.2731V68.8471C157.138 69.6237 157.665 70.234 158.331 70.6501C158.996 71.0661 159.801 71.2603 160.716 71.2603C161.992 71.2603 162.991 70.761 163.684 69.7347C164.433 68.7361 164.766 67.2382 164.766 65.3243Z" fill="#0560FA"/>
<path d="M175.972 59.8876C175.639 59.8321 175.306 59.8044 174.946 59.8044C174.003 59.8044 173.198 60.0817 172.56 60.6088C171.922 61.1358 171.451 61.9125 171.173 62.9111V72.3144H169.676V58.6116H171.146L171.173 60.7752C171.978 59.1664 173.254 58.3342 175.029 58.3342C175.445 58.3342 175.778 58.3897 176.028 58.5007L175.972 59.8876Z" fill="#0560FA"/>
<path d="M183.434 72.5363C182.269 72.5363 181.215 72.2589 180.272 71.6764C179.329 71.0939 178.607 70.2895 178.08 69.2909C177.553 68.2646 177.304 67.1273 177.304 65.8513V65.2966C177.304 63.9929 177.553 62.8001 178.08 61.746C178.58 60.692 179.301 59.8598 180.216 59.2496C181.132 58.6394 182.102 58.3342 183.184 58.3342C184.848 58.3342 186.152 58.889 187.151 60.0263C188.149 61.1635 188.621 62.7169 188.621 64.6863V65.5462H178.857V65.8236C178.857 67.3769 179.301 68.6806 180.188 69.707C181.076 70.7333 182.186 71.2603 183.545 71.2603C184.349 71.2603 185.07 71.1216 185.681 70.8165C186.291 70.5114 186.873 70.0398 187.373 69.4018L188.316 70.123C187.179 71.7319 185.542 72.5363 183.434 72.5363ZM183.156 59.6379C182.019 59.6379 181.048 60.054 180.272 60.8862C179.495 61.7183 179.023 62.8556 178.857 64.2425H187.068V64.0761C187.012 62.7724 186.651 61.6906 185.93 60.8584C185.237 60.054 184.294 59.6379 183.156 59.6379Z" fill="#0560FA"/>
<path d="M199.716 68.8193C199.716 68.0704 199.411 67.4601 198.801 67.0163C198.191 66.5725 197.275 66.2119 196.083 65.9345C194.862 65.6849 193.919 65.3798 193.253 65.0469C192.587 64.714 192.088 64.298 191.755 63.8264C191.422 63.3549 191.256 62.7724 191.256 62.0789C191.256 60.9971 191.7 60.1095 192.615 59.3883C193.531 58.6948 194.668 58.3342 196.083 58.3342C197.608 58.3342 198.829 58.7226 199.772 59.4715C200.715 60.2204 201.159 61.219 201.159 62.4395H199.633C199.633 61.6351 199.3 60.9694 198.634 60.4423C197.969 59.9153 197.109 59.6379 196.11 59.6379C195.112 59.6379 194.307 59.8598 193.725 60.3036C193.115 60.7475 192.809 61.33 192.809 62.0234C192.809 62.7169 193.059 63.2439 193.558 63.6045C194.058 63.9929 194.973 64.3257 196.304 64.6308C197.636 64.936 198.634 65.2688 199.3 65.6294C199.966 65.99 200.465 66.4061 200.77 66.9054C201.103 67.4047 201.242 68.0149 201.242 68.7084C201.242 69.8734 200.77 70.7888 199.855 71.4822C198.912 72.1757 197.691 72.5085 196.193 72.5085C194.585 72.5085 193.309 72.1202 192.31 71.3435C191.312 70.5668 190.812 69.596 190.812 68.4033H192.338C192.393 69.2909 192.782 69.9843 193.447 70.4836C194.141 70.9829 195.056 71.2326 196.166 71.2326C197.22 71.2326 198.08 71.0107 198.718 70.5391C199.411 70.0953 199.716 69.5128 199.716 68.8193Z" fill="#0560FA"/>
<path d="M212.864 68.8193C212.864 68.0704 212.559 67.4601 211.949 67.0163C211.339 66.5725 210.423 66.2119 209.23 65.9345C208.01 65.6849 207.067 65.3798 206.401 65.0469C205.735 64.714 205.236 64.298 204.903 63.8264C204.57 63.3549 204.404 62.7724 204.404 62.0789C204.404 60.9971 204.848 60.1095 205.763 59.3883C206.679 58.6948 207.816 58.3342 209.23 58.3342C210.756 58.3342 211.977 58.7226 212.92 59.4715C213.863 60.2204 214.307 61.219 214.307 62.4395H212.781C212.781 61.6351 212.448 60.9694 211.782 60.4423C211.117 59.9153 210.257 59.6379 209.258 59.6379C208.26 59.6379 207.455 59.8598 206.873 60.3036C206.262 60.7475 205.957 61.33 205.957 62.0234C205.957 62.7169 206.207 63.2439 206.706 63.6045C207.206 63.9929 208.121 64.3257 209.452 64.6308C210.784 64.936 211.782 65.2688 212.448 65.6294C213.114 65.99 213.613 66.4061 213.918 66.9054C214.251 67.4047 214.39 68.0149 214.39 68.7084C214.39 69.8734 213.918 70.7888 213.003 71.4822C212.06 72.1757 210.839 72.5085 209.341 72.5085C207.733 72.5085 206.457 72.1202 205.458 71.3435C204.459 70.5668 203.96 69.596 203.96 68.4033H205.486C205.541 69.2909 205.93 69.9843 206.595 70.4836C207.289 70.9829 208.204 71.2326 209.314 71.2326C210.368 71.2326 211.228 71.0107 211.866 70.5391C212.531 70.0953 212.864 69.5128 212.864 68.8193Z" fill="#0560FA"/>
<path d="M62.6887 29.1258V43.6053L50.151 36.3656L40.9696 31.0675L37.6132 29.1258L25.0755 21.8861L19.2504 18.5298L12.5377 14.6464L0 7.4067L2.46871 5.99205L12.5377 0.166992L22.6068 5.99205L25.0755 7.4067L37.6132 14.6464L44.3259 18.5298L50.151 21.8861L62.6887 29.1258Z" fill="#0560FA"/>
<path d="M62.6887 43.6052L50.1509 50.8171L40.9695 56.1152L37.6132 58.0568L34.2568 56.1152L25.0754 50.8171L37.6132 43.6052V43.5774L62.6887 29.1257V43.6052Z" fill="#0045AA"/>
<path d="M25.0755 36.3657L12.5377 43.5776V72.5365L5.82506 68.6531L0 65.2968V21.8862L12.5377 29.1259L15.8941 31.0676L25.0755 36.3657Z" fill="#EC8000"/>
<path d="M25.0755 65.2968L19.2504 68.6532L12.5377 72.5366V58.0571L25.0755 65.2968Z" fill="#B75F00"/>
</g>
<defs>
<clipPath id="clip0_1_1099">
<rect width="215" height="77.5564" fill="white"/>
</clipPath>
</defs>
</svg>
