<svg width="64" height="64" viewBox="0 0 64 64" fill="none" xmlns="http://www.w3.org/2000/svg">
<rect width="64" height="64" rx="17" fill="#0560FA"/>
<path d="M52.6499 28.0662V36.281L45.1953 32.1736L39.7362 29.1678L37.7406 28.0662L30.286 23.9588L26.8226 22.0547L22.8314 19.8515L15.3767 15.7441L16.8445 14.9415L22.8314 11.6367L28.8182 14.9415L30.286 15.7441L37.7406 19.8515L41.7318 22.0547L45.1953 23.9588L52.6499 28.0662Z" fill="white"/>
<path d="M52.6498 36.2802L45.1951 40.3718L39.7361 43.3776L37.7405 44.4792L35.7449 43.3776L30.2858 40.3718L37.7405 36.2802V36.2644L52.6498 28.0654V36.2802Z" fill="#F3F3F3"/>
<path d="M30.286 32.1728L22.8314 36.2644V52.6939L18.8402 50.4907L15.3767 48.5865V23.958L22.8314 28.0654L24.827 29.167L30.286 32.1728Z" fill="white"/>
<path d="M30.2859 48.5869L26.8225 50.4911L22.8313 52.6942V44.4795L30.2859 48.5869Z" fill="white"/>
</svg>
