<svg width="32" height="32" viewBox="0 0 32 32" fill="none" xmlns="http://www.w3.org/2000/svg">
<rect width="32" height="32" rx="16" fill="#0560FA"/>
<path d="M26.325 14.0331V18.1405L22.5976 16.0868L19.8681 14.5839L18.8703 14.0331L15.143 11.9794L13.4113 11.0273L11.4157 9.92573L7.68835 7.87205L8.42227 7.47075L11.4157 5.81836L14.4091 7.47075L15.143 7.87205L18.8703 9.92573L20.8659 11.0273L22.5976 11.9794L26.325 14.0331Z" fill="white"/>
<path d="M26.3249 18.1401L22.5976 20.1859L19.868 21.6888L18.8702 22.2396L17.8724 21.6888L15.1429 20.1859L18.8702 18.1401V18.1322L26.3249 14.0327V18.1401Z" fill="#F3F3F3"/>
<path d="M15.143 16.0864L11.4157 18.1322V26.3469L9.42008 25.2454L7.68835 24.2933V11.979L11.4157 14.0327L12.4135 14.5835L15.143 16.0864Z" fill="white"/>
<path d="M15.143 24.2934L13.4113 25.2455L11.4156 26.3471V22.2397L15.143 24.2934Z" fill="white"/>
</svg>
