<svg width="128" height="128" viewBox="0 0 128 128" fill="none" xmlns="http://www.w3.org/2000/svg">
<rect width="128" height="128" rx="17" fill="#0560FA"/>
<path d="M105.3 56.1324V72.5619L90.3906 64.3472L79.4725 58.3356L75.4813 56.1324L60.572 47.9177L53.6451 44.1093L45.6627 39.7029L30.7534 31.4882L33.6891 29.883L45.6627 23.2734L57.6363 29.883L60.572 31.4882L75.4813 39.7029L83.4637 44.1093L90.3906 47.9177L105.3 56.1324Z" fill="white"/>
<path d="M105.3 72.5604L90.3902 80.7436L79.4721 86.7552L75.4809 88.9584L71.4897 86.7552L60.5717 80.7436L75.4809 72.5604V72.5289L105.3 56.1309V72.5604Z" fill="#F3F3F3"/>
<path d="M60.572 64.3455L45.6627 72.5288V105.388L37.6803 100.981L30.7534 97.173V47.916L45.6627 56.1308L49.6539 58.334L60.572 64.3455Z" fill="white"/>
<path d="M60.5719 97.1737L53.645 100.982L45.6626 105.388V88.959L60.5719 97.1737Z" fill="white"/>
</svg>
